{
.appVersion = "1032";
DisplayStrings = (
" ",
"/tar-georgian",
"/un-georgian",
"/man-georgian",
"/man-georgian/an-georgian/ban-georgian/on-georgian/las-georgian/an-georgian/san-georgian/en-georgian/nar-georgian/in-georgian \012/man-georgian/an-georgian/ban-georgian/on-georgian/las-georgian/an-georgian/san-georgian/en-georgian/nar-georgian/in-georgian \012"
);
date = "2016-04-09 15:12:19 +0000";
designer = "Stranger and me <3";
familyName = Kupiura;
fontMaster = (
{
alignmentZones = (
"{690, 12}",
"{395, 12}",
"{0, -12}"
);
ascender = 710;
capHeight = 690;
descender = -200;
guideLines = (
{
position = "{623, -10}";
},
{
position = "{717, 13}";
},
{
position = "{629, 421}";
},
{
position = "{809, 489}";
},
{
position = "{288, 690}";
},
{
position = "{266, 678}";
},
{
position = "{329, 196}";
}
);
id = "878EBA0B-B3D3-4EA2-BB74-EB37BB03E3E9";
visible = 1;
weight = Light;
weightValue = 70;
xHeight = 395;
},
{
alignmentZones = (
"{690, 12}",
"{395, 12}",
"{0, -12}"
);
ascender = 710;
capHeight = 690;
descender = -200;
guideLines = (
{
position = "{673, 373}";
},
{
position = "{893, 318}";
},
{
angle = 1.2763;
position = "{524, 472}";
},
{
position = "{868, 318}";
}
);
id = "FF6A36D6-AC67-41FE-A58D-2D1E84E0ACD0";
visible = 1;
weight = Bold;
weightValue = 800;
xHeight = 395;
}
);
glyphs = (
{
glyphname = "Ban-georgian";
lastChange = "2017-03-23 19:18:16 +0000";
layers = (
{
backgroundImage = {
crop = "{{0, 0}, {177, 261}}";
imagePath = ../mtavruli/ban.jpg;
locked = "1";
transform = "{3.839, 0, 0, 3.839, -31, -173}";
};
layerId = "FF6A36D6-AC67-41FE-A58D-2D1E84E0ACD0";
width = 622;
},
{
associatedMasterId = "FF6A36D6-AC67-41FE-A58D-2D1E84E0ACD0";
backgroundImage = {
crop = "{{0, 0}, {177, 261}}";
imagePath = ../mtavruli/ban.jpg;
locked = "1";
transform = "{3.839, 0, 0, 3.839, -37, -173}";
};
layerId = "154873C5-F79F-48B4-A81C-6AAB0E5880C9";
name = "Bold May 3 16, 19:54";
paths = (
{
closed = 1;
nodes = (
"44 71 OFFCURVE",
"153 -12 OFFCURVE",
"305 -12 CURVE SMOOTH",
"454 -12 OFFCURVE",
"566 69 OFFCURVE",
"566 177 CURVE SMOOTH",
"566 273 OFFCURVE",
"452 339 OFFCURVE",
"340 395 CURVE SMOOTH",
"332 399 OFFCURVE",
"325 406 OFFCURVE",
"325 415 CURVE",
"325 443 LINE",
"325 493 OFFCURVE",
"377 495 OFFCURVE",
"377 545 CURVE SMOOTH",
"377 591 OFFCURVE",
"349 618 OFFCURVE",
"316 633 CURVE SMOOTH",
"254 662 LINE SMOOTH",
"234 671 OFFCURVE",
"213 684 OFFCURVE",
"204 702 CURVE",
"178 690 LINE",
"184 669 OFFCURVE",
"188 652 OFFCURVE",
"188 636 CURVE SMOOTH",
"188 602 OFFCURVE",
"170 578 OFFCURVE",
"120 554 CURVE",
"141 527 LINE",
"153 533 OFFCURVE",
"173 544 OFFCURVE",
"198 544 CURVE SMOOTH",
"207 544 OFFCURVE",
"219 543 OFFCURVE",
"228 539 CURVE SMOOTH",
"268 522 LINE SMOOTH",
"290 513 OFFCURVE",
"291 490 OFFCURVE",
"291 462 CURVE",
"291 422 LINE",
"291 406 OFFCURVE",
"279 401 OFFCURVE",
"271 397 CURVE SMOOTH",
"119 321 OFFCURVE",
"44 267 OFFCURVE",
"44 178 CURVE SMOOTH"
);
},
{
closed = 1;
nodes = (
"214 242 LINE SMOOTH",
"214 311 OFFCURVE",
"262 355 OFFCURVE",
"305 372 CURVE",
"351 352 OFFCURVE",
"396 311 OFFCURVE",
"396 241 CURVE SMOOTH",
"396 113 LINE SMOOTH",
"396 64 OFFCURVE",
"355 23 OFFCURVE",
"305 23 CURVE SMOOTH",
"255 23 OFFCURVE",
"214 64 OFFCURVE",
"214 114 CURVE SMOOTH"
);
}
);
width = 600;
},
{
associatedMasterId = "FF6A36D6-AC67-41FE-A58D-2D1E84E0ACD0";
layerId = "87161DD3-ACA9-4DA9-B9D7-CB4F636F91B1";
width = 600;
},
{
layerId = "878EBA0B-B3D3-4EA2-BB74-EB37BB03E3E9";
width = 600;
}
);
unicode = 10A1;
},
{
color = 3;
glyphname = "an-georgian";
lastChange = "2017-06-10 11:19:56 +0000";
layers = (
{
backgroundImage = {
crop = "{{0, 0}, {173, 248}}";
imagePath = ../mtavruli/an.jpg;
locked = "1";
transform = "{4.5, 0, 0, 4.5, -96, -263}";
};
layerId = "FF6A36D6-AC67-41FE-A58D-2D1E84E0ACD0";
paths = (
{
closed = 1;
nodes = (
"569 329 OFFCURVE",
"511 393 OFFCURVE",
"335 470 CURVE SMOOTH",
"242 510 OFFCURVE",
"169 541 OFFCURVE",
"169 605 CURVE SMOOTH",
"169 668 OFFCURVE",
"232 677 OFFCURVE",
"247 660 CURVE",
"221 653 OFFCURVE",
"213 639 OFFCURVE",
"213 613 CURVE SMOOTH",
"213 587 OFFCURVE",
"237 563 OFFCURVE",
"271 563 CURVE SMOOTH",
"304 563 OFFCURVE",
"331 588 OFFCURVE",
"331 625 CURVE SMOOTH",
"331 678 OFFCURVE",
"280 703 OFFCURVE",
"236 703 CURVE SMOOTH",
"163 703 OFFCURVE",
"129 648 OFFCURVE",
"129 605 CURVE SMOOTH",
"129 560 OFFCURVE",
"133 510 OFFCURVE",
"265 438 CURVE SMOOTH",
"405 361 OFFCURVE",
"398 307 OFFCURVE",
"398 184 CURVE SMOOTH",
"398 118 OFFCURVE",
"382 23 OFFCURVE",
"289 23 CURVE SMOOTH",
"191 23 OFFCURVE",
"180 118 OFFCURVE",
"180 184 CURVE SMOOTH",
"180 242 OFFCURVE",
"195 292 OFFCURVE",
"237 305 CURVE",
"218 343 LINE",
"107 333 OFFCURVE",
"30 267 OFFCURVE",
"30 178 CURVE SMOOTH",
"30 62 OFFCURVE",
"126 -12 OFFCURVE",
"289 -12 CURVE SMOOTH",
"453 -12 OFFCURVE",
"569 65 OFFCURVE",
"569 199 CURVE SMOOTH"
);
},
{
closed = 1;
nodes = (
"569 329 OFFCURVE",
"511 393 OFFCURVE",
"335 470 CURVE SMOOTH",
"242 510 OFFCURVE",
"169 541 OFFCURVE",
"169 605 CURVE SMOOTH",
"169 668 OFFCURVE",
"232 677 OFFCURVE",
"247 660 CURVE",
"221 653 OFFCURVE",
"213 639 OFFCURVE",
"213 613 CURVE SMOOTH",
"213 587 OFFCURVE",
"237 563 OFFCURVE",
"271 563 CURVE SMOOTH",
"304 563 OFFCURVE",
"331 588 OFFCURVE",
"331 625 CURVE SMOOTH",
"331 678 OFFCURVE",
"280 703 OFFCURVE",
"236 703 CURVE SMOOTH",
"163 703 OFFCURVE",
"129 648 OFFCURVE",
"129 605 CURVE SMOOTH",
"129 560 OFFCURVE",
"133 510 OFFCURVE",
"265 438 CURVE SMOOTH",
"405 361 OFFCURVE",
"398 307 OFFCURVE",
"398 184 CURVE SMOOTH",
"398 118 OFFCURVE",
"382 23 OFFCURVE",
"289 23 CURVE SMOOTH",
"191 23 OFFCURVE",
"180 118 OFFCURVE",
"180 184 CURVE SMOOTH",
"180 242 OFFCURVE",
"195 292 OFFCURVE",
"237 305 CURVE",
"218 343 LINE",
"107 333 OFFCURVE",
"30 267 OFFCURVE",
"30 178 CURVE SMOOTH",
"30 62 OFFCURVE",
"126 -12 OFFCURVE",
"289 -12 CURVE SMOOTH",
"453 -12 OFFCURVE",
"569 65 OFFCURVE",
"569 199 CURVE SMOOTH"
);
}
);
width = 609;
},
{
associatedMasterId = "FF6A36D6-AC67-41FE-A58D-2D1E84E0ACD0";
backgroundImage = {
crop = "{{0, 0}, {173, 248}}";
imagePath = ../mtavruli/an.jpg;
locked = "1";
transform = "{4.5, 0, 0, 4.5, -106, -263}";
};
layerId = "CEA83126-4E1E-4DE6-A6FD-F3371BE4F7F2";
name = "Jan 9 17, 23:51";
paths = (
{
closed = 1;
nodes = (
"559 329 OFFCURVE",
"484 384 OFFCURVE",
"280 464 CURVE SMOOTH",
"162 510 OFFCURVE",
"109 560 OFFCURVE",
"109 603 CURVE SMOOTH",
"109 656 OFFCURVE",
"140 678 OFFCURVE",
"175 678 CURVE SMOOTH",
"202 678 OFFCURVE",
"221 670 OFFCURVE",
"222 642 CURVE",
"215 646 OFFCURVE",
"206 650 OFFCURVE",
"197 650 CURVE SMOOTH",
"171 650 OFFCURVE",
"150 629 OFFCURVE",
"150 603 CURVE SMOOTH",
"150 577 OFFCURVE",
"176 553 OFFCURVE",
"204 553 CURVE SMOOTH",
"243 553 OFFCURVE",
"271 578 OFFCURVE",
"271 615 CURVE SMOOTH",
"271 676 OFFCURVE",
"220 703 OFFCURVE",
"176 703 CURVE SMOOTH",
"103 703 OFFCURVE",
"78 648 OFFCURVE",
"78 607 CURVE SMOOTH",
"78 560 OFFCURVE",
"103 503 OFFCURVE",
"235 438 CURVE SMOOTH",
"375 369 OFFCURVE",
"388 307 OFFCURVE",
"388 184 CURVE SMOOTH",
"388 118 OFFCURVE",
"372 23 OFFCURVE",
"279 23 CURVE SMOOTH",
"181 23 OFFCURVE",
"170 118 OFFCURVE",
"170 184 CURVE SMOOTH",
"170 242 OFFCURVE",
"185 292 OFFCURVE",
"227 305 CURVE",
"208 343 LINE",
"97 333 OFFCURVE",
"20 267 OFFCURVE",
"20 178 CURVE SMOOTH",
"20 62 OFFCURVE",
"116 -12 OFFCURVE",
"279 -12 CURVE SMOOTH",
"443 -12 OFFCURVE",
"559 65 OFFCURVE",
"559 199 CURVE SMOOTH"
);
}
);
width = 559;
},
{
associatedMasterId = "FF6A36D6-AC67-41FE-A58D-2D1E84E0ACD0";
backgroundImage = {
crop = "{{0, 0}, {173, 248}}";
imagePath = ../mtavruli/an.jpg;
locked = "1";
transform = "{4.5, 0, 0, 4.5, -106, -263}";
};
layerId = "475ACA64-5F86-4779-91CC-7ED78C3BFBE6";
name = "Jan 10 17, 22:06";
paths = (
{
closed = 1;
nodes = (
"559 329 OFFCURVE",
"505 376 OFFCURVE",
"300 464 CURVE SMOOTH",
"182 515 OFFCURVE",
"159 560 OFFCURVE",
"159 603 CURVE SMOOTH",
"159 656 OFFCURVE",
"190 678 OFFCURVE",
"225 678 CURVE SMOOTH",
"252 678 OFFCURVE",
"271 670 OFFCURVE",
"272 642 CURVE",
"265 646 OFFCURVE",
"256 650 OFFCURVE",
"247 650 CURVE SMOOTH",
"221 650 OFFCURVE",
"200 629 OFFCURVE",
"200 603 CURVE SMOOTH",
"200 577 OFFCURVE",
"226 553 OFFCURVE",
"254 553 CURVE SMOOTH",
"293 553 OFFCURVE",
"321 578 OFFCURVE",
"321 615 CURVE SMOOTH",
"321 676 OFFCURVE",
"270 703 OFFCURVE",
"226 703 CURVE SMOOTH",
"153 703 OFFCURVE",
"119 648 OFFCURVE",
"119 607 CURVE SMOOTH",
"119 560 OFFCURVE",
"123 510 OFFCURVE",
"255 438 CURVE SMOOTH",
"395 361 OFFCURVE",
"388 307 OFFCURVE",
"388 184 CURVE SMOOTH",
"388 118 OFFCURVE",
"372 23 OFFCURVE",
"279 23 CURVE SMOOTH",
"181 23 OFFCURVE",
"170 118 OFFCURVE",
"170 184 CURVE SMOOTH",
"170 242 OFFCURVE",
"185 292 OFFCURVE",
"227 305 CURVE",
"208 343 LINE",
"97 333 OFFCURVE",
"20 267 OFFCURVE",
"20 178 CURVE SMOOTH",
"20 62 OFFCURVE",
"116 -12 OFFCURVE",
"279 -12 CURVE SMOOTH",
"443 -12 OFFCURVE",
"559 65 OFFCURVE",
"559 199 CURVE SMOOTH"
);
}
);
width = 559;
},
{
associatedMasterId = "FF6A36D6-AC67-41FE-A58D-2D1E84E0ACD0";
layerId = "87161DD3-ACA9-4DA9-B9D7-CB4F636F91B1";
width = 600;
},
{
layerId = "878EBA0B-B3D3-4EA2-BB74-EB37BB03E3E9";
paths = (
{
closed = 1;
nodes = (
"499 305 OFFCURVE",
"432 371 OFFCURVE",
"275 477 CURVE SMOOTH",
"192 533 OFFCURVE",
"163 555 OFFCURVE",
"163 606 CURVE SMOOTH",
"163 678 OFFCURVE",
"235 694 OFFCURVE",
"255 671 CURVE",
"242 673 OFFCURVE",
"230 661 OFFCURVE",
"230 646 CURVE SMOOTH",
"230 632 OFFCURVE",
"242 618 OFFCURVE",
"261 618 CURVE SMOOTH",
"279 618 OFFCURVE",
"291 632 OFFCURVE",
"291 649 CURVE SMOOTH",
"291 670 OFFCURVE",
"272 701 OFFCURVE",
"222 701 CURVE SMOOTH",
"173 701 OFFCURVE",
"131 649 OFFCURVE",
"131 606 CURVE SMOOTH",
"131 561 OFFCURVE",
"146 525 OFFCURVE",
"255 449 CURVE SMOOTH",
"388 357 OFFCURVE",
"428 318 OFFCURVE",
"428 195 CURVE SMOOTH",
"428 69 OFFCURVE",
"351 13 OFFCURVE",
"264 13 CURVE SMOOTH",
"179 13 OFFCURVE",
"100 69 OFFCURVE",
"100 175 CURVE SMOOTH",
"100 265 OFFCURVE",
"137 291 OFFCURVE",
"198 320 CURVE",
"186 344 LINE",
"118 326 OFFCURVE",
"30 278 OFFCURVE",
"30 174 CURVE SMOOTH",
"30 63 OFFCURVE",
"141 -11 OFFCURVE",
"264 -11 CURVE SMOOTH",
"388 -11 OFFCURVE",
"499 69 OFFCURVE",
"499 195 CURVE SMOOTH"
);
}
);
width = 529;
}
);
unicode = 10D0;
},
{
color = 3;
glyphname = "ban-georgian";
lastChange = "2017-06-10 11:20:07 +0000";
layers = (
{
layerId = "FF6A36D6-AC67-41FE-A58D-2D1E84E0ACD0";
paths = (
{
closed = 1;
nodes = (
"40 71 OFFCURVE",
"149 -12 OFFCURVE",
"301 -12 CURVE SMOOTH",
"450 -12 OFFCURVE",
"562 69 OFFCURVE",
"562 177 CURVE SMOOTH",
"562 273 OFFCURVE",
"451 335 OFFCURVE",
"341 394 CURVE SMOOTH",
"328 401 OFFCURVE",
"325 414 OFFCURVE",
"325 430 CURVE SMOOTH",
"325 480 OFFCURVE",
"373 495 OFFCURVE",
"373 545 CURVE SMOOTH",
"373 591 OFFCURVE",
"345 618 OFFCURVE",
"312 633 CURVE SMOOTH",
"250 662 LINE SMOOTH",
"230 671 OFFCURVE",
"209 684 OFFCURVE",
"200 702 CURVE",
"174 690 LINE",
"180 669 OFFCURVE",
"184 652 OFFCURVE",
"184 636 CURVE SMOOTH",
"184 602 OFFCURVE",
"166 578 OFFCURVE",
"116 554 CURVE",
"137 527 LINE",
"149 533 OFFCURVE",
"169 544 OFFCURVE",
"194 544 CURVE SMOOTH",
"203 544 OFFCURVE",
"215 543 OFFCURVE",
"224 539 CURVE SMOOTH",
"264 522 LINE SMOOTH",
"290 511 OFFCURVE",
"295 485 OFFCURVE",
"295 458 CURVE SMOOTH",
"295 432 OFFCURVE",
"284 405 OFFCURVE",
"267 396 CURVE SMOOTH",
"117 316 OFFCURVE",
"40 267 OFFCURVE",
"40 178 CURVE SMOOTH"
);
},
{
closed = 1;
nodes = (
"210 242 LINE SMOOTH",
"210 311 OFFCURVE",
"258 355 OFFCURVE",
"301 372 CURVE",
"347 352 OFFCURVE",
"392 311 OFFCURVE",
"392 241 CURVE SMOOTH",
"392 113 LINE SMOOTH",
"392 64 OFFCURVE",
"351 23 OFFCURVE",
"301 23 CURVE SMOOTH",
"251 23 OFFCURVE",
"210 64 OFFCURVE",
"210 114 CURVE SMOOTH"
);
}
);
width = 592;
},
{
associatedMasterId = "FF6A36D6-AC67-41FE-A58D-2D1E84E0ACD0";
layerId = "87161DD3-ACA9-4DA9-B9D7-CB4F636F91B1";
width = 600;
},
{
layerId = "878EBA0B-B3D3-4EA2-BB74-EB37BB03E3E9";
paths = (
{
closed = 1;
nodes = (
"30 94 OFFCURVE",
"106 -10 OFFCURVE",
"258 -10 CURVE SMOOTH",
"407 -10 OFFCURVE",
"486 92 OFFCURVE",
"486 167 CURVE SMOOTH",
"486 263 OFFCURVE",
"407 324 OFFCURVE",
"298 394 CURVE SMOOTH",
"259 419 OFFCURVE",
"285 454 OFFCURVE",
"314 502 CURVE SMOOTH",
"335 536 OFFCURVE",
"318 570 OFFCURVE",
"269 593 CURVE SMOOTH",
"224 614 LINE SMOOTH",
"185 632 OFFCURVE",
"189 646 OFFCURVE",
"184 694 CURVE",
"156 688 LINE",
"156 660 OFFCURVE",
"167 652 OFFCURVE",
"156 622 CURVE SMOOTH",
"149 602 OFFCURVE",
"125 580 OFFCURVE",
"93 564 CURVE",
"114 537 LINE",
"149 565 LINE SMOOTH",
"181 590 OFFCURVE",
"192 583 OFFCURVE",
"201 579 CURVE SMOOTH",
"241 562 LINE SMOOTH",
"313 531 OFFCURVE",
"268 495 OFFCURVE",
"254 458 CURVE SMOOTH",
"244 432 OFFCURVE",
"240 409 OFFCURVE",
"224 399 CURVE SMOOTH",
"76 306 OFFCURVE",
"30 257 OFFCURVE",
"30 168 CURVE SMOOTH"
);
},
{
closed = 1;
nodes = (
"101 205 LINE SMOOTH",
"101 311 OFFCURVE",
"215 365 OFFCURVE",
"258 382 CURVE",
"304 362 OFFCURVE",
"415 311 OFFCURVE",
"415 205 CURVE SMOOTH",
"415 153 LINE SMOOTH",
"415 64 OFFCURVE",
"338 13 OFFCURVE",
"258 13 CURVE SMOOTH",
"178 13 OFFCURVE",
"101 64 OFFCURVE",
"101 153 CURVE SMOOTH"
);
}
);
width = 516;
}
);
unicode = 10D1;
},
{
color = 3;
glyphname = "gan-georgian";
lastChange = "2017-03-23 00:58:26 +0000";
layers = (
{
layerId = "FF6A36D6-AC67-41FE-A58D-2D1E84E0ACD0";
paths = (
{
closed = 1;
nodes = (
"179 64 OFFCURVE",
"240 23 OFFCURVE",
"290 23 CURVE SMOOTH",
"340 23 OFFCURVE",
"401 64 OFFCURVE",
"401 139 CURVE SMOOTH",
"401 211 LINE SMOOTH",
"401 321 OFFCURVE",
"355 373 OFFCURVE",
"313 401 CURVE",
"257 370 OFFCURVE",
"179 321 OFFCURVE",
"179 232 CURVE SMOOTH",
"179 143 LINE"
);
},
{
closed = 1;
nodes = (
"252 666 OFFCURVE",
"235 656 OFFCURVE",
"220 646 CURVE",
"236 636 OFFCURVE",
"268 612 OFFCURVE",
"268 565 CURVE SMOOTH",
"268 513 OFFCURVE",
"227 472 OFFCURVE",
"177 472 CURVE SMOOTH",
"126 472 OFFCURVE",
"83 515 OFFCURVE",
"83 565 CURVE SMOOTH",
"83 620 OFFCURVE",
"144 701 OFFCURVE",
"291 701 CURVE SMOOTH",
"395 701 OFFCURVE",
"484 642 OFFCURVE",
"484 570 CURVE SMOOTH",
"484 503 OFFCURVE",
"436 464 OFFCURVE",
"358 419 CURVE",
"480 360 OFFCURVE",
"581 323 OFFCURVE",
"581 177 CURVE SMOOTH",
"581 69 OFFCURVE",
"439 -12 OFFCURVE",
"290 -12 CURVE SMOOTH",
"138 -12 OFFCURVE",
"19 71 OFFCURVE",
"19 178 CURVE SMOOTH",
"19 323 OFFCURVE",
"149 374 OFFCURVE",
"229 415 CURVE SMOOTH",
"324 464 OFFCURVE",
"355 488 OFFCURVE",
"355 550 CURVE SMOOTH",
"355 586 LINE SMOOTH",
"355 629 OFFCURVE",
"330 666 OFFCURVE",
"286 666 CURVE SMOOTH"
);
}
);
width = 600;
},
{
associatedMasterId = "FF6A36D6-AC67-41FE-A58D-2D1E84E0ACD0";
layerId = "366F2068-33AC-4F79-A7EA-0500FFBF6D51";
name = "Dec 12 16, 17:27";
paths = (
{
closed = 1;
nodes = (
"50 71 OFFCURVE",
"159 -12 OFFCURVE",
"311 -12 CURVE SMOOTH",
"460 -12 OFFCURVE",
"572 69 OFFCURVE",
"572 177 CURVE SMOOTH",
"572 293 OFFCURVE",
"490 367 OFFCURVE",
"361 409 CURVE",
"448 458 OFFCURVE",
"485 518 OFFCURVE",
"485 570 CURVE SMOOTH",
"485 642 OFFCURVE",
"416 700 OFFCURVE",
"312 700 CURVE SMOOTH",
"179 700 OFFCURVE",
"132 606 OFFCURVE",
"132 559 CURVE SMOOTH",
"132 519 OFFCURVE",
"160 478 OFFCURVE",
"208 478 CURVE SMOOTH",
"247 478 OFFCURVE",
"283 509 OFFCURVE",
"283 549 CURVE SMOOTH",
"283 585 OFFCURVE",
"262 606 OFFCURVE",
"244 615 CURVE",
"243 618 OFFCURVE",
"243 621 OFFCURVE",
"243 623 CURVE SMOOTH",
"243 656 OFFCURVE",
"271 681 OFFCURVE",
"310 681 CURVE SMOOTH",
"357 681 OFFCURVE",
"379 629 OFFCURVE",
"379 568 CURVE SMOOTH",
"379 470 OFFCURVE",
"310 440 OFFCURVE",
"250 409 CURVE SMOOTH",
"161 362 OFFCURVE",
"50 323 OFFCURVE",
"50 178 CURVE SMOOTH"
);
},
{
closed = 1;
nodes = (
"220 252 LINE SMOOTH",
"220 321 OFFCURVE",
"274 367 OFFCURVE",
"330 395 CURVE",
"372 367 OFFCURVE",
"402 321 OFFCURVE",
"402 251 CURVE SMOOTH",
"402 113 LINE SMOOTH",
"402 64 OFFCURVE",
"361 23 OFFCURVE",
"311 23 CURVE SMOOTH",
"261 23 OFFCURVE",
"220 64 OFFCURVE",
"220 114 CURVE SMOOTH"
);
}
);
width = 600;
},
{
associatedMasterId = "FF6A36D6-AC67-41FE-A58D-2D1E84E0ACD0";
layerId = "87161DD3-ACA9-4DA9-B9D7-CB4F636F91B1";
width = 600;
},
{
layerId = "878EBA0B-B3D3-4EA2-BB74-EB37BB03E3E9";
paths = (
{
closed = 1;
nodes = (
"100 64 OFFCURVE",
"191 13 OFFCURVE",
"281 13 CURVE SMOOTH",
"371 13 OFFCURVE",
"462 64 OFFCURVE",
"462 159 CURVE SMOOTH",
"462 211 LINE SMOOTH",
"462 321 OFFCURVE",
"341 382 OFFCURVE",
"299 410 CURVE",
"243 381 OFFCURVE",
"100 321 OFFCURVE",
"100 212 CURVE SMOOTH",
"100 163 LINE SMOOTH"
);
},
{
closed = 1;
nodes = (
"30 303 OFFCURVE",
"149 365 OFFCURVE",
"219 404 CURVE SMOOTH",
"313 456 OFFCURVE",
"386 490 OFFCURVE",
"386 570 CURVE SMOOTH",
"386 639 OFFCURVE",
"336 679 OFFCURVE",
"282 678 CURVE SMOOTH",
"229 678 OFFCURVE",
"201 655 OFFCURVE",
"178 623 CURVE",
"196 616 OFFCURVE",
"209 600 OFFCURVE",
"209 580 CURVE SMOOTH",
"209 554 OFFCURVE",
"188 534 OFFCURVE",
"163 534 CURVE SMOOTH",
"138 534 OFFCURVE",
"117 554 OFFCURVE",
"117 580 CURVE SMOOTH",
"117 643 OFFCURVE",
"207 701 OFFCURVE",
"282 701 CURVE SMOOTH",
"363 701 OFFCURVE",
"433 642 OFFCURVE",
"433 570 CURVE SMOOTH",
"433 503 OFFCURVE",
"360 455 OFFCURVE",
"324 428 CURVE",
"446 358 OFFCURVE",
"532 303 OFFCURVE",
"532 177 CURVE SMOOTH",
"532 80 OFFCURVE",
"430 -12 OFFCURVE",
"281 -12 CURVE SMOOTH",
"129 -12 OFFCURVE",
"30 80 OFFCURVE",
"30 178 CURVE SMOOTH"
);
}
);
width = 562;
}
);
unicode = 10D2;
},
{
color = 3;
glyphname = "don-georgian";
lastChange = "2017-03-23 00:56:18 +0000";
layers = (
{
layerId = "FF6A36D6-AC67-41FE-A58D-2D1E84E0ACD0";
paths = (
{
closed = 1;
nodes = (
"20 357 OFFCURVE",
"99 264 OFFCURVE",
"281 238 CURVE",
"288 237 LINE",
"242 220 OFFCURVE",
"195 178 OFFCURVE",
"195 126 CURVE SMOOTH",
"195 90 OFFCURVE",
"219 57 OFFCURVE",
"258 57 CURVE SMOOTH",
"286 57 OFFCURVE",
"309 79 OFFCURVE",
"309 105 CURVE SMOOTH",
"309 131 OFFCURVE",
"288 152 OFFCURVE",
"262 152 CURVE SMOOTH",
"253 152 OFFCURVE",
"244 149 OFFCURVE",
"237 145 CURVE",
"237 164 OFFCURVE",
"263 209 OFFCURVE",
"358 209 CURVE SMOOTH",
"402 209 OFFCURVE",
"478 178 OFFCURVE",
"478 98 CURVE SMOOTH",
"478 54 OFFCURVE",
"447 29 OFFCURVE",
"436 24 CURVE",
"447 0 LINE",
"663 0 LINE",
"617 149 OFFCURVE",
"506 206 OFFCURVE",
"426 233 CURVE SMOOTH",
"301 275 OFFCURVE",
"190 299 OFFCURVE",
"190 499 CURVE SMOOTH",
"190 608 OFFCURVE",
"227 664 OFFCURVE",
"296 664 CURVE SMOOTH",
"352 664 OFFCURVE",
"401 609 OFFCURVE",
"413 581 CURVE",
"445 619 LINE",
"401 667 OFFCURVE",
"357 702 OFFCURVE",
"264 702 CURVE SMOOTH",
"112 702 OFFCURVE",
"20 578 OFFCURVE",
"20 486 CURVE SMOOTH"
);
},
{
closed = 1;
nodes = (
"367 376 OFFCURVE",
"476 283 OFFCURVE",
"628 283 CURVE SMOOTH",
"777 283 OFFCURVE",
"889 374 OFFCURVE",
"889 492 CURVE SMOOTH",
"889 609 OFFCURVE",
"780 702 OFFCURVE",
"628 702 CURVE SMOOTH",
"479 702 OFFCURVE",
"367 611 OFFCURVE",
"367 493 CURVE SMOOTH"
);
},
{
closed = 1;
nodes = (
"537 577 LINE SMOOTH",
"537 626 OFFCURVE",
"578 667 OFFCURVE",
"628 667 CURVE SMOOTH",
"678 667 OFFCURVE",
"719 626 OFFCURVE",
"719 576 CURVE SMOOTH",
"719 408 LINE SMOOTH",
"719 359 OFFCURVE",
"678 318 OFFCURVE",
"628 318 CURVE SMOOTH",
"578 318 OFFCURVE",
"537 359 OFFCURVE",
"537 409 CURVE SMOOTH"
);
}
);
width = 900;
},
{
associatedMasterId = "FF6A36D6-AC67-41FE-A58D-2D1E84E0ACD0";
layerId = "87161DD3-ACA9-4DA9-B9D7-CB4F636F91B1";
width = 600;
},
{
layerId = "878EBA0B-B3D3-4EA2-BB74-EB37BB03E3E9";
paths = (
{
closed = 1;
nodes = (
"-90 357 OFFCURVE",
"39 257 OFFCURVE",
"171 231 CURVE",
"172 225 LINE",
"94 215 OFFCURVE",
"55 168 OFFCURVE",
"55 132 CURVE SMOOTH",
"55 108 OFFCURVE",
"70 93 OFFCURVE",
"87 93 CURVE SMOOTH",
"105 93 OFFCURVE",
"118 103 OFFCURVE",
"118 119 CURVE SMOOTH",
"118 137 OFFCURVE",
"109 146 OFFCURVE",
"95 146 CURVE SMOOTH",
"87 146 OFFCURVE",
"86 140 OFFCURVE",
"82 140 CURVE",
"82 165 OFFCURVE",
"123 209 OFFCURVE",
"218 209 CURVE SMOOTH",
"262 209 OFFCURVE",
"354 177 OFFCURVE",
"388 100 CURVE SMOOTH",
"418 31 OFFCURVE",
"387 29 OFFCURVE",
"376 24 CURVE",
"387 0 LINE",
"463 0 LINE",
"442 132 OFFCURVE",
"358 198 OFFCURVE",
"256 230 CURVE SMOOTH",
"146 265 OFFCURVE",
"-20 299 OFFCURVE",
"-20 499 CURVE SMOOTH",
"-20 608 OFFCURVE",
"55 678 OFFCURVE",
"144 678 CURVE SMOOTH",
"200 678 OFFCURVE",
"261 629 OFFCURVE",
"283 601 CURVE",
"305 629 LINE",
"251 677 OFFCURVE",
"197 701 OFFCURVE",
"144 701 CURVE SMOOTH",
"-8 701 OFFCURVE",
"-90 578 OFFCURVE",
"-90 486 CURVE SMOOTH"
);
},
{
closed = 1;
nodes = (
"227 376 OFFCURVE",
"316 283 OFFCURVE",
"438 283 CURVE SMOOTH",
"547 283 OFFCURVE",
"649 374 OFFCURVE",
"649 492 CURVE SMOOTH",
"649 609 OFFCURVE",
"550 701 OFFCURVE",
"438 701 CURVE SMOOTH",
"319 701 OFFCURVE",
"227 611 OFFCURVE",
"227 493 CURVE SMOOTH"
);
},
{
closed = 1;
nodes = (
"296 451 OFFCURVE",
"296 493 OFFCURVE",
"296 535 CURVE SMOOTH",
"296 626 OFFCURVE",
"358 678 OFFCURVE",
"438 678 CURVE SMOOTH",
"508 678 OFFCURVE",
"580 626 OFFCURVE",
"580 535 CURVE SMOOTH",
"580 437 LINE SMOOTH",
"580 359 OFFCURVE",
"508 310 OFFCURVE",
"438 310 CURVE SMOOTH",
"358 310 OFFCURVE",
"296 359 OFFCURVE",
"296 437 CURVE SMOOTH"
);
}
);
width = 600;
}
);
unicode = 10D3;
},
{
color = 3;
glyphname = "en-georgian";
lastChange = "2017-03-23 00:01:11 +0000";
layers = (
{
backgroundImage = {
crop = "{{0, 0}, {179, 336}}";
imagePath = ../mtavruli/en_.jpg;
locked = "1";
transform = "{4.5, 0, 0, 4.5, -85, -364}";
};
layerId = "FF6A36D6-AC67-41FE-A58D-2D1E84E0ACD0";
paths = (
{
closed = 1;
nodes = (
"219 384 LINE",
"99 377 OFFCURVE",
"8 312 OFFCURVE",
"8 198 CURVE SMOOTH",
"8 81 OFFCURVE",
"131 -12 OFFCURVE",
"283 -12 CURVE SMOOTH",
"456 -12 OFFCURVE",
"554 129 OFFCURVE",
"554 345 CURVE SMOOTH",
"554 575 OFFCURVE",
"456 702 OFFCURVE",
"273 702 CURVE SMOOTH",
"126 702 OFFCURVE",
"69 615 OFFCURVE",
"69 565 CURVE SMOOTH",
"69 515 OFFCURVE",
"111 472 OFFCURVE",
"162 472 CURVE SMOOTH",
"213 472 OFFCURVE",
"254 515 OFFCURVE",
"254 565 CURVE SMOOTH",
"254 615 OFFCURVE",
"219 639 OFFCURVE",
"200 649 CURVE",
"215 659 OFFCURVE",
"247 667 OFFCURVE",
"273 667 CURVE SMOOTH",
"353 667 OFFCURVE",
"383 613 OFFCURVE",
"383 537 CURVE SMOOTH",
"384 184 LINE SMOOTH",
"384 93 OFFCURVE",
"357 23 OFFCURVE",
"284 23 CURVE SMOOTH",
"209 23 OFFCURVE",
"178 93 OFFCURVE",
"178 184 CURVE SMOOTH",
"178 261 OFFCURVE",
"185 322 OFFCURVE",
"233 355 CURVE"
);
}
);
width = 562;
},
{
associatedMasterId = "FF6A36D6-AC67-41FE-A58D-2D1E84E0ACD0";
backgroundImage = {
crop = "{{0, 0}, {179, 336}}";
imagePath = ../mtavruli/en_.jpg;
locked = "1";
transform = "{4.5, 0, 0, 4.5, -85, -364}";
};
layerId = "F15E0B34-C2C1-4D31-9AC3-5C74AD515235";
name = "Jan 8 17, 15:49";
paths = (
{
closed = 1;
nodes = (
"219 384 LINE",
"99 377 OFFCURVE",
"8 312 OFFCURVE",
"8 198 CURVE SMOOTH",
"8 81 OFFCURVE",
"131 -12 OFFCURVE",
"283 -12 CURVE SMOOTH",
"467 -12 OFFCURVE",
"554 130 OFFCURVE",
"554 346 CURVE SMOOTH",
"554 576 OFFCURVE",
"454 702 OFFCURVE",
"273 702 CURVE SMOOTH",
"126 702 OFFCURVE",
"65 633 OFFCURVE",
"65 572 CURVE SMOOTH",
"65 522 OFFCURVE",
"101 482 OFFCURVE",
"162 482 CURVE SMOOTH",
"213 482 OFFCURVE",
"259 522 OFFCURVE",
"259 572 CURVE SMOOTH",
"259 619 OFFCURVE",
"232 645 OFFCURVE",
"209 657 CURVE",
"224 667 OFFCURVE",
"247 677 OFFCURVE",
"273 677 CURVE SMOOTH",
"353 677 OFFCURVE",
"383 583 OFFCURVE",
"383 517 CURVE",
"384 184 LINE SMOOTH",
"384 93 OFFCURVE",
"357 23 OFFCURVE",
"284 23 CURVE SMOOTH",
"192 23 OFFCURVE",
"178 118 OFFCURVE",
"178 184 CURVE SMOOTH",
"178 261 OFFCURVE",
"185 313 OFFCURVE",
"233 346 CURVE"
);
}
);
width = 562;
},
{
associatedMasterId = "FF6A36D6-AC67-41FE-A58D-2D1E84E0ACD0";
layerId = "87161DD3-ACA9-4DA9-B9D7-CB4F636F91B1";
width = 600;
},
{
layerId = "878EBA0B-B3D3-4EA2-BB74-EB37BB03E3E9";
paths = (
{
closed = 1;
nodes = (
"183 379 LINE",
"95 355 OFFCURVE",
"30 269 OFFCURVE",
"30 193 CURVE SMOOTH",
"30 84 OFFCURVE",
"114 -10 OFFCURVE",
"243 -10 CURVE SMOOTH",
"382 -10 OFFCURVE",
"485 128 OFFCURVE",
"477 346 CURVE SMOOTH",
"476 374 LINE SMOOTH",
"470 556 OFFCURVE",
"412 701 OFFCURVE",
"252 701 CURVE SMOOTH",
"177 701 OFFCURVE",
"87 643 OFFCURVE",
"87 580 CURVE SMOOTH",
"87 554 OFFCURVE",
"108 534 OFFCURVE",
"133 534 CURVE SMOOTH",
"158 534 OFFCURVE",
"179 554 OFFCURVE",
"179 580 CURVE SMOOTH",
"179 600 OFFCURVE",
"166 616 OFFCURVE",
"148 623 CURVE",
"171 655 OFFCURVE",
"199 678 OFFCURVE",
"252 678 CURVE SMOOTH",
"323 678 OFFCURVE",
"372 631 OFFCURVE",
"394 566 CURVE SMOOTH",
"402 540 OFFCURVE",
"406 510 OFFCURVE",
"406 475 CURVE SMOOTH",
"406 204 LINE SMOOTH",
"406 113 OFFCURVE",
"353 13 OFFCURVE",
"243 13 CURVE SMOOTH",
"153 13 OFFCURVE",
"100 86 OFFCURVE",
"100 170 CURVE SMOOTH",
"100 216 LINE SMOOTH",
"100 280 OFFCURVE",
"144 334 OFFCURVE",
"196 354 CURVE"
);
}
);
width = 507;
}
);
unicode = 10D4;
},
{
color = 3;
glyphname = "vin-georgian";
lastChange = "2017-03-22 23:55:36 +0000";
layers = (
{
backgroundImage = {
crop = "{{0, 0}, {45.36, 58.8}}";
imagePath = ../mtavruli/vin.jpg;
locked = "1";
transform = "{18.634, 0, 0, 18.634, -106, -219}";
};
layerId = "FF6A36D6-AC67-41FE-A58D-2D1E84E0ACD0";
paths = (
{
closed = 1;
nodes = (
"20 91 OFFCURVE",
"129 -12 OFFCURVE",
"300 -12 CURVE SMOOTH",
"462 -12 OFFCURVE",
"604 57 OFFCURVE",
"604 197 CURVE SMOOTH",
"604 299 OFFCURVE",
"534 365 OFFCURVE",
"431 395 CURVE",
"431 399 LINE",
"511 412 OFFCURVE",
"569 471 OFFCURVE",
"566 546 CURVE SMOOTH",
"562 641 OFFCURVE",
"481 702 OFFCURVE",
"307 702 CURVE SMOOTH",
"136 702 OFFCURVE",
"84 626 OFFCURVE",
"84 565 CURVE SMOOTH",
"84 515 OFFCURVE",
"127 472 OFFCURVE",
"177 472 CURVE SMOOTH",
"228 472 OFFCURVE",
"269 515 OFFCURVE",
"269 565 CURVE SMOOTH",
"269 612 OFFCURVE",
"235 639 OFFCURVE",
"212 650 CURVE",
"227 660 OFFCURVE",
"258 677 OFFCURVE",
"307 677 CURVE SMOOTH",
"382 677 OFFCURVE",
"399 608 OFFCURVE",
"399 546 CURVE SMOOTH",
"399 462 OFFCURVE",
"386 412 OFFCURVE",
"335 412 CURVE SMOOTH",
"330 412 LINE SMOOTH",
"311 412 OFFCURVE",
"301 422 OFFCURVE",
"301 440 CURVE",
"273 440 LINE",
"273 352 LINE",
"301 352 LINE",
"301 372 OFFCURVE",
"311 380 OFFCURVE",
"330 380 CURVE SMOOTH",
"335 380 LINE SMOOTH",
"385 380 OFFCURVE",
"434 331 OFFCURVE",
"434 261 CURVE SMOOTH",
"434 165 LINE SMOOTH",
"434 98 OFFCURVE",
"390 24 OFFCURVE",
"309 23 CURVE SMOOTH",
"226 24 OFFCURVE",
"189 88 OFFCURVE",
"189 137 CURVE SMOOTH",
"189 201 LINE SMOOTH",
"189 237 OFFCURVE",
"194 277 OFFCURVE",
"229 299 CURVE",
"207 332 LINE",
"98 322 OFFCURVE",
"20 257 OFFCURVE",
"20 179 CURVE SMOOTH"
);
}
);
width = 624;
},
{
associatedMasterId = "FF6A36D6-AC67-41FE-A58D-2D1E84E0ACD0";
backgroundImage = {
crop = "{{0, 0}, {45.36, 58.8}}";
imagePath = ../mtavruli/vin.jpg;
locked = "1";
transform = "{18.634, 0, 0, 18.634, -106, -219}";
};
layerId = "A7936A5C-D985-43F0-B549-6805CB94AC1F";
name = "Dec 12 16, 17:27";
paths = (
{
closed = 1;
nodes = (
"20 91 OFFCURVE",
"129 -12 OFFCURVE",
"300 -12 CURVE SMOOTH",
"462 -12 OFFCURVE",
"604 57 OFFCURVE",
"604 197 CURVE SMOOTH",
"604 289 OFFCURVE",
"534 365 OFFCURVE",
"431 395 CURVE",
"431 399 LINE",
"515 419 OFFCURVE",
"555 471 OFFCURVE",
"552 546 CURVE SMOOTH",
"548 641 OFFCURVE",
"461 702 OFFCURVE",
"307 702 CURVE SMOOTH",
"136 702 OFFCURVE",
"76 633 OFFCURVE",
"76 572 CURVE SMOOTH",
"76 522 OFFCURVE",
"115 482 OFFCURVE",
"173 482 CURVE SMOOTH",
"224 482 OFFCURVE",
"270 522 OFFCURVE",
"270 572 CURVE SMOOTH",
"270 619 OFFCURVE",
"243 645 OFFCURVE",
"220 657 CURVE",
"235 667 OFFCURVE",
"258 677 OFFCURVE",
"307 677 CURVE SMOOTH",
"382 677 OFFCURVE",
"399 608 OFFCURVE",
"399 562 CURVE SMOOTH",
"399 510 LINE SMOOTH",
"399 466 OFFCURVE",
"379 412 OFFCURVE",
"335 412 CURVE SMOOTH",
"330 412 LINE SMOOTH",
"311 412 OFFCURVE",
"301 422 OFFCURVE",
"301 440 CURVE",
"273 440 LINE",
"273 352 LINE",
"301 352 LINE",
"301 372 OFFCURVE",
"311 380 OFFCURVE",
"330 380 CURVE SMOOTH",
"335 380 LINE SMOOTH",
"385 380 OFFCURVE",
"434 331 OFFCURVE",
"434 261 CURVE SMOOTH",
"434 165 LINE SMOOTH",
"434 98 OFFCURVE",
"390 24 OFFCURVE",
"309 23 CURVE SMOOTH",
"226 24 OFFCURVE",
"189 88 OFFCURVE",
"189 137 CURVE SMOOTH",
"189 201 LINE SMOOTH",
"189 237 OFFCURVE",
"194 277 OFFCURVE",
"229 299 CURVE",
"207 332 LINE",
"98 322 OFFCURVE",
"20 257 OFFCURVE",
"20 179 CURVE SMOOTH"
);
}
);
width = 624;
},
{
associatedMasterId = "FF6A36D6-AC67-41FE-A58D-2D1E84E0ACD0";
layerId = "87161DD3-ACA9-4DA9-B9D7-CB4F636F91B1";
width = 600;
},
{
layerId = "878EBA0B-B3D3-4EA2-BB74-EB37BB03E3E9";
paths = (
{
closed = 1;
nodes = (
"30 74 OFFCURVE",
"133 -10 OFFCURVE",
"263 -10 CURVE SMOOTH",
"390 -10 OFFCURVE",
"494 80 OFFCURVE",
"494 196 CURVE SMOOTH",
"494 309 OFFCURVE",
"436 371 OFFCURVE",
"357 395 CURVE",
"357 399 LINE",
"405 416 OFFCURVE",
"452 463 OFFCURVE",
"452 536 CURVE SMOOTH",
"452 642 OFFCURVE",
"369 701 OFFCURVE",
"274 701 CURVE SMOOTH",
"179 701 OFFCURVE",
"99 644 OFFCURVE",
"99 581 CURVE SMOOTH",
"99 555 OFFCURVE",
"120 535 OFFCURVE",
"145 535 CURVE SMOOTH",
"170 535 OFFCURVE",
"191 555 OFFCURVE",
"191 581 CURVE SMOOTH",
"191 601 OFFCURVE",
"178 617 OFFCURVE",
"160 624 CURVE",
"183 656 OFFCURVE",
"221 678 OFFCURVE",
"274 678 CURVE SMOOTH",
"363 673 OFFCURVE",
"399 614 OFFCURVE",
"399 536 CURVE SMOOTH",
"399 450 OFFCURVE",
"344 412 OFFCURVE",
"295 411 CURVE SMOOTH",
"256 410 LINE",
"256 381 LINE",
"294 381 LINE SMOOTH",
"378 381 OFFCURVE",
"424 312 OFFCURVE",
"424 240 CURVE SMOOTH",
"424 165 LINE SMOOTH",
"424 80 OFFCURVE",
"352 15 OFFCURVE",
"263 13 CURVE SMOOTH",
"172 11 OFFCURVE",
"100 79 OFFCURVE",
"100 154 CURVE SMOOTH",
"100 184 LINE SMOOTH",
"100 244 OFFCURVE",
"121 278 OFFCURVE",
"173 305 CURVE",
"162 328 LINE",
"97 303 OFFCURVE",
"30 248 OFFCURVE",
"30 168 CURVE SMOOTH"
);
},
{
closed = 1;
nodes = (
"247 351 LINE",
"266 351 LINE",
"266 373 OFFCURVE",
"284 381 OFFCURVE",
"318 381 CURVE",
"318 411 LINE",
"284 411 OFFCURVE",
"266 418 OFFCURVE",
"266 441 CURVE",
"247 441 LINE"
);
}
);
width = 524;
}
);
unicode = 10D5;
},
{
color = 3;
glyphname = "zen-georgian";
lastChange = "2017-03-23 00:39:29 +0000";
layers = (
{
layerId = "FF6A36D6-AC67-41FE-A58D-2D1E84E0ACD0";
paths = (
{
closed = 1;
nodes = (
"10 396 OFFCURVE",
"138 335 OFFCURVE",
"271 392 CURVE",
"261 284 LINE SMOOTH",
"244 88 OFFCURVE",
"326 -12 OFFCURVE",
"527 -12 CURVE SMOOTH",
"669 -12 OFFCURVE",
"781 81 OFFCURVE",
"781 198 CURVE SMOOTH",
"781 314 OFFCURVE",
"669 407 OFFCURVE",
"548 407 CURVE SMOOTH",
"494 407 OFFCURVE",
"464 391 OFFCURVE",
"438 373 CURVE",
"442 456 LINE SMOOTH",
"452 620 OFFCURVE",
"359 700 OFFCURVE",
"230 700 CURVE SMOOTH",
"176 701 OFFCURVE",
"10 696 OFFCURVE",
"10 520 CURVE SMOOTH"
);
},
{
closed = 1;
nodes = (
"145 614 OFFCURVE",
"175 666 OFFCURVE",
"230 666 CURVE SMOOTH",
"261 666 OFFCURVE",
"298 659 OFFCURVE",
"287 559 CURVE SMOOTH",
"274 427 LINE",
"162 377 OFFCURVE",
"145 481 OFFCURVE",
"145 545 CURVE SMOOTH"
);
},
{
closed = 1;
nodes = (
"434 319 LINE",
"459 346 OFFCURVE",
"490 362 OFFCURVE",
"520 362 CURVE SMOOTH",
"574 362 OFFCURVE",
"611 322 OFFCURVE",
"611 257 CURVE SMOOTH",
"611 142 LINE SMOOTH",
"611 76 OFFCURVE",
"574 27 OFFCURVE",
"520 27 CURVE SMOOTH",
"443 27 OFFCURVE",
"426 87 OFFCURVE",
"426 182 CURVE"
);
}
);
width = 801;
},
{
associatedMasterId = "FF6A36D6-AC67-41FE-A58D-2D1E84E0ACD0";
layerId = "87161DD3-ACA9-4DA9-B9D7-CB4F636F91B1";
width = 600;
},
{
layerId = "878EBA0B-B3D3-4EA2-BB74-EB37BB03E3E9";
paths = (
{
closed = 1;
nodes = (
"292 445 OFFCURVE",
"289 409 OFFCURVE",
"292 434 CURVE",
"175 361 OFFCURVE",
"96 420 OFFCURVE",
"94 533 CURVE SMOOTH",
"92 649 OFFCURVE",
"160 678 OFFCURVE",
"202 678 CURVE SMOOTH",
"265 678 OFFCURVE",
"312 648 OFFCURVE",
"289 477 CURVE SMOOTH",
"264 295 LINE SMOOTH",
"241 124 OFFCURVE",
"311 -10 OFFCURVE",
"489 -10 CURVE SMOOTH",
"607 -10 OFFCURVE",
"709 85 OFFCURVE",
"709 193 CURVE SMOOTH",
"709 327 OFFCURVE",
"619 421 OFFCURVE",
"489 421 CURVE SMOOTH",
"427 421 OFFCURVE",
"362 385 OFFCURVE",
"334 341 CURVE",
"340 382 OFFCURVE",
"342 418 OFFCURVE",
"346 452 CURVE SMOOTH",
"366 621 OFFCURVE",
"311 701 OFFCURVE",
"202 701 CURVE SMOOTH",
"93 701 OFFCURVE",
"30 610 OFFCURVE",
"30 533 CURVE SMOOTH",
"30 355 OFFCURVE",
"217 361 OFFCURVE",
"289 409 CURVE"
);
},
{
closed = 1;
nodes = (
"327 262 LINE SMOOTH",
"334 335 OFFCURVE",
"419 392 OFFCURVE",
"489 392 CURVE SMOOTH",
"595 392 OFFCURVE",
"645 317 OFFCURVE",
"638 209 CURVE SMOOTH",
"635 160 LINE SMOOTH",
"629 55 OFFCURVE",
"548 13 OFFCURVE",
"479 13 CURVE SMOOTH",
"387 13 OFFCURVE",
"312 99 OFFCURVE",
"322 209 CURVE SMOOTH"
);
}
);
width = 739;
}
);
unicode = 10D6;
},
{
color = 3;
glyphname = "tan-georgian";
lastChange = "2017-03-23 00:40:28 +0000";
layers = (
{
backgroundImage = {
crop = "{{0, 0}, {265, 253}}";
imagePath = ../mtavruli/tan.jpg;
locked = "1";
transform = "{4.42, 0, 0, 4.42, -147, -178}";
};
layerId = "FF6A36D6-AC67-41FE-A58D-2D1E84E0ACD0";
paths = (
{
closed = 1;
nodes = (
"586 551 OFFCURVE",
"468 702 OFFCURVE",
"303 702 CURVE SMOOTH",
"139 702 OFFCURVE",
"20 556 OFFCURVE",
"20 355 CURVE SMOOTH",
"20 140 OFFCURVE",
"139 -11 OFFCURVE",
"303 -11 CURVE SMOOTH",
"468 -11 OFFCURVE",
"586 135 OFFCURVE",
"586 347 CURVE"
);
},
{
closed = 1;
nodes = (
"416 102 OFFCURVE",
"373 22 OFFCURVE",
"303 22 CURVE SMOOTH",
"233 22 OFFCURVE",
"190 102 OFFCURVE",
"190 183 CURVE SMOOTH",
"190 498 LINE SMOOTH",
"190 599 OFFCURVE",
"233 669 OFFCURVE",
"303 669 CURVE SMOOTH",
"367 669 OFFCURVE",
"416 599 OFFCURVE",
"416 498 CURVE SMOOTH",
"416 183 LINE"
);
},
{
closed = 1;
nodes = (
"911 595 OFFCURVE",
"800 702 OFFCURVE",
"652 702 CURVE SMOOTH",
"562 702 OFFCURVE",
"498 632 OFFCURVE",
"462 594 CURVE",
"494 530 LINE",
"513 595 OFFCURVE",
"590 669 OFFCURVE",
"645 669 CURVE SMOOTH",
"735 669 OFFCURVE",
"742 558 OFFCURVE",
"742 481 CURVE SMOOTH",
"742 307 LINE SMOOTH",
"742 93 OFFCURVE",
"694 41 OFFCURVE",
"654 15 CURVE",
"664 -11 LINE",
"735 15 OFFCURVE",
"911 106 OFFCURVE",
"911 345 CURVE SMOOTH"
);
}
);
width = 941;
},
{
associatedMasterId = "FF6A36D6-AC67-41FE-A58D-2D1E84E0ACD0";
backgroundImage = {
crop = "{{0, 0}, {265, 253}}";
imagePath = ../mtavruli/tan.jpg;
locked = "1";
transform = "{4.42, 0, 0, 4.42, -147, -178}";
};
layerId = "83D8076E-5961-4A13-ABE3-081E65BF4547";
name = "Dec 12 16, 17:29";
paths = (
{
closed = 1;
nodes = (
"586 551 OFFCURVE",
"468 702 OFFCURVE",
"303 702 CURVE SMOOTH",
"139 702 OFFCURVE",
"20 556 OFFCURVE",
"20 355 CURVE SMOOTH",
"20 140 OFFCURVE",
"139 -11 OFFCURVE",
"303 -11 CURVE SMOOTH",
"468 -11 OFFCURVE",
"586 135 OFFCURVE",
"586 347 CURVE"
);
},
{
closed = 1;
nodes = (
"416 102 OFFCURVE",
"373 22 OFFCURVE",
"303 22 CURVE SMOOTH",
"233 22 OFFCURVE",
"190 102 OFFCURVE",
"190 193 CURVE SMOOTH",
"190 498 LINE SMOOTH",
"190 589 OFFCURVE",
"233 669 OFFCURVE",
"303 669 CURVE SMOOTH",
"367 669 OFFCURVE",
"416 589 OFFCURVE",
"416 498 CURVE SMOOTH",
"416 193 LINE"
);
},
{
closed = 1;
nodes = (
"911 542 OFFCURVE",
"825 702 OFFCURVE",
"690 702 CURVE SMOOTH",
"580 702 OFFCURVE",
"527 574 OFFCURVE",
"495 563 CURVE",
"546 448 LINE",
"558 490 OFFCURVE",
"590 667 OFFCURVE",
"662 667 CURVE SMOOTH",
"735 667 OFFCURVE",
"742 558 OFFCURVE",
"742 481 CURVE SMOOTH",
"742 307 LINE SMOOTH",
"742 93 OFFCURVE",
"694 41 OFFCURVE",
"654 15 CURVE",
"664 -11 LINE",
"755 22 OFFCURVE",
"911 101 OFFCURVE",
"911 354 CURVE SMOOTH"
);
}
);
visible = 1;
width = 941;
},
{
associatedMasterId = "FF6A36D6-AC67-41FE-A58D-2D1E84E0ACD0";
backgroundImage = {
crop = "{{0, 0}, {265, 253}}";
imagePath = ../mtavruli/tan.jpg;
locked = "1";
transform = "{4.42, 0, 0, 4.42, -147, -178}";
};
layerId = "4C0C455F-76EB-4644-B96E-B2B3225ABAE7";
name = "Jan 6 17, 00:39";
paths = (
{
closed = 1;
nodes = (
"586 551 OFFCURVE",
"468 702 OFFCURVE",
"303 702 CURVE SMOOTH",
"139 702 OFFCURVE",
"20 556 OFFCURVE",
"20 355 CURVE SMOOTH",
"20 140 OFFCURVE",
"139 -11 OFFCURVE",
"303 -11 CURVE SMOOTH",
"468 -11 OFFCURVE",
"586 135 OFFCURVE",
"586 347 CURVE"
);
},
{
closed = 1;
nodes = (
"416 102 OFFCURVE",
"373 22 OFFCURVE",
"303 22 CURVE SMOOTH",
"233 22 OFFCURVE",
"190 102 OFFCURVE",
"190 183 CURVE SMOOTH",
"190 498 LINE SMOOTH",
"190 599 OFFCURVE",
"233 669 OFFCURVE",
"303 669 CURVE SMOOTH",
"367 669 OFFCURVE",
"416 599 OFFCURVE",
"416 498 CURVE SMOOTH",
"416 183 LINE"
);
},
{
closed = 1;
nodes = (
"911 604 OFFCURVE",
"820 702 OFFCURVE",
"672 702 CURVE SMOOTH",
"562 702 OFFCURVE",
"504 593 OFFCURVE",
"495 563 CURVE",
"514 520 LINE",
"526 562 OFFCURVE",
"590 657 OFFCURVE",
"662 657 CURVE SMOOTH",
"735 657 OFFCURVE",
"742 558 OFFCURVE",
"742 481 CURVE SMOOTH",
"742 307 LINE SMOOTH",
"742 93 OFFCURVE",
"694 41 OFFCURVE",
"654 15 CURVE",
"664 -11 LINE",
"755 22 OFFCURVE",
"911 101 OFFCURVE",
"911 354 CURVE SMOOTH"
);
},
{
closed = 0;
nodes = (
"1137 589 LINE",
"1138 588 OFFCURVE",
"1138 588 OFFCURVE",
"1138 588 CURVE"
);
},
{
closed = 1;
nodes = (
"1160 155 OFFCURVE",
"1224 10 OFFCURVE",
"1387 -12 CURVE",
"1397 14 LINE",
"1360 40 OFFCURVE",
"1330 69 OFFCURVE",
"1330 135 CURVE SMOOTH",
"1330 556 LINE SMOOTH",
"1330 618 OFFCURVE",
"1358 667 OFFCURVE",
"1407 667 CURVE SMOOTH",
"1454 667 OFFCURVE",
"1484 618 OFFCURVE",
"1484 556 CURVE",
"1599 427 LINE",
"1601 553 LINE SMOOTH",
"1602 616 OFFCURVE",
"1683 667 OFFCURVE",
"1730 667 CURVE SMOOTH",
"1807 667 OFFCURVE",
"1807 560 OFFCURVE",
"1807 498 CURVE SMOOTH",
"1807 175 LINE SMOOTH",
"1807 98 OFFCURVE",
"1780 40 OFFCURVE",
"1740 14 CURVE",
"1750 -12 LINE",
"1913 10 OFFCURVE",
"1977 155 OFFCURVE",
"1977 344 CURVE SMOOTH",
"1977 533 OFFCURVE",
"1893 702 OFFCURVE",
"1730 702 CURVE SMOOTH",
"1665 702 OFFCURVE",
"1609 669 OFFCURVE",
"1572 616 CURVE",
"1568 616 LINE",
"1530 670 OFFCURVE",
"1473 702 OFFCURVE",
"1407 702 CURVE SMOOTH",
"1244 702 OFFCURVE",
"1160 533 OFFCURVE",
"1160 344 CURVE SMOOTH"
);
},
{
closed = 0;
nodes = (
"1881 -102 LINE",
"1881 -103 OFFCURVE",
"1881 -103 OFFCURVE",
"1881 -104 CURVE"
);
},
{
closed = 1;
nodes = (
"1318 7 LINE",
"1345 -7 OFFCURVE",
"1375 -15 OFFCURVE",
"1408 -15 CURVE SMOOTH",
"1571 -15 OFFCURVE",
"1655 154 OFFCURVE",
"1655 343 CURVE SMOOTH",
"1655 532 OFFCURVE",
"1591 677 OFFCURVE",
"1428 699 CURVE",
"1418 673 LINE",
"1455 647 OFFCURVE",
"1485 657 OFFCURVE",
"1485 512 CURVE SMOOTH",
"1485 131 LINE SMOOTH",
"1485 69 OFFCURVE",
"1457 20 OFFCURVE",
"1408 20 CURVE SMOOTH",
"1380 20 OFFCURVE",
"1358 37 OFFCURVE",
"1345 64 CURVE"
);
}
);
width = 941;
},
{
associatedMasterId = "FF6A36D6-AC67-41FE-A58D-2D1E84E0ACD0";
layerId = "87161DD3-ACA9-4DA9-B9D7-CB4F636F91B1";
width = 600;
},
{
layerId = "878EBA0B-B3D3-4EA2-BB74-EB37BB03E3E9";
paths = (
{
closed = 1;
nodes = (
"497 701 OFFCURVE",
"444 647 OFFCURVE",
"417 570 CURVE",
"436 541 LINE",
"447 607 OFFCURVE",
"504 678 OFFCURVE",
"582 678 CURVE SMOOTH",
"682 678 OFFCURVE",
"735 570 OFFCURVE",
"735 421 CURVE SMOOTH",
"735 225 LINE SMOOTH",
"735 128 OFFCURVE",
"705 42 OFFCURVE",
"638 16 CURVE",
"648 -10 LINE",
"751 37 OFFCURVE",
"806 165 OFFCURVE",
"806 354 CURVE SMOOTH",
"806 552 OFFCURVE",
"711 701 OFFCURVE",
"582 701 CURVE SMOOTH"
);
},
{
closed = 1;
nodes = (
"39 165 OFFCURVE",
"103 -10 OFFCURVE",
"262 -10 CURVE SMOOTH",
"421 -10 OFFCURVE",
"485 158 OFFCURVE",
"485 356 CURVE SMOOTH",
"485 553 OFFCURVE",
"391 701 OFFCURVE",
"262 701 CURVE SMOOTH",
"133 701 OFFCURVE",
"39 553 OFFCURVE",
"39 356 CURVE SMOOTH"
);
},
{
closed = 1;
nodes = (
"109 474 LINE SMOOTH",
"109 567 OFFCURVE",
"162 678 OFFCURVE",
"262 678 CURVE SMOOTH",
"362 678 OFFCURVE",
"415 567 OFFCURVE",
"415 476 CURVE SMOOTH",
"415 225 LINE SMOOTH",
"415 126 OFFCURVE",
"362 13 OFFCURVE",
"262 13 CURVE SMOOTH",
"162 13 OFFCURVE",
"109 128 OFFCURVE",
"109 225 CURVE SMOOTH"
);
}
);
width = 840;
}
);
unicode = 10D7;
},
{
color = 3;
glyphname = "in-georgian";
lastChange = "2017-03-23 00:01:29 +0000";
layers = (
{
backgroundImage = {
crop = "{{0, 0}, {205, 261}}";
imagePath = "../mtavruli/in resized.jpg";
locked = "1";
transform = "{4.5, 0, 0, 4.5, -167, -218}";
};
layerId = "FF6A36D6-AC67-41FE-A58D-2D1E84E0ACD0";
paths = (
{
closed = 1;
nodes = (
"134 710 OFFCURVE",
"30 542 OFFCURVE",
"30 354 CURVE SMOOTH",
"30 165 OFFCURVE",
"94 20 OFFCURVE",
"257 -2 CURVE",
"267 24 LINE",
"230 50 OFFCURVE",
"200 108 OFFCURVE",
"200 185 CURVE SMOOTH",
"200 536 LINE SMOOTH",
"200 607 OFFCURVE",
"243 677 OFFCURVE",
"323 677 CURVE SMOOTH",
"403 677 OFFCURVE",
"446 607 OFFCURVE",
"446 536 CURVE SMOOTH",
"446 185 LINE SMOOTH",
"446 108 OFFCURVE",
"416 50 OFFCURVE",
"379 24 CURVE",
"389 -2 LINE",
"552 20 OFFCURVE",
"616 165 OFFCURVE",
"616 354 CURVE SMOOTH",
"616 542 OFFCURVE",
"512 710 OFFCURVE",
"323 710 CURVE SMOOTH"
);
}
);
width = 636;
},
{
associatedMasterId = "FF6A36D6-AC67-41FE-A58D-2D1E84E0ACD0";
layerId = "87161DD3-ACA9-4DA9-B9D7-CB4F636F91B1";
width = 600;
},
{
layerId = "878EBA0B-B3D3-4EA2-BB74-EB37BB03E3E9";
paths = (
{
closed = 1;
nodes = (
"124 702 OFFCURVE",
"30 552 OFFCURVE",
"30 354 CURVE SMOOTH",
"30 165 OFFCURVE",
"84 20 OFFCURVE",
"187 -12 CURVE",
"197 14 LINE",
"130 30 OFFCURVE",
"100 128 OFFCURVE",
"100 225 CURVE SMOOTH",
"100 496 LINE SMOOTH",
"100 587 OFFCURVE",
"153 678 OFFCURVE",
"253 678 CURVE SMOOTH",
"353 678 OFFCURVE",
"406 587 OFFCURVE",
"406 496 CURVE SMOOTH",
"406 225 LINE SMOOTH",
"406 128 OFFCURVE",
"376 30 OFFCURVE",
"309 14 CURVE",
"319 -12 LINE",
"422 20 OFFCURVE",
"476 165 OFFCURVE",
"476 354 CURVE SMOOTH",
"476 552 OFFCURVE",
"382 702 OFFCURVE",
"253 702 CURVE SMOOTH"
);
}
);
width = 506;
}
);
unicode = 10D8;
},
{
color = 3;
glyphname = "kan-georgian";
lastChange = "2017-03-23 00:37:28 +0000";
layers = (
{
backgroundImage = {
crop = "{{0, 0}, {184, 261}}";
imagePath = ../mtavruli/kan_.jpg;
locked = "1";
transform = "{4.106, 0, 0, 4.106, -65, -184}";
};
guideLines = (
{
position = "{645, 146}";
}
);
layerId = "FF6A36D6-AC67-41FE-A58D-2D1E84E0ACD0";
paths = (
{
closed = 1;
nodes = (
"17 34 OFFCURVE",
"142 -12 OFFCURVE",
"275 -12 CURVE SMOOTH",
"417 -12 OFFCURVE",
"543 51 OFFCURVE",
"543 184 CURVE SMOOTH",
"543 296 OFFCURVE",
"463 346 OFFCURVE",
"349 382 CURVE",
"349 385 LINE",
"427 392 OFFCURVE",
"475 460 OFFCURVE",
"475 517 CURVE SMOOTH",
"475 545 OFFCURVE",
"465 602 OFFCURVE",
"403 655 CURVE SMOOTH",
"333 714 LINE",
"301 677 OFFCURVE",
"293 643 OFFCURVE",
"293 617 CURVE SMOOTH",
"293 542 OFFCURVE",
"409 520 OFFCURVE",
"409 461 CURVE SMOOTH",
"409 419 OFFCURVE",
"332 405 OFFCURVE",
"272 405 CURVE SMOOTH",
"223 405 LINE",
"223 356 LINE",
"272 356 LINE SMOOTH",
"358 356 OFFCURVE",
"372 294 OFFCURVE",
"372 225 CURVE SMOOTH",
"372 134 LINE SMOOTH",
"372 65 OFFCURVE",
"339 23 OFFCURVE",
"280 23 CURVE SMOOTH",
"232 23 OFFCURVE",
"190 65 OFFCURVE",
"190 134 CURVE SMOOTH",
"190 161 LINE SMOOTH",
"190 197 OFFCURVE",
"193 235 OFFCURVE",
"216 259 CURVE",
"197 292 LINE",
"133 291 OFFCURVE",
"17 226 OFFCURVE",
"17 148 CURVE SMOOTH"
);
},
{
closed = 1;
nodes = (
"296 397 LINE",
"284 397 LINE SMOOTH",
"261 397 OFFCURVE",
"251 407 OFFCURVE",
"251 425 CURVE",
"223 425 LINE",
"223 337 LINE",
"251 337 LINE",
"251 357 OFFCURVE",
"263 365 OFFCURVE",
"284 365 CURVE SMOOTH",
"296 365 LINE"
);
}
);
width = 600;
},
{
associatedMasterId = "FF6A36D6-AC67-41FE-A58D-2D1E84E0ACD0";
layerId = "87161DD3-ACA9-4DA9-B9D7-CB4F636F91B1";
width = 600;
},
{
guideLines = (
{
position = "{205, 288}";
}
);
layerId = "878EBA0B-B3D3-4EA2-BB74-EB37BB03E3E9";
paths = (
{
closed = 1;
nodes = (
"315 696 LINE",
"298 631 OFFCURVE",
"306 605 OFFCURVE",
"340 567 CURVE SMOOTH",
"359 546 OFFCURVE",
"394 525 OFFCURVE",
"394 475 CURVE SMOOTH",
"394 429 OFFCURVE",
"339 397 OFFCURVE",
"290 396 CURVE SMOOTH",
"255 395 OFFCURVE",
"242 398 OFFCURVE",
"231 397 CURVE",
"231 370 LINE",
"242 371 OFFCURVE",
"267 363 OFFCURVE",
"297 370 CURVE SMOOTH",
"354 383 OFFCURVE",
"429 420 OFFCURVE",
"429 497 CURVE SMOOTH",
"429 533 OFFCURVE",
"422 566 OFFCURVE",
"381 622 CURVE SMOOTH",
"358 654 OFFCURVE",
"329 696 OFFCURVE",
"323 706 CURVE"
);
},
{
closed = 1;
nodes = (
"10 61 OFFCURVE",
"109 -11 OFFCURVE",
"243 -10 CURVE SMOOTH",
"375 -9 OFFCURVE",
"479 70 OFFCURVE",
"479 191 CURVE SMOOTH",
"479 282 OFFCURVE",
"408 356 OFFCURVE",
"308 385 CURVE SMOOTH",
"292 390 OFFCURVE",
"247 395 OFFCURVE",
"231 395 CURVE",
"231 366 LINE",
"239 366 OFFCURVE",
"254 366 OFFCURVE",
"273 366 CURVE SMOOTH",
"292 366 OFFCURVE",
"311 363 OFFCURVE",
"330 351 CURVE SMOOTH",
"376 322 OFFCURVE",
"409 298 OFFCURVE",
"409 182 CURVE SMOOTH",
"409 83 OFFCURVE",
"346 14 OFFCURVE",
"243 13 CURVE SMOOTH",
"148 12 OFFCURVE",
"80 77 OFFCURVE",
"80 140 CURVE SMOOTH",
"80 164 LINE SMOOTH",
"80 214 OFFCURVE",
"113 247 OFFCURVE",
"165 269 CURVE",
"154 288 LINE",
"103 274 OFFCURVE",
"10 232 OFFCURVE",
"10 148 CURVE SMOOTH"
);
},
{
closed = 1;
nodes = (
"202 336 LINE",
"221 336 LINE",
"221 358 OFFCURVE",
"239 366 OFFCURVE",
"273 366 CURVE",
"273 396 LINE",
"239 396 OFFCURVE",
"221 403 OFFCURVE",
"221 426 CURVE",
"202 426 LINE"
);
}
);
width = 509;
}
);
unicode = 10D9;
},
{
color = 3;
glyphname = "las-georgian";
lastChange = "2017-03-23 19:21:02 +0000";
layers = (
{
backgroundImage = {
crop = "{{0, 0}, {281, 237}}";
imagePath = ../mtavruli/las.psd;
transform = "{4.5, 0, 0, 4.5, -63, -168}";
};
layerId = "FF6A36D6-AC67-41FE-A58D-2D1E84E0ACD0";
paths = (
{
closed = 1;
nodes = (
"11 365 OFFCURVE",
"104 265 OFFCURVE",
"296 238 CURVE SMOOTH",
"303 237 LINE",
"270 225 OFFCURVE",
"238 202 OFFCURVE",
"220 167 CURVE SMOOTH",
"195 118 OFFCURVE",
"219 57 OFFCURVE",
"273 57 CURVE SMOOTH",
"301 57 OFFCURVE",
"324 79 OFFCURVE",
"324 105 CURVE SMOOTH",
"324 131 OFFCURVE",
"303 152 OFFCURVE",
"277 152 CURVE SMOOTH",
"268 152 OFFCURVE",
"259 149 OFFCURVE",
"252 145 CURVE",
"252 221 OFFCURVE",
"402 235 OFFCURVE",
"487 200 CURVE SMOOTH",
"568 162 OFFCURVE",
"596 64 OFFCURVE",
"512 24 CURVE",
"530 0 LINE",
"748 0 LINE",
"737 51 OFFCURVE",
"717 98 OFFCURVE",
"663 153 CURVE SMOOTH",
"561 256 OFFCURVE",
"438 259 OFFCURVE",
"286 296 CURVE SMOOTH",
"245 306 OFFCURVE",
"170 357 OFFCURVE",
"170 499 CURVE SMOOTH",
"170 616 OFFCURVE",
"201 674 OFFCURVE",
"252 674 CURVE SMOOTH",
"312 674 OFFCURVE",
"333 616 OFFCURVE",
"333 499 CURVE SMOOTH",
"333 456 LINE SMOOTH",
"333 433 OFFCURVE",
"324 423 OFFCURVE",
"304 420 CURVE",
"304 395 LINE",
"498 395 LINE",
"498 420 LINE",
"478 423 OFFCURVE",
"469 436 OFFCURVE",
"469 456 CURVE SMOOTH",
"469 504 LINE SMOOTH",
"469 623 OFFCURVE",
"493 689 OFFCURVE",
"555 689 CURVE SMOOTH",
"615 689 OFFCURVE",
"639 621 OFFCURVE",
"639 504 CURVE SMOOTH",
"639 456 LINE SMOOTH",
"639 433 OFFCURVE",
"630 423 OFFCURVE",
"610 420 CURVE",
"610 395 LINE",
"804 395 LINE",
"804 420 LINE",
"784 423 OFFCURVE",
"775 436 OFFCURVE",
"775 456 CURVE SMOOTH",
"775 499 LINE SMOOTH",
"775 616 OFFCURVE",
"796 674 OFFCURVE",
"856 674 CURVE SMOOTH",
"907 674 OFFCURVE",
"938 616 OFFCURVE",
"938 499 CURVE SMOOTH",
"938 439 LINE",
"932 367 OFFCURVE",
"888 272 OFFCURVE",
"814 333 CURVE",
"790 300 LINE",
"826 270 OFFCURVE",
"907 238 OFFCURVE",
"1004 295 CURVE",
"1062 332 OFFCURVE",
"1097 403 OFFCURVE",
"1098 494 CURVE SMOOTH",
"1098 496 LINE",
"1097 608 OFFCURVE",
"1009 710 OFFCURVE",
"874 710 CURVE SMOOTH",
"802 710 OFFCURVE",
"742 683 OFFCURVE",
"701 641 CURVE",
"672 690 OFFCURVE",
"624 724 OFFCURVE",
"554 724 CURVE SMOOTH",
"484 724 OFFCURVE",
"436 690 OFFCURVE",
"407 641 CURVE",
"366 683 OFFCURVE",
"306 710 OFFCURVE",
"234 710 CURVE SMOOTH",
"99 710 OFFCURVE",
"11 608 OFFCURVE",
"10 496 CURVE SMOOTH",
"10 494 LINE SMOOTH"
);
}
);
width = 1118;
},
{
associatedMasterId = "FF6A36D6-AC67-41FE-A58D-2D1E84E0ACD0";
layerId = "87161DD3-ACA9-4DA9-B9D7-CB4F636F91B1";
width = 600;
},
{
layerId = "878EBA0B-B3D3-4EA2-BB74-EB37BB03E3E9";
paths = (
{
closed = 1;
nodes = (
"30 358 OFFCURVE",
"159 258 OFFCURVE",
"291 232 CURVE",
"292 226 LINE",
"214 216 OFFCURVE",
"175 169 OFFCURVE",
"175 133 CURVE SMOOTH",
"175 109 OFFCURVE",
"190 94 OFFCURVE",
"207 94 CURVE SMOOTH",
"225 94 OFFCURVE",
"238 104 OFFCURVE",
"238 120 CURVE SMOOTH",
"238 138 OFFCURVE",
"229 147 OFFCURVE",
"215 147 CURVE SMOOTH",
"207 147 OFFCURVE",
"206 141 OFFCURVE",
"202 141 CURVE",
"202 166 OFFCURVE",
"243 210 OFFCURVE",
"338 210 CURVE SMOOTH",
"392 210 OFFCURVE",
"507 178 OFFCURVE",
"548 101 CURVE SMOOTH",
"585 32 OFFCURVE",
"547 30 OFFCURVE",
"533 25 CURVE",
"547 1 LINE",
"641 1 LINE",
"615 133 OFFCURVE",
"511 199 OFFCURVE",
"385 231 CURVE",
"266 266 OFFCURVE",
"100 300 OFFCURVE",
"100 500 CURVE SMOOTH",
"100 609 OFFCURVE",
"147 678 OFFCURVE",
"222 678 CURVE SMOOTH",
"294 678 OFFCURVE",
"338 602 OFFCURVE",
"338 544 CURVE SMOOTH",
"338 455 LINE",
"326 445 LINE",
"326 430 LINE",
"383 430 LINE",
"383 445 LINE",
"370 455 LINE",
"370 544 LINE SMOOTH",
"370 613 OFFCURVE",
"428 678 OFFCURVE",
"487 678 CURVE SMOOTH",
"550 678 OFFCURVE",
"611 614 OFFCURVE",
"611 544 CURVE SMOOTH",
"611 455 LINE",
"598 445 LINE",
"598 430 LINE",
"656 430 LINE",
"656 445 LINE",
"643 455 LINE",
"643 544 LINE SMOOTH",
"643 605 OFFCURVE",
"690 678 OFFCURVE",
"762 678 CURVE SMOOTH",
"845 678 OFFCURVE",
"879 609 OFFCURVE",
"879 505 CURVE SMOOTH",
"879 459 LINE SMOOTH",
"879 360 OFFCURVE",
"837 304 OFFCURVE",
"762 304 CURVE SMOOTH",
"736 304 OFFCURVE",
"716 314 OFFCURVE",
"700 325 CURVE",
"685 302 LINE",
"704 289 OFFCURVE",
"730 277 OFFCURVE",
"786 277 CURVE SMOOTH",
"884 277 OFFCURVE",
"950 384 OFFCURVE",
"950 493 CURVE SMOOTH",
"950 579 OFFCURVE",
"889 701 OFFCURVE",
"768 701 CURVE SMOOTH",
"689 701 OFFCURVE",
"642 657 OFFCURVE",
"627 609 CURVE",
"609 657 OFFCURVE",
"567 701 OFFCURVE",
"487 701 CURVE SMOOTH",
"414 701 OFFCURVE",
"373 657 OFFCURVE",
"354 609 CURVE",
"334 657 OFFCURVE",
"289 701 OFFCURVE",
"222 701 CURVE SMOOTH",
"82 701 OFFCURVE",
"30 579 OFFCURVE",
"30 487 CURVE SMOOTH"
);
},
{
closed = 1;
nodes = (
"400 421 LINE",
"400 440 LINE",
"377 440 OFFCURVE",
"370 455 OFFCURVE",
"370 488 CURVE",
"338 488 LINE",
"338 455 OFFCURVE",
"331 440 OFFCURVE",
"308 440 CURVE",
"308 421 LINE"
);
},
{
closed = 1;
nodes = (
"673 421 LINE",
"673 440 LINE",
"650 440 OFFCURVE",
"643 455 OFFCURVE",
"643 488 CURVE",
"611 488 LINE",
"611 455 OFFCURVE",
"604 440 OFFCURVE",
"581 440 CURVE",
"581 421 LINE"
);
}
);
width = 980;
},
{
associatedMasterId = "FF6A36D6-AC67-41FE-A58D-2D1E84E0ACD0";
backgroundImage = {
crop = "{{0, 0}, {281, 237}}";
imagePath = ../mtavruli/las.psd;
transform = "{4.5, 0, 0, 4.5, -53, -168}";
};
layerId = "25876F98-34BC-43D1-B120-F17EEE4C9695";
name = "Mar 6 17, 14:54";
paths = (
{
closed = 1;
nodes = (
"21 365 OFFCURVE",
"114 265 OFFCURVE",
"306 238 CURVE SMOOTH",
"313 237 LINE",
"280 225 OFFCURVE",
"248 202 OFFCURVE",
"230 167 CURVE SMOOTH",
"205 118 OFFCURVE",
"229 57 OFFCURVE",
"283 57 CURVE SMOOTH",
"311 57 OFFCURVE",
"334 79 OFFCURVE",
"334 105 CURVE SMOOTH",
"334 131 OFFCURVE",
"313 152 OFFCURVE",
"287 152 CURVE SMOOTH",
"278 152 OFFCURVE",
"269 149 OFFCURVE",
"262 145 CURVE",
"262 234 OFFCURVE",
"470 238 OFFCURVE",
"535 176 CURVE SMOOTH",
"621 95 OFFCURVE",
"539 32 OFFCURVE",
"522 24 CURVE",
"540 0 LINE",
"758 0 LINE",
"747 51 OFFCURVE",
"727 98 OFFCURVE",
"673 153 CURVE SMOOTH",
"571 256 OFFCURVE",
"448 259 OFFCURVE",
"296 296 CURVE SMOOTH",
"255 306 OFFCURVE",
"180 357 OFFCURVE",
"180 499 CURVE SMOOTH",
"180 616 OFFCURVE",
"211 674 OFFCURVE",
"262 674 CURVE SMOOTH",
"322 674 OFFCURVE",
"343 616 OFFCURVE",
"343 499 CURVE SMOOTH",
"343 456 LINE SMOOTH",
"343 433 OFFCURVE",
"334 423 OFFCURVE",
"314 420 CURVE",
"314 395 LINE",
"508 395 LINE",
"508 420 LINE",
"488 423 OFFCURVE",
"479 436 OFFCURVE",
"479 456 CURVE SMOOTH",
"479 504 LINE SMOOTH",
"479 623 OFFCURVE",
"503 689 OFFCURVE",
"565 689 CURVE SMOOTH",
"625 689 OFFCURVE",
"649 621 OFFCURVE",
"649 504 CURVE SMOOTH",
"649 456 LINE SMOOTH",
"649 433 OFFCURVE",
"640 423 OFFCURVE",
"620 420 CURVE",
"620 395 LINE",
"814 395 LINE",
"814 420 LINE",
"794 423 OFFCURVE",
"785 436 OFFCURVE",
"785 456 CURVE SMOOTH",
"785 499 LINE SMOOTH",
"785 616 OFFCURVE",
"806 674 OFFCURVE",
"866 674 CURVE SMOOTH",
"917 674 OFFCURVE",
"948 616 OFFCURVE",
"948 499 CURVE SMOOTH",
"948 439 LINE",
"942 367 OFFCURVE",
"898 272 OFFCURVE",
"824 333 CURVE",
"800 300 LINE",
"836 270 OFFCURVE",
"917 238 OFFCURVE",
"1014 295 CURVE",
"1072 332 OFFCURVE",
"1107 403 OFFCURVE",
"1108 494 CURVE SMOOTH",
"1108 496 LINE",
"1107 608 OFFCURVE",
"1019 710 OFFCURVE",
"884 710 CURVE SMOOTH",
"812 710 OFFCURVE",
"752 683 OFFCURVE",
"711 641 CURVE",
"682 690 OFFCURVE",
"634 724 OFFCURVE",
"564 724 CURVE SMOOTH",
"494 724 OFFCURVE",
"446 690 OFFCURVE",
"417 641 CURVE",
"376 683 OFFCURVE",
"316 710 OFFCURVE",
"244 710 CURVE SMOOTH",
"109 710 OFFCURVE",
"21 608 OFFCURVE",
"20 496 CURVE SMOOTH",
"20 494 LINE SMOOTH"
);
}
);
width = 1128;
}
);
unicode = 10DA;
},
{
color = 3;
glyphname = "man-georgian";
lastChange = "2017-06-10 11:20:01 +0000";
layers = (
{
layerId = "FF6A36D6-AC67-41FE-A58D-2D1E84E0ACD0";
paths = (
{
closed = 1;
nodes = (
"461 -12 OFFCURVE",
"557 130 OFFCURVE",
"557 346 CURVE SMOOTH",
"557 576 OFFCURVE",
"460 702 OFFCURVE",
"279 702 CURVE SMOOTH",
"132 702 OFFCURVE",
"71 633 OFFCURVE",
"71 572 CURVE SMOOTH",
"71 522 OFFCURVE",
"107 482 OFFCURVE",
"168 482 CURVE SMOOTH",
"219 482 OFFCURVE",
"265 522 OFFCURVE",
"265 572 CURVE SMOOTH",
"265 619 OFFCURVE",
"238 645 OFFCURVE",
"215 657 CURVE",
"230 667 OFFCURVE",
"253 677 OFFCURVE",
"279 677 CURVE SMOOTH",
"359 677 OFFCURVE",
"387 583 OFFCURVE",
"387 517 CURVE SMOOTH",
"387 369 LINE",
"351 395 OFFCURVE",
"324 407 OFFCURVE",
"273 407 CURVE SMOOTH",
"152 407 OFFCURVE",
"40 314 OFFCURVE",
"40 198 CURVE",
"40 81 OFFCURVE",
"152 -12 OFFCURVE",
"294 -12 CURVE SMOOTH"
);
},
{
closed = 1;
nodes = (
"247 23 OFFCURVE",
"210 68 OFFCURVE",
"210 134 CURVE SMOOTH",
"210 257 LINE SMOOTH",
"210 322 OFFCURVE",
"247 362 OFFCURVE",
"301 362 CURVE SMOOTH",
"332 362 OFFCURVE",
"364 344 OFFCURVE",
"390 314 CURVE",
"390 134 LINE SMOOTH",
"390 68 OFFCURVE",
"355 23 OFFCURVE",
"301 23 CURVE SMOOTH"
);
}
);
width = 610;
},
{
associatedMasterId = "FF6A36D6-AC67-41FE-A58D-2D1E84E0ACD0";
layerId = "87161DD3-ACA9-4DA9-B9D7-CB4F636F91B1";
width = 600;
},
{
layerId = "878EBA0B-B3D3-4EA2-BB74-EB37BB03E3E9";
paths = (
{
closed = 1;
nodes = (
"401 -10 OFFCURVE",
"495 112 OFFCURVE",
"495 356 CURVE SMOOTH",
"495 547 OFFCURVE",
"429 701 OFFCURVE",
"261 701 CURVE SMOOTH",
"186 701 OFFCURVE",
"86 643 OFFCURVE",
"86 580 CURVE SMOOTH",
"86 554 OFFCURVE",
"107 534 OFFCURVE",
"132 534 CURVE SMOOTH",
"157 534 OFFCURVE",
"178 554 OFFCURVE",
"178 580 CURVE SMOOTH",
"178 600 OFFCURVE",
"165 616 OFFCURVE",
"147 623 CURVE",
"170 655 OFFCURVE",
"208 678 OFFCURVE",
"261 678 CURVE SMOOTH",
"362 678 OFFCURVE",
"425 598 OFFCURVE",
"425 485 CURVE SMOOTH",
"425 340 LINE",
"383 394 OFFCURVE",
"325 421 OFFCURVE",
"267 421 CURVE SMOOTH",
"140 421 OFFCURVE",
"50 343 OFFCURVE",
"50 211 CURVE SMOOTH",
"50 84 OFFCURVE",
"143 -10 OFFCURVE",
"270 -10 CURVE SMOOTH"
);
},
{
closed = 1;
nodes = (
"165 13 OFFCURVE",
"120 112 OFFCURVE",
"120 186 CURVE SMOOTH",
"120 235 LINE SMOOTH",
"120 315 OFFCURVE",
"161 395 OFFCURVE",
"267 395 CURVE SMOOTH",
"362 395 OFFCURVE",
"429 333 OFFCURVE",
"426 230 CURVE SMOOTH",
"426 219 LINE SMOOTH",
"425 112 OFFCURVE",
"368 13 OFFCURVE",
"270 13 CURVE SMOOTH"
);
}
);
width = 545;
}
);
unicode = 10DB;
},
{
color = 3;
glyphname = "nar-georgian";
lastChange = "2017-03-23 00:46:40 +0000";
layers = (
{
layerId = "FF6A36D6-AC67-41FE-A58D-2D1E84E0ACD0";
paths = (
{
closed = 1;
nodes = (
"567 314 OFFCURVE",
"455 407 OFFCURVE",
"334 407 CURVE SMOOTH",
"280 407 OFFCURVE",
"250 391 OFFCURVE",
"224 373 CURVE",
"220 373 LINE",
"220 517 LINE SMOOTH",
"220 583 OFFCURVE",
"218 666 OFFCURVE",
"298 666 CURVE SMOOTH",
"359 666 OFFCURVE",
"381 589 OFFCURVE",
"467 589 CURVE SMOOTH",
"520 589 OFFCURVE",
"559 634 OFFCURVE",
"583 683 CURVE",
"575 703 LINE",
"480 665 OFFCURVE",
"439 702 OFFCURVE",
"318 702 CURVE SMOOTH",
"137 702 OFFCURVE",
"50 576 OFFCURVE",
"50 346 CURVE SMOOTH",
"50 130 OFFCURVE",
"146 -12 OFFCURVE",
"313 -12 CURVE SMOOTH",
"455 -12 OFFCURVE",
"567 81 OFFCURVE",
"567 198 CURVE SMOOTH"
);
},
{
closed = 1;
nodes = (
"397 68 OFFCURVE",
"360 23 OFFCURVE",
"306 23 CURVE SMOOTH",
"252 23 OFFCURVE",
"217 68 OFFCURVE",
"217 134 CURVE SMOOTH",
"217 314 LINE",
"243 344 OFFCURVE",
"275 362 OFFCURVE",
"306 362 CURVE SMOOTH",
"360 362 OFFCURVE",
"397 322 OFFCURVE",
"397 257 CURVE SMOOTH",
"397 134 LINE SMOOTH"
);
}
);
width = 600;
},
{
associatedMasterId = "FF6A36D6-AC67-41FE-A58D-2D1E84E0ACD0";
layerId = "87161DD3-ACA9-4DA9-B9D7-CB4F636F91B1";
width = 600;
},
{
layerId = "878EBA0B-B3D3-4EA2-BB74-EB37BB03E3E9";
paths = (
{
closed = 1;
nodes = (
"476 345 OFFCURVE",
"394 424 OFFCURVE",
"264 424 CURVE SMOOTH",
"196 424 OFFCURVE",
"142 394 OFFCURVE",
"100 340 CURVE",
"100 485 LINE SMOOTH",
"100 595 OFFCURVE",
"133 678 OFFCURVE",
"219 678 CURVE",
"297 678 OFFCURVE",
"329 622 OFFCURVE",
"384 626 CURVE SMOOTH",
"442 630 OFFCURVE",
"471 654 OFFCURVE",
"500 678 CURVE",
"495 702 LINE",
"430 666 OFFCURVE",
"310 701 OFFCURVE",
"244 701 CURVE SMOOTH",
"71 701 OFFCURVE",
"29 551 OFFCURVE",
"30 356 CURVE SMOOTH",
"32 110 OFFCURVE",
"139 -10 OFFCURVE",
"264 -10 CURVE SMOOTH",
"382 -10 OFFCURVE",
"476 103 OFFCURVE",
"476 211 CURVE SMOOTH"
);
},
{
closed = 1;
nodes = (
"406 112 OFFCURVE",
"353 13 OFFCURVE",
"264 13 CURVE SMOOTH",
"172 13 OFFCURVE",
"101 112 OFFCURVE",
"100 212 CURVE SMOOTH",
"99 319 OFFCURVE",
"164 395 OFFCURVE",
"264 395 CURVE SMOOTH",
"370 395 OFFCURVE",
"406 323 OFFCURVE",
"406 211 CURVE SMOOTH"
);
}
);
width = 530;
}
);
unicode = 10DC;
},
{
color = 3;
glyphname = "on-georgian";
lastChange = "2017-06-10 11:20:12 +0000";
layers = (
{
layerId = "FF6A36D6-AC67-41FE-A58D-2D1E84E0ACD0";
paths = (
{
closed = 1;
nodes = (
"50 155 OFFCURVE",
"114 10 OFFCURVE",
"277 -12 CURVE",
"287 14 LINE",
"250 40 OFFCURVE",
"220 98 OFFCURVE",
"220 175 CURVE SMOOTH",
"220 556 LINE SMOOTH",
"220 618 OFFCURVE",
"248 667 OFFCURVE",
"297 667 CURVE SMOOTH",
"344 667 OFFCURVE",
"374 618 OFFCURVE",
"374 556 CURVE SMOOTH",
"374 415 LINE",
"374 392 OFFCURVE",
"359 382 OFFCURVE",
"339 379 CURVE",
"339 344 LINE",
"578 344 LINE",
"578 379 LINE",
"558 382 OFFCURVE",
"543 395 OFFCURVE",
"543 415 CURVE",
"543 556 LINE SMOOTH",
"543 618 OFFCURVE",
"573 667 OFFCURVE",
"620 667 CURVE SMOOTH",
"669 667 OFFCURVE",
"697 618 OFFCURVE",
"697 556 CURVE SMOOTH",
"697 175 LINE SMOOTH",
"697 98 OFFCURVE",
"670 40 OFFCURVE",
"630 14 CURVE",
"640 -12 LINE",
"803 10 OFFCURVE",
"867 155 OFFCURVE",
"867 344 CURVE SMOOTH",
"867 533 OFFCURVE",
"783 702 OFFCURVE",
"620 702 CURVE SMOOTH",
"555 702 OFFCURVE",
"499 669 OFFCURVE",
"462 616 CURVE",
"458 616 LINE",
"420 670 OFFCURVE",
"363 702 OFFCURVE",
"297 702 CURVE SMOOTH",
"134 702 OFFCURVE",
"50 533 OFFCURVE",
"50 344 CURVE SMOOTH"
);
}
);
width = 917;
},
{
associatedMasterId = "FF6A36D6-AC67-41FE-A58D-2D1E84E0ACD0";
layerId = "87161DD3-ACA9-4DA9-B9D7-CB4F636F91B1";
width = 600;
},
{
layerId = "878EBA0B-B3D3-4EA2-BB74-EB37BB03E3E9";
paths = (
{
closed = 1;
nodes = (
"380 572 LINE",
"372 615 OFFCURVE",
"334 701 OFFCURVE",
"241 701 CURVE SMOOTH",
"114 701 OFFCURVE",
"30 552 OFFCURVE",
"30 354 CURVE SMOOTH",
"30 165 OFFCURVE",
"87 12 OFFCURVE",
"190 -10 CURVE",
"200 16 LINE",
"133 42 OFFCURVE",
"100 128 OFFCURVE",
"100 225 CURVE SMOOTH",
"100 496 LINE SMOOTH",
"100 587 OFFCURVE",
"153 678 OFFCURVE",
"241 678 CURVE SMOOTH",
"324 678 OFFCURVE",
"351 570 OFFCURVE",
"351 542 CURVE"
);
},
{
closed = 1;
nodes = (
"351 428 LINE",
"383 428 LINE",
"383 577 LINE",
"351 577 LINE"
);
},
{
closed = 1;
nodes = (
"383 570 OFFCURVE",
"410 678 OFFCURVE",
"493 678 CURVE SMOOTH",
"581 678 OFFCURVE",
"634 587 OFFCURVE",
"634 496 CURVE SMOOTH",
"634 225 LINE SMOOTH",
"634 128 OFFCURVE",
"600 42 OFFCURVE",
"533 16 CURVE",
"543 -10 LINE",
"646 12 OFFCURVE",
"704 165 OFFCURVE",
"704 354 CURVE SMOOTH",
"704 552 OFFCURVE",
"620 701 OFFCURVE",
"493 701 CURVE SMOOTH",
"400 701 OFFCURVE",
"372 615 OFFCURVE",
"354 572 CURVE",
"383 542 LINE"
);
},
{
closed = 1;
nodes = (
"413 361 LINE",
"413 380 LINE",
"390 380 OFFCURVE",
"383 395 OFFCURVE",
"383 428 CURVE",
"351 428 LINE",
"351 395 OFFCURVE",
"344 380 OFFCURVE",
"321 380 CURVE",
"321 361 LINE"
);
}
);
width = 734;
}
);
unicode = 10DD;
},
{
color = 3;
glyphname = "par-georgian";
lastChange = "2017-03-23 17:48:04 +0000";
layers = (
{
backgroundImage = {
crop = "{{0, 0}, {212, 281}}";
imagePath = ../mtavruli/par.jpg;
locked = "1";
transform = "{3.927, 0.137, -0.137, 3.927, -86, -206}";
};
layerId = "FF6A36D6-AC67-41FE-A58D-2D1E84E0ACD0";
paths = (
{
closed = 1;
nodes = (
"232 23 OFFCURVE",
"190 65 OFFCURVE",
"190 124 CURVE SMOOTH",
"190 161 LINE SMOOTH",
"190 206 OFFCURVE",
"188 239 OFFCURVE",
"211 263 CURVE",
"197 292 LINE",
"136 291 OFFCURVE",
"20 250 OFFCURVE",
"20 148 CURVE SMOOTH",
"20 34 OFFCURVE",
"142 -12 OFFCURVE",
"275 -12 CURVE SMOOTH",
"431 -12 OFFCURVE",
"546 51 OFFCURVE",
"546 184 CURVE SMOOTH",
"546 297 OFFCURVE",
"445 330 OFFCURVE",
"376 352 CURVE",
"429 363 OFFCURVE",
"478 409 OFFCURVE",
"478 465 CURVE SMOOTH",
"478 529 OFFCURVE",
"417 598 OFFCURVE",
"308 608 CURVE SMOOTH",
"241 614 OFFCURVE",
"191 645 OFFCURVE",
"217 690 CURVE",
"204 703 LINE",
"171 680 OFFCURVE",
"132 633 OFFCURVE",
"132 590 CURVE SMOOTH",
"132 537 OFFCURVE",
"166 503 OFFCURVE",
"204 486 CURVE SMOOTH",
"268 457 OFFCURVE",
"413 492 OFFCURVE",
"413 429 CURVE SMOOTH",
"413 394 OFFCURVE",
"365 367 OFFCURVE",
"331 367 CURVE SMOOTH",
"308 367 LINE SMOOTH",
"286 367 OFFCURVE",
"276 377 OFFCURVE",
"276 395 CURVE",
"248 395 LINE",
"248 307 LINE",
"276 307 LINE",
"276 327 OFFCURVE",
"288 335 OFFCURVE",
"308 335 CURVE SMOOTH",
"311 335 LINE SMOOTH",
"353 335 OFFCURVE",
"375 295 OFFCURVE",
"375 225 CURVE SMOOTH",
"375 134 LINE SMOOTH",
"375 65 OFFCURVE",
"339 23 OFFCURVE",
"280 23 CURVE SMOOTH"
);
}
);
width = 566;
},
{
associatedMasterId = "FF6A36D6-AC67-41FE-A58D-2D1E84E0ACD0";
backgroundImage = {
crop = "{{0, 0}, {212, 281}}";
imagePath = ../mtavruli/par.jpg;
locked = "1";
transform = "{3.927, 0.137, -0.137, 3.927, -86, -206}";
};
layerId = "90CF37BE-87DB-48E8-85A6-548FCC05C0D1";
name = "Dec 12 16, 17:30";
paths = (
{
closed = 1;
nodes = (
"203 23 OFFCURVE",
"192 75 OFFCURVE",
"190 124 CURVE SMOOTH",
"190 161 LINE SMOOTH",
"188 206 OFFCURVE",
"196 235 OFFCURVE",
"219 259 CURVE",
"197 292 LINE",
"136 291 OFFCURVE",
"20 226 OFFCURVE",
"20 148 CURVE SMOOTH",
"20 60 OFFCURVE",
"107 -12 OFFCURVE",
"278 -12 CURVE SMOOTH",
"434 -12 OFFCURVE",
"546 51 OFFCURVE",
"546 184 CURVE SMOOTH",
"546 297 OFFCURVE",
"445 330 OFFCURVE",
"376 352 CURVE",
"429 363 OFFCURVE",
"478 409 OFFCURVE",
"478 465 CURVE SMOOTH",
"478 529 OFFCURVE",
"417 598 OFFCURVE",
"308 608 CURVE SMOOTH",
"241 614 OFFCURVE",
"191 645 OFFCURVE",
"217 690 CURVE",
"204 703 LINE",
"171 680 OFFCURVE",
"132 633 OFFCURVE",
"132 590 CURVE SMOOTH",
"132 537 OFFCURVE",
"166 503 OFFCURVE",
"204 486 CURVE SMOOTH",
"268 457 OFFCURVE",
"413 492 OFFCURVE",
"413 429 CURVE SMOOTH",
"413 394 OFFCURVE",
"365 367 OFFCURVE",
"331 367 CURVE SMOOTH",
"308 367 LINE SMOOTH",
"286 367 OFFCURVE",
"276 377 OFFCURVE",
"276 395 CURVE",
"248 395 LINE",
"248 307 LINE",
"276 307 LINE",
"276 327 OFFCURVE",
"288 335 OFFCURVE",
"308 335 CURVE SMOOTH",
"311 335 LINE SMOOTH",
"353 335 OFFCURVE",
"375 295 OFFCURVE",
"375 225 CURVE SMOOTH",
"375 134 LINE SMOOTH",
"375 84 OFFCURVE",
"348 23 OFFCURVE",
"283 23 CURVE SMOOTH"
);
}
);
width = 566;
},
{
associatedMasterId = "FF6A36D6-AC67-41FE-A58D-2D1E84E0ACD0";
layerId = "87161DD3-ACA9-4DA9-B9D7-CB4F636F91B1";
width = 600;
},
{
layerId = "878EBA0B-B3D3-4EA2-BB74-EB37BB03E3E9";
paths = (
{
closed = 1;
nodes = (
"30 68 OFFCURVE",
"125 -10 OFFCURVE",
"254 -10 CURVE SMOOTH",
"391 -10 OFFCURVE",
"489 61 OFFCURVE",
"489 178 CURVE SMOOTH",
"489 263 OFFCURVE",
"433 319 OFFCURVE",
"351 342 CURVE",
"391 354 OFFCURVE",
"437 390 OFFCURVE",
"437 436 CURVE SMOOTH",
"437 485 OFFCURVE",
"414 530 OFFCURVE",
"340 553 CURVE SMOOTH",
"274 574 OFFCURVE",
"151 593 OFFCURVE",
"196 690 CURVE",
"183 706 LINE",
"128 651 OFFCURVE",
"135 574 OFFCURVE",
"208 536 CURVE SMOOTH",
"273 502 OFFCURVE",
"405 513 OFFCURVE",
"405 435 CURVE SMOOTH",
"405 389 OFFCURVE",
"364 354 OFFCURVE",
"305 354 CURVE SMOOTH",
"287 354 LINE SMOOTH",
"272 354 OFFCURVE",
"262 367 OFFCURVE",
"262 380 CURVE",
"243 380 LINE",
"243 302 LINE",
"262 302 LINE",
"262 315 OFFCURVE",
"272 328 OFFCURVE",
"287 328 CURVE SMOOTH",
"305 328 LINE SMOOTH",
"388 328 OFFCURVE",
"418 263 OFFCURVE",
"418 202 CURVE SMOOTH",
"418 148 LINE SMOOTH",
"418 61 OFFCURVE",
"342 14 OFFCURVE",
"253 13 CURVE SMOOTH",
"153 12 OFFCURVE",
"100 76 OFFCURVE",
"100 139 CURVE SMOOTH",
"100 166 LINE SMOOTH",
"100 216 OFFCURVE",
"119 241 OFFCURVE",
"171 267 CURVE",
"160 286 LINE",
"117 274 OFFCURVE",
"30 239 OFFCURVE",
"30 155 CURVE SMOOTH"
);
}
);
width = 522;
}
);
widthMetricsKey = "#[";
unicode = 10DE;
},
{
color = 3;
glyphname = "zhar-georgian";
lastChange = "2017-03-23 00:54:21 +0000";
layers = (
{
layerId = "FF6A36D6-AC67-41FE-A58D-2D1E84E0ACD0";
paths = (
{
closed = 1;
nodes = (
"183 396 OFFCURVE",
"223 422 OFFCURVE",
"224 471 CURVE SMOOTH",
"225 519 OFFCURVE",
"195 549 OFFCURVE",
"153 550 CURVE",
"146 578 LINE",
"142 575 OFFCURVE",
"354 593 OFFCURVE",
"391 690 CURVE",
"551 690 LINE",
"551 245 LINE",
"551 65 OFFCURVE",
"448 -12 OFFCURVE",
"275 -12 CURVE SMOOTH",
"132 -12 OFFCURVE",
"10 65 OFFCURVE",
"10 162 CURVE SMOOTH",
"10 262 OFFCURVE",
"133 301 OFFCURVE",
"197 302 CURVE",
"211 273 LINE",
"178 239 OFFCURVE",
"180 207 OFFCURVE",
"180 172 CURVE SMOOTH",
"180 144 LINE SMOOTH",
"180 75 OFFCURVE",
"222 23 OFFCURVE",
"280 23 CURVE SMOOTH",
"348 23 OFFCURVE",
"392 65 OFFCURVE",
"392 184 CURVE SMOOTH",
"391 625 LINE",
"348 591 OFFCURVE",
"305 572 OFFCURVE",
"256 562 CURVE",
"258 561 OFFCURVE",
"256 559 OFFCURVE",
"258 558 CURVE",
"296 543 OFFCURVE",
"327 523 OFFCURVE",
"327 469 CURVE SMOOTH",
"327 399 OFFCURVE",
"266 352 OFFCURVE",
"176 352 CURVE SMOOTH",
"100 352 OFFCURVE",
"38 406 OFFCURVE",
"38 459 CURVE SMOOTH",
"38 493 OFFCURVE",
"59 524 OFFCURVE",
"106 524 CURVE SMOOTH",
"141 524 OFFCURVE",
"160 497 OFFCURVE",
"160 469 CURVE SMOOTH",
"160 431 OFFCURVE",
"121 416 OFFCURVE",
"100 428 CURVE",
"98 426 LINE",
"108 412 OFFCURVE",
"123 396 OFFCURVE",
"151 396 CURVE SMOOTH"
);
}
);
width = 561;
},
{
associatedMasterId = "FF6A36D6-AC67-41FE-A58D-2D1E84E0ACD0";
layerId = "03FCBD6A-49AB-4E71-BADC-0FCA78B79219";
name = "Dec 12 16, 17:30";
paths = (
{
closed = 1;
nodes = (
"193 366 OFFCURVE",
"233 392 OFFCURVE",
"234 441 CURVE SMOOTH",
"235 489 OFFCURVE",
"205 519 OFFCURVE",
"163 520 CURVE",
"156 548 LINE",
"152 545 OFFCURVE",
"334 593 OFFCURVE",
"371 690 CURVE",
"531 690 LINE",
"531 188 LINE",
"531 65 OFFCURVE",
"431 -12 OFFCURVE",
"278 -12 CURVE SMOOTH",
"145 -12 OFFCURVE",
"20 34 OFFCURVE",
"20 148 CURVE SMOOTH",
"20 235 OFFCURVE",
"136 291 OFFCURVE",
"200 292 CURVE",
"219 257 LINE",
"196 235 OFFCURVE",
"190 201 OFFCURVE",
"190 162 CURVE SMOOTH",
"190 134 LINE SMOOTH",
"190 65 OFFCURVE",
"232 23 OFFCURVE",
"283 23 CURVE SMOOTH",
"329 23 OFFCURVE",
"371 65 OFFCURVE",
"371 134 CURVE SMOOTH",
"371 631 LINE",
"355 610 OFFCURVE",
"319 575 OFFCURVE",
"248 546 CURVE",
"297 538 OFFCURVE",
"337 504 OFFCURVE",
"337 439 CURVE SMOOTH",
"337 369 OFFCURVE",
"256 332 OFFCURVE",
"186 332 CURVE SMOOTH",
"110 332 OFFCURVE",
"38 379 OFFCURVE",
"38 449 CURVE SMOOTH",
"38 483 OFFCURVE",
"59 514 OFFCURVE",
"106 514 CURVE SMOOTH",
"141 514 OFFCURVE",
"160 487 OFFCURVE",
"160 459 CURVE SMOOTH",
"160 421 OFFCURVE",
"121 406 OFFCURVE",
"100 418 CURVE",
"94 413 LINE",
"100 388 OFFCURVE",
"123 366 OFFCURVE",
"161 366 CURVE SMOOTH"
);
}
);
width = 561;
},
{
associatedMasterId = "FF6A36D6-AC67-41FE-A58D-2D1E84E0ACD0";
layerId = "87161DD3-ACA9-4DA9-B9D7-CB4F636F91B1";
width = 600;
},
{
layerId = "878EBA0B-B3D3-4EA2-BB74-EB37BB03E3E9";
paths = (
{
closed = 1;
nodes = (
"242 391 OFFCURVE",
"283 412 OFFCURVE",
"284 471 CURVE SMOOTH",
"285 519 OFFCURVE",
"235 549 OFFCURVE",
"193 550 CURVE",
"186 578 LINE",
"182 575 OFFCURVE",
"394 593 OFFCURVE",
"431 690 CURVE",
"482 690 LINE",
"482 265 LINE SMOOTH",
"482 76 OFFCURVE",
"378 -10 OFFCURVE",
"254 -10 CURVE SMOOTH",
"133 -10 OFFCURVE",
"24 68 OFFCURVE",
"24 165 CURVE SMOOTH",
"24 249 OFFCURVE",
"126 296 OFFCURVE",
"171 303 CURVE",
"181 282 LINE",
"130 265 OFFCURVE",
"95 222 OFFCURVE",
"95 164 CURVE SMOOTH",
"95 140 LINE SMOOTH",
"95 71 OFFCURVE",
"163 13 OFFCURVE",
"254 13 CURVE SMOOTH",
"348 13 OFFCURVE",
"432 85 OFFCURVE",
"432 204 CURVE SMOOTH",
"431 649 LINE",
"394 593 OFFCURVE",
"295 568 OFFCURVE",
"248 565 CURVE",
"247 561 LINE",
"285 546 OFFCURVE",
"327 513 OFFCURVE",
"327 469 CURVE SMOOTH",
"327 399 OFFCURVE",
"260 370 OFFCURVE",
"210 370 CURVE SMOOTH",
"141 370 OFFCURVE",
"102 419 OFFCURVE",
"101 456 CURVE SMOOTH",
"100 486 OFFCURVE",
"119 508 OFFCURVE",
"147 508 CURVE SMOOTH",
"172 508 OFFCURVE",
"185 490 OFFCURVE",
"185 469 CURVE SMOOTH",
"185 435 OFFCURVE",
"152 423 OFFCURVE",
"131 435 CURVE",
"129 433 LINE",
"145 409 OFFCURVE",
"170 391 OFFCURVE",
"203 391 CURVE SMOOTH"
);
}
);
width = 510;
}
);
unicode = 10DF;
},
{
color = 3;
glyphname = "rae-georgian";
lastChange = "2017-03-23 00:59:09 +0000";
layers = (
{
backgroundImage = {
crop = "{{0, 0}, {232, 270}}";
imagePath = ../mtavruli/rae.jpg;
transform = "{4.499, 0.079, -0.079, 4.499, -173, -294}";
};
layerId = "FF6A36D6-AC67-41FE-A58D-2D1E84E0ACD0";
paths = (
{
closed = 1;
nodes = (
"20 86 OFFCURVE",
"100 -1 OFFCURVE",
"207 -11 CURVE",
"217 15 LINE",
"200 19 OFFCURVE",
"183 74 OFFCURVE",
"181 134 CURVE SMOOTH",
"180 163 OFFCURVE",
"180 194 OFFCURVE",
"180 220 CURVE SMOOTH",
"180 337 OFFCURVE",
"191 395 OFFCURVE",
"242 395 CURVE SMOOTH",
"279 395 OFFCURVE",
"292 364 OFFCURVE",
"292 302 CURVE",
"292 281 LINE SMOOTH",
"292 258 OFFCURVE",
"283 248 OFFCURVE",
"263 245 CURVE",
"263 220 LINE",
"459 220 LINE",
"459 245 LINE",
"439 248 OFFCURVE",
"430 261 OFFCURVE",
"430 281 CURVE SMOOTH",
"430 302 LINE",
"430 364 OFFCURVE",
"443 395 OFFCURVE",
"480 395 CURVE SMOOTH",
"515 395 OFFCURVE",
"542 366 OFFCURVE",
"542 302 CURVE",
"542 122 LINE",
"542 64 OFFCURVE",
"521 19 OFFCURVE",
"505 15 CURVE",
"515 -11 LINE",
"622 -1 OFFCURVE",
"702 86 OFFCURVE",
"702 215 CURVE SMOOTH",
"702 339 OFFCURVE",
"608 431 OFFCURVE",
"497 431 CURVE SMOOTH",
"441 431 OFFCURVE",
"395 412 OFFCURVE",
"361 381 CURVE",
"327 412 OFFCURVE",
"281 431 OFFCURVE",
"243 431 CURVE SMOOTH",
"218 431 OFFCURVE",
"192 424 OFFCURVE",
"179 416 CURVE",
"173 417 LINE",
"256 466 OFFCURVE",
"336 480 OFFCURVE",
"395 508 CURVE SMOOTH",
"474 545 OFFCURVE",
"519 588 OFFCURVE",
"541 655 CURVE SMOOTH",
"543 661 OFFCURVE",
"548 665 OFFCURVE",
"558 665 CURVE",
"558 690 LINE",
"343 690 LINE",
"343 665 LINE",
"365 665 OFFCURVE",
"382 652 OFFCURVE",
"382 631 CURVE SMOOTH",
"382 478 OFFCURVE",
"20 486 OFFCURVE",
"20 217 CURVE SMOOTH",
"20 215 LINE SMOOTH"
);
}
);
width = 712;
},
{
associatedMasterId = "FF6A36D6-AC67-41FE-A58D-2D1E84E0ACD0";
layerId = "87161DD3-ACA9-4DA9-B9D7-CB4F636F91B1";
width = 600;
},
{
layerId = "878EBA0B-B3D3-4EA2-BB74-EB37BB03E3E9";
paths = (
{
closed = 1;
nodes = (
"-1 99 OFFCURVE",
"85 -1 OFFCURVE",
"161 -11 CURVE",
"171 15 LINE",
"124 19 OFFCURVE",
"71 74 OFFCURVE",
"70 154 CURVE SMOOTH",
"69 220 LINE SMOOTH",
"67 367 OFFCURVE",
"135 405 OFFCURVE",
"186 405 CURVE SMOOTH",
"233 405 OFFCURVE",
"286 364 OFFCURVE",
"286 302 CURVE",
"286 281 LINE SMOOTH",
"286 258 OFFCURVE",
"277 248 OFFCURVE",
"257 245 CURVE",
"257 220 LINE",
"353 220 LINE",
"353 245 LINE",
"333 248 OFFCURVE",
"324 261 OFFCURVE",
"324 281 CURVE SMOOTH",
"324 302 LINE",
"324 364 OFFCURVE",
"377 405 OFFCURVE",
"424 405 CURVE SMOOTH",
"489 405 OFFCURVE",
"550 367 OFFCURVE",
"546 220 CURVE SMOOTH",
"544 154 LINE SMOOTH",
"542 74 OFFCURVE",
"485 19 OFFCURVE",
"439 15 CURVE",
"449 -11 LINE",
"516 -1 OFFCURVE",
"616 86 OFFCURVE",
"616 215 CURVE SMOOTH",
"616 339 OFFCURVE",
"521 431 OFFCURVE",
"424 431 CURVE SMOOTH",
"382 431 OFFCURVE",
"339 412 OFFCURVE",
"305 361 CURVE",
"271 412 OFFCURVE",
"225 431 OFFCURVE",
"187 431 CURVE SMOOTH",
"162 431 OFFCURVE",
"136 424 OFFCURVE",
"123 416 CURVE",
"117 417 LINE",
"160 476 OFFCURVE",
"245 495 OFFCURVE",
"309 528 CURVE SMOOTH",
"390 570 OFFCURVE",
"414 588 OFFCURVE",
"455 655 CURVE SMOOTH",
"459 661 OFFCURVE",
"462 665 OFFCURVE",
"472 665 CURVE",
"472 690 LINE",
"347 690 LINE",
"347 665 LINE",
"369 665 OFFCURVE",
"396 652 OFFCURVE",
"386 631 CURVE SMOOTH",
"329 511 OFFCURVE",
"-1 510 OFFCURVE",
"-1 217 CURVE SMOOTH"
);
}
);
width = 636;
}
);
unicode = 10E0;
},
{
color = 3;
glyphname = "san-georgian";
lastChange = "2017-03-23 00:46:28 +0000";
layers = (
{
backgroundImage = {
crop = "{{0, 0}, {209, 233}}";
imagePath = ../mtavruli/san.jpg;
locked = "1";
transform = "{4.403, 0.077, -0.077, 4.403, -104, -146}";
};
layerId = "FF6A36D6-AC67-41FE-A58D-2D1E84E0ACD0";
paths = (
{
closed = 1;
nodes = (
"568 -12 OFFCURVE",
"647 74 OFFCURVE",
"647 162 CURVE SMOOTH",
"647 221 OFFCURVE",
"632 268 OFFCURVE",
"568 311 CURVE SMOOTH",
"521 343 OFFCURVE",
"453 354 OFFCURVE",
"453 400 CURVE SMOOTH",
"453 410 OFFCURVE",
"460 417 OFFCURVE",
"472 421 CURVE",
"475 402 OFFCURVE",
"492 388 OFFCURVE",
"512 388 CURVE SMOOTH",
"534 388 OFFCURVE",
"552 406 OFFCURVE",
"552 429 CURVE SMOOTH",
"552 451 OFFCURVE",
"536 472 OFFCURVE",
"502 472 CURVE SMOOTH",
"448 472 OFFCURVE",
"419 430 OFFCURVE",
"419 371 CURVE SMOOTH",
"419 280 OFFCURVE",
"478 284 OFFCURVE",
"478 178 CURVE SMOOTH",
"478 151 OFFCURVE",
"478 147 OFFCURVE",
"473 115 CURVE SMOOTH",
"464 55 OFFCURVE",
"431 23 OFFCURVE",
"383 23 CURVE SMOOTH",
"306 23 OFFCURVE",
"274 101 OFFCURVE",
"280 196 CURVE SMOOTH",
"300 537 LINE",
"299 634 OFFCURVE",
"254 715 OFFCURVE",
"118 715 CURVE SMOOTH",
"48 715 OFFCURVE",
"4 691 OFFCURVE",
"4 652 CURVE SMOOTH",
"4 629 OFFCURVE",
"25 612 OFFCURVE",
"48 612 CURVE SMOOTH",
"70 612 OFFCURVE",
"88 629 OFFCURVE",
"88 652 CURVE SMOOTH",
"88 668 OFFCURVE",
"81 680 OFFCURVE",
"66 687 CURVE",
"113 684 OFFCURVE",
"141 671 OFFCURVE",
"141 573 CURVE SMOOTH",
"141 490 OFFCURVE",
"115 347 OFFCURVE",
"115 225 CURVE SMOOTH",
"115 123 OFFCURVE",
"140 -12 OFFCURVE",
"393 -12 CURVE SMOOTH"
);
}
);
width = 681;
},
{
associatedMasterId = "FF6A36D6-AC67-41FE-A58D-2D1E84E0ACD0";
layerId = "87161DD3-ACA9-4DA9-B9D7-CB4F636F91B1";
width = 600;
},
{
layerId = "878EBA0B-B3D3-4EA2-BB74-EB37BB03E3E9";
paths = (
{
closed = 1;
nodes = (
"10 642 OFFCURVE",
"21 632 OFFCURVE",
"34 632 CURVE SMOOTH",
"46 632 OFFCURVE",
"57 642 OFFCURVE",
"57 656 CURVE SMOOTH",
"57 665 OFFCURVE",
"52 671 OFFCURVE",
"46 676 CURVE",
"52 682 OFFCURVE",
"61 685 OFFCURVE",
"78 685 CURVE SMOOTH",
"119 685 OFFCURVE",
"152 629 OFFCURVE",
"131 477 CURVE SMOOTH",
"113 344 LINE SMOOTH",
"83 124 OFFCURVE",
"153 -10 OFFCURVE",
"331 -10 CURVE SMOOTH",
"449 -10 OFFCURVE",
"543 82 OFFCURVE",
"543 181 CURVE SMOOTH",
"543 261 OFFCURVE",
"487 313 OFFCURVE",
"445 340 CURVE SMOOTH",
"405 368 OFFCURVE",
"414 395 OFFCURVE",
"416 408 CURVE SMOOTH",
"419 425 OFFCURVE",
"432 436 OFFCURVE",
"443 436 CURVE",
"444 428 OFFCURVE",
"447 421 OFFCURVE",
"454 416 CURVE SMOOTH",
"465 408 OFFCURVE",
"482 411 OFFCURVE",
"489 421 CURVE SMOOTH",
"501 439 OFFCURVE",
"489 462 OFFCURVE",
"458 462 CURVE SMOOTH",
"414 460 OFFCURVE",
"393 429 OFFCURVE",
"392 392 CURVE SMOOTH",
"391 331 OFFCURVE",
"473 303 OFFCURVE",
"473 191 CURVE SMOOTH",
"473 82 OFFCURVE",
"410 13 OFFCURVE",
"321 13 CURVE SMOOTH",
"229 13 OFFCURVE",
"168 102 OFFCURVE",
"167 202 CURVE SMOOTH",
"166 261 OFFCURVE",
"173 322 OFFCURVE",
"188 452 CURVE SMOOTH",
"209 632 OFFCURVE",
"153 702 OFFCURVE",
"83 702 CURVE SMOOTH",
"44 702 OFFCURVE",
"10 684 OFFCURVE",
"10 656 CURVE SMOOTH"
);
}
);
width = 573;
}
);
unicode = 10E1;
},
{
color = 3;
glyphname = "tar-georgian";
lastChange = "2017-03-23 00:57:30 +0000";
layers = (
{
backgroundImage = {
crop = "{{0, 0}, {229, 303}}";
imagePath = ../mtavruli/tar.jpg;
locked = "1";
transform = "{4.476, 0, 0, 4.476, -57, -294}";
};
layerId = "FF6A36D6-AC67-41FE-A58D-2D1E84E0ACD0";
paths = (
{
closed = 1;
nodes = (
"360 542 OFFCURVE",
"407 524 OFFCURVE",
"433 518 CURVE",
"442 518 OFFCURVE",
"472 559 OFFCURVE",
"474 602 CURVE SMOOTH",
"477 657 OFFCURVE",
"442 674 OFFCURVE",
"423 674 CURVE SMOOTH",
"377 674 OFFCURVE",
"360 643 OFFCURVE",
"360 602 CURVE SMOOTH"
);
},
{
closed = 1;
nodes = (
"287 422 LINE",
"262 379 OFFCURVE",
"260 326 OFFCURVE",
"260 257 CURVE SMOOTH",
"260 187 LINE SMOOTH",
"260 72 OFFCURVE",
"361 23 OFFCURVE",
"451 23 CURVE SMOOTH",
"541 23 OFFCURVE",
"632 72 OFFCURVE",
"632 186 CURVE SMOOTH",
"632 288 LINE SMOOTH",
"632 381 OFFCURVE",
"570 436 OFFCURVE",
"460 468 CURVE",
"430 442 OFFCURVE",
"407 402 OFFCURVE",
"407 332 CURVE SMOOTH",
"407 281 OFFCURVE",
"429 239 OFFCURVE",
"479 239 CURVE SMOOTH",
"527 239 OFFCURVE",
"553 290 OFFCURVE",
"543 333 CURVE",
"538 334 LINE",
"533 325 OFFCURVE",
"522 316 OFFCURVE",
"504 316 CURVE SMOOTH",
"489 316 OFFCURVE",
"467 327 OFFCURVE",
"467 351 CURVE SMOOTH",
"467 375 OFFCURVE",
"483 396 OFFCURVE",
"514 396 CURVE SMOOTH",
"542 396 OFFCURVE",
"590 375 OFFCURVE",
"590 312 CURVE SMOOTH",
"590 239 OFFCURVE",
"521 191 OFFCURVE",
"437 191 CURVE SMOOTH",
"348 191 OFFCURVE",
"295 257 OFFCURVE",
"295 332 CURVE SMOOTH",
"295 400 OFFCURVE",
"334 464 OFFCURVE",
"399 495 CURVE",
"348 515 OFFCURVE",
"308 555 OFFCURVE",
"308 596 CURVE SMOOTH",
"308 655 OFFCURVE",
"357 702 OFFCURVE",
"449 702 CURVE SMOOTH",
"527 702 OFFCURVE",
"590 655 OFFCURVE",
"590 596 CURVE SMOOTH",
"590 558 OFFCURVE",
"548 521 OFFCURVE",
"503 496 CURVE",
"665 445 OFFCURVE",
"802 357 OFFCURVE",
"802 226 CURVE SMOOTH",
"802 84 OFFCURVE",
"652 -12 OFFCURVE",
"451 -12 CURVE SMOOTH",
"246 -12 OFFCURVE",
"90 88 OFFCURVE",
"90 227 CURVE SMOOTH",
"90 321 OFFCURVE",
"153 385 OFFCURVE",
"275 443 CURVE"
);
},
{
closed = 1;
nodes = (
"0 410 OFFCURVE",
"24 429 OFFCURVE",
"46 429 CURVE SMOOTH",
"67 429 OFFCURVE",
"82 414 OFFCURVE",
"82 397 CURVE SMOOTH",
"82 379 OFFCURVE",
"69 366 OFFCURVE",
"51 366 CURVE",
"45 367 LINE",
"45 349 OFFCURVE",
"66 333 OFFCURVE",
"87 333 CURVE SMOOTH",
"128 333 OFFCURVE",
"151 367 OFFCURVE",
"178 386 CURVE",
"201 385 LINE",
"169 344 OFFCURVE",
"127 301 OFFCURVE",
"82 301 CURVE SMOOTH",
"38 301 OFFCURVE",
"0 338 OFFCURVE",
"0 379 CURVE SMOOTH"
);
}
);
width = 812;
},
{
associatedMasterId = "FF6A36D6-AC67-41FE-A58D-2D1E84E0ACD0";
backgroundImage = {
crop = "{{0, 0}, {229, 303}}";
imagePath = ../mtavruli/tar.jpg;
locked = "1";
transform = "{4.476, 0, 0, 4.476, -57, -294}";
};
layerId = "5261830A-A4A1-432B-8897-F44FB23B0772";
name = "Dec 12 16, 17:31";
paths = (
{
closed = 1;
nodes = (
"360 542 OFFCURVE",
"407 524 OFFCURVE",
"442 518 CURVE",
"442 518 OFFCURVE",
"472 559 OFFCURVE",
"474 602 CURVE SMOOTH",
"477 657 OFFCURVE",
"442 674 OFFCURVE",
"423 674 CURVE SMOOTH",
"377 674 OFFCURVE",
"360 643 OFFCURVE",
"360 602 CURVE SMOOTH"
);
},
{
closed = 1;
nodes = (
"665 445 OFFCURVE",
"802 357 OFFCURVE",
"802 226 CURVE SMOOTH",
"802 85 OFFCURVE",
"652 -12 OFFCURVE",
"451 -12 CURVE SMOOTH",
"246 -12 OFFCURVE",
"93 88 OFFCURVE",
"100 227 CURVE SMOOTH",
"107 361 OFFCURVE",
"256 452 OFFCURVE",
"399 495 CURVE",
"348 515 OFFCURVE",
"308 555 OFFCURVE",
"308 596 CURVE SMOOTH",
"308 655 OFFCURVE",
"371 702 OFFCURVE",
"449 702 CURVE SMOOTH",
"527 702 OFFCURVE",
"590 655 OFFCURVE",
"590 596 CURVE SMOOTH",
"590 558 OFFCURVE",
"548 521 OFFCURVE",
"503 496 CURVE"
);
},
{
closed = 1;
nodes = (
"270 72 OFFCURVE",
"361 23 OFFCURVE",
"451 23 CURVE SMOOTH",
"541 23 OFFCURVE",
"632 72 OFFCURVE",
"632 166 CURVE SMOOTH",
"632 288 LINE SMOOTH",
"632 381 OFFCURVE",
"570 436 OFFCURVE",
"460 468 CURVE",
"430 442 OFFCURVE",
"407 402 OFFCURVE",
"407 332 CURVE SMOOTH",
"407 281 OFFCURVE",
"429 239 OFFCURVE",
"479 239 CURVE SMOOTH",
"527 239 OFFCURVE",
"561 290 OFFCURVE",
"543 333 CURVE",
"538 334 LINE",
"533 325 OFFCURVE",
"522 316 OFFCURVE",
"504 316 CURVE SMOOTH",
"489 316 OFFCURVE",
"467 327 OFFCURVE",
"467 351 CURVE SMOOTH",
"467 375 OFFCURVE",
"483 396 OFFCURVE",
"514 396 CURVE SMOOTH",
"542 396 OFFCURVE",
"583 375 OFFCURVE",
"583 312 CURVE SMOOTH",
"583 239 OFFCURVE",
"521 191 OFFCURVE",
"437 191 CURVE SMOOTH",
"348 191 OFFCURVE",
"286 257 OFFCURVE",
"286 320 CURVE SMOOTH",
"286 346 OFFCURVE",
"288 368 OFFCURVE",
"295 390 CURVE",
"278 361 OFFCURVE",
"270 325 OFFCURVE",
"270 288 CURVE SMOOTH",
"270 167 LINE SMOOTH"
);
},
{
closed = 1;
nodes = (
"10 410 OFFCURVE",
"34 429 OFFCURVE",
"56 429 CURVE SMOOTH",
"77 429 OFFCURVE",
"92 414 OFFCURVE",
"92 397 CURVE SMOOTH",
"92 379 OFFCURVE",
"79 366 OFFCURVE",
"61 366 CURVE",
"55 367 LINE",
"55 349 OFFCURVE",
"76 333 OFFCURVE",
"97 333 CURVE SMOOTH",
"122 333 OFFCURVE",
"143 342 OFFCURVE",
"162 361 CURVE",
"211 385 LINE",
"211 344 OFFCURVE",
"137 301 OFFCURVE",
"92 301 CURVE SMOOTH",
"48 301 OFFCURVE",
"10 338 OFFCURVE",
"10 379 CURVE SMOOTH"
);
}
);
width = 812;
},
{
associatedMasterId = "FF6A36D6-AC67-41FE-A58D-2D1E84E0ACD0";
layerId = "87161DD3-ACA9-4DA9-B9D7-CB4F636F91B1";
width = 600;
},
{
layerId = "878EBA0B-B3D3-4EA2-BB74-EB37BB03E3E9";
paths = (
{
closed = 1;
nodes = (
"334 536 OFFCURVE",
"405 521 OFFCURVE",
"431 515 CURVE",
"463 536 OFFCURVE",
"490 550 OFFCURVE",
"490 604 CURVE SMOOTH",
"490 644 OFFCURVE",
"466 678 OFFCURVE",
"419 678 CURVE SMOOTH",
"354 678 OFFCURVE",
"334 637 OFFCURVE",
"334 596 CURVE SMOOTH"
);
},
{
closed = 1;
nodes = (
"277 422 LINE",
"202 379 OFFCURVE",
"170 326 OFFCURVE",
"170 257 CURVE SMOOTH",
"170 202 LINE SMOOTH",
"170 64 OFFCURVE",
"321 13 OFFCURVE",
"421 13 CURVE SMOOTH",
"530 13 OFFCURVE",
"662 72 OFFCURVE",
"662 202 CURVE SMOOTH",
"662 257 LINE SMOOTH",
"662 381 OFFCURVE",
"542 447 OFFCURVE",
"432 479 CURVE",
"374 439 OFFCURVE",
"327 402 OFFCURVE",
"327 332 CURVE SMOOTH",
"327 281 OFFCURVE",
"351 229 OFFCURVE",
"419 229 CURVE SMOOTH",
"497 229 OFFCURVE",
"524 305 OFFCURVE",
"503 343 CURVE",
"498 344 LINE",
"493 335 OFFCURVE",
"488 329 OFFCURVE",
"476 329 CURVE SMOOTH",
"465 329 OFFCURVE",
"452 339 OFFCURVE",
"452 354 CURVE SMOOTH",
"452 371 OFFCURVE",
"465 388 OFFCURVE",
"489 388 CURVE SMOOTH",
"508 388 OFFCURVE",
"540 375 OFFCURVE",
"540 312 CURVE SMOOTH",
"540 239 OFFCURVE",
"479 199 OFFCURVE",
"420 199 CURVE SMOOTH",
"334 199 OFFCURVE",
"277 257 OFFCURVE",
"277 332 CURVE SMOOTH",
"277 400 OFFCURVE",
"333 444 OFFCURVE",
"398 492 CURVE",
"323 516 OFFCURVE",
"302 555 OFFCURVE",
"302 596 CURVE SMOOTH",
"302 655 OFFCURVE",
"357 702 OFFCURVE",
"419 702 CURVE SMOOTH",
"497 702 OFFCURVE",
"540 655 OFFCURVE",
"540 607 CURVE SMOOTH",
"540 558 OFFCURVE",
"500 523 OFFCURVE",
"455 498 CURVE",
"617 447 OFFCURVE",
"732 357 OFFCURVE",
"732 226 CURVE SMOOTH",
"732 115 OFFCURVE",
"612 -12 OFFCURVE",
"421 -12 CURVE SMOOTH",
"226 -12 OFFCURVE",
"100 105 OFFCURVE",
"100 227 CURVE SMOOTH",
"100 321 OFFCURVE",
"160 385 OFFCURVE",
"265 443 CURVE"
);
},
{
closed = 1;
nodes = (
"10 395 OFFCURVE",
"26 410 OFFCURVE",
"44 410 CURVE SMOOTH",
"62 410 OFFCURVE",
"68 397 OFFCURVE",
"68 386 CURVE SMOOTH",
"68 362 OFFCURVE",
"42 359 OFFCURVE",
"37 367 CURVE",
"35 367 LINE",
"27 344 OFFCURVE",
"52 327 OFFCURVE",
"73 327 CURVE SMOOTH",
"114 327 OFFCURVE",
"157 365 OFFCURVE",
"184 385 CURVE",
"207 384 LINE",
"175 341 OFFCURVE",
"116 309 OFFCURVE",
"71 309 CURVE SMOOTH",
"37 309 OFFCURVE",
"10 334 OFFCURVE",
"10 362 CURVE SMOOTH"
);
}
);
width = 762;
}
);
unicode = 10E2;
},
{
color = 3;
glyphname = "un-georgian";
lastChange = "2017-03-23 00:32:23 +0000";
layers = (
{
backgroundImage = {
crop = "{{0, 0}, {213, 305}}";
imagePath = ../mtavruli/un.jpg;
locked = "1";
transform = "{4.382, 0.076, -0.076, 4.382, -82, -211}";
};
layerId = "FF6A36D6-AC67-41FE-A58D-2D1E84E0ACD0";
paths = (
{
closed = 1;
nodes = (
"383 630 OFFCURVE",
"421 667 OFFCURVE",
"472 667 CURVE SMOOTH",
"535 667 OFFCURVE",
"552 608 OFFCURVE",
"552 517 CURVE SMOOTH",
"552 515 OFFCURVE",
"553 195 OFFCURVE",
"553 164 CURVE SMOOTH",
"553 98 OFFCURVE",
"519 23 OFFCURVE",
"437 23 CURVE SMOOTH",
"354 23 OFFCURVE",
"317 88 OFFCURVE",
"317 137 CURVE SMOOTH",
"317 201 LINE SMOOTH",
"317 237 OFFCURVE",
"314 281 OFFCURVE",
"349 303 CURVE",
"335 332 LINE",
"226 322 OFFCURVE",
"148 257 OFFCURVE",
"148 179 CURVE SMOOTH",
"148 91 OFFCURVE",
"256 -12 OFFCURVE",
"427 -12 CURVE SMOOTH",
"604 -12 OFFCURVE",
"723 130 OFFCURVE",
"723 346 CURVE SMOOTH",
"723 570 OFFCURVE",
"647 702 OFFCURVE",
"482 702 CURVE SMOOTH",
"406 702 OFFCURVE",
"372 652 OFFCURVE",
"350 604 CURVE",
"335 662 OFFCURVE",
"273 702 OFFCURVE",
"215 702 CURVE SMOOTH",
"164 702 OFFCURVE",
"138 677 OFFCURVE",
"117 656 CURVE SMOOTH",
"101 640 OFFCURVE",
"85 632 OFFCURVE",
"71 632 CURVE SMOOTH",
"49 632 OFFCURVE",
"25 647 OFFCURVE",
"21 673 CURVE",
"0 673 LINE",
"0 576 OFFCURVE",
"46 510 OFFCURVE",
"131 510 CURVE SMOOTH",
"221 510 OFFCURVE",
"247 608 OFFCURVE",
"290 608 CURVE SMOOTH",
"321 608 OFFCURVE",
"323 582 OFFCURVE",
"323 554 CURVE",
"323 471 LINE",
"323 444 OFFCURVE",
"305 436 OFFCURVE",
"292 436 CURVE",
"292 407 LINE",
"411 407 LINE",
"411 437 LINE",
"393 437 OFFCURVE",
"383 444 OFFCURVE",
"383 471 CURVE",
"383 554 LINE"
);
},
{
closed = 0;
nodes = (
"11 672 LINE"
);
}
);
width = 753;
},
{
associatedMasterId = "FF6A36D6-AC67-41FE-A58D-2D1E84E0ACD0";
layerId = "87161DD3-ACA9-4DA9-B9D7-CB4F636F91B1";
width = 600;
},
{
layerId = "878EBA0B-B3D3-4EA2-BB74-EB37BB03E3E9";
paths = (
{
closed = 1;
nodes = (
"-5 572 OFFCURVE",
"56 533 OFFCURVE",
"105 546 CURVE SMOOTH",
"167 562 OFFCURVE",
"183 662 OFFCURVE",
"243 662 CURVE SMOOTH",
"299 662 OFFCURVE",
"330 588 OFFCURVE",
"331 538 CURVE SMOOTH",
"332 476 LINE",
"330 451 OFFCURVE",
"322 439 OFFCURVE",
"302 439 CURVE",
"302 420 LINE",
"394 420 LINE",
"394 439 LINE",
"371 439 OFFCURVE",
"364 454 OFFCURVE",
"364 487 CURVE SMOOTH",
"364 537 LINE SMOOTH",
"364 551 OFFCURVE",
"367 566 OFFCURVE",
"369 581 CURVE",
"370 586 LINE SMOOTH",
"378 627 OFFCURVE",
"409 678 OFFCURVE",
"466 678 CURVE SMOOTH",
"529 678 OFFCURVE",
"573 601 OFFCURVE",
"573 475 CURVE SMOOTH",
"573 280 LINE SMOOTH",
"573 82 OFFCURVE",
"479 13 OFFCURVE",
"388 13 CURVE SMOOTH",
"288 13 OFFCURVE",
"217 87 OFFCURVE",
"217 164 CURVE SMOOTH",
"217 188 LINE SMOOTH",
"217 237 OFFCURVE",
"256 293 OFFCURVE",
"308 311 CURVE",
"296 332 LINE",
"208 312 OFFCURVE",
"147 249 OFFCURVE",
"147 175 CURVE SMOOTH",
"147 94 OFFCURVE",
"241 -10 OFFCURVE",
"388 -10 CURVE SMOOTH",
"509 -10 OFFCURVE",
"643 82 OFFCURVE",
"643 346 CURVE SMOOTH",
"643 591 OFFCURVE",
"561 702 OFFCURVE",
"466 702 CURVE SMOOTH",
"401 702 OFFCURVE",
"365 663 OFFCURVE",
"349 598 CURVE",
"345 598 LINE",
"330 648 OFFCURVE",
"295 702 OFFCURVE",
"234 702 CURVE SMOOTH",
"156 702 OFFCURVE",
"118 623 OFFCURVE",
"94 597 CURVE SMOOTH",
"64 565 OFFCURVE",
"18 611 OFFCURVE",
"18 651 CURVE",
"0 651 LINE"
);
}
);
width = 679;
}
);
unicode = 10E3;
},
{
color = 3;
glyphname = "phar-georgian";
lastChange = "2017-03-23 01:32:04 +0000";
layers = (
{
layerId = "FF6A36D6-AC67-41FE-A58D-2D1E84E0ACD0";
paths = (
{
closed = 1;
nodes = (
"448 622 OFFCURVE",
"361 702 OFFCURVE",
"244 702 CURVE",
"126 702 OFFCURVE",
"40 620 OFFCURVE",
"40 518 CURVE SMOOTH",
"40 411 OFFCURVE",
"127 332 OFFCURVE",
"244 332 CURVE",
"364 332 OFFCURVE",
"448 412 OFFCURVE",
"448 518 CURVE SMOOTH"
);
},
{
closed = 1;
nodes = (
"306 389 OFFCURVE",
"283 361 OFFCURVE",
"244 361 CURVE SMOOTH",
"205 361 OFFCURVE",
"183 389 OFFCURVE",
"183 432 CURVE SMOOTH",
"183 602 LINE SMOOTH",
"183 644 OFFCURVE",
"205 671 OFFCURVE",
"244 671 CURVE SMOOTH",
"283 671 OFFCURVE",
"306 644 OFFCURVE",
"306 602 CURVE SMOOTH",
"306 434 LINE SMOOTH"
);
},
{
closed = 1;
nodes = (
"172 71 OFFCURVE",
"290 -12 OFFCURVE",
"451 -12 CURVE SMOOTH",
"613 -12 OFFCURVE",
"736 57 OFFCURVE",
"736 197 CURVE SMOOTH",
"736 291 OFFCURVE",
"654 359 OFFCURVE",
"547 387 CURVE",
"674 404 OFFCURVE",
"735 469 OFFCURVE",
"734 546 CURVE SMOOTH",
"733 645 OFFCURVE",
"657 704 OFFCURVE",
"515 702 CURVE SMOOTH",
"435 701 OFFCURVE",
"379 668 OFFCURVE",
"346 641 CURVE",
"362 619 LINE",
"389 632 OFFCURVE",
"426 665 OFFCURVE",
"491 665 CURVE SMOOTH",
"535 665 OFFCURVE",
"568 635 OFFCURVE",
"568 564 CURVE SMOOTH",
"568 484 LINE SMOOTH",
"568 424 OFFCURVE",
"535 403 OFFCURVE",
"512 403 CURVE SMOOTH",
"511 403 LINE SMOOTH",
"487 403 OFFCURVE",
"483 413 OFFCURVE",
"483 431 CURVE",
"459 431 LINE",
"459 343 LINE",
"483 343 LINE",
"483 363 OFFCURVE",
"486 371 OFFCURVE",
"511 371 CURVE SMOOTH",
"512 371 LINE SMOOTH",
"555 371 OFFCURVE",
"566 318 OFFCURVE",
"566 261 CURVE SMOOTH",
"566 165 LINE SMOOTH",
"566 98 OFFCURVE",
"532 24 OFFCURVE",
"451 23 CURVE SMOOTH",
"378 22 OFFCURVE",
"341 88 OFFCURVE",
"341 137 CURVE SMOOTH",
"341 161 LINE SMOOTH",
"341 197 OFFCURVE",
"338 241 OFFCURVE",
"373 263 CURVE",
"359 292 LINE",
"250 282 OFFCURVE",
"172 237 OFFCURVE",
"172 159 CURVE SMOOTH"
);
}
);
width = 825;
},
{
associatedMasterId = "FF6A36D6-AC67-41FE-A58D-2D1E84E0ACD0";
layerId = "87161DD3-ACA9-4DA9-B9D7-CB4F636F91B1";
width = 600;
},
{
layerId = "878EBA0B-B3D3-4EA2-BB74-EB37BB03E3E9";
paths = (
{
closed = 1;
nodes = (
"354 622 OFFCURVE",
"267 702 OFFCURVE",
"170 702 CURVE SMOOTH",
"72 702 OFFCURVE",
"-14 620 OFFCURVE",
"-14 518 CURVE SMOOTH",
"-14 411 OFFCURVE",
"73 332 OFFCURVE",
"170 332 CURVE",
"270 332 OFFCURVE",
"354 412 OFFCURVE",
"354 518 CURVE SMOOTH"
);
},
{
closed = 1;
nodes = (
"282 389 OFFCURVE",
"229 354 OFFCURVE",
"170 354 CURVE SMOOTH",
"111 354 OFFCURVE",
"59 389 OFFCURVE",
"59 482 CURVE SMOOTH",
"59 552 LINE SMOOTH",
"59 644 OFFCURVE",
"111 678 OFFCURVE",
"170 678 CURVE SMOOTH",
"230 678 OFFCURVE",
"282 643 OFFCURVE",
"282 552 CURVE SMOOTH",
"282 484 LINE SMOOTH"
);
},
{
closed = 1;
nodes = (
"137 81 OFFCURVE",
"220 -14 OFFCURVE",
"381 -12 CURVE SMOOTH",
"529 -10 OFFCURVE",
"631 104 OFFCURVE",
"631 208 CURVE SMOOTH",
"631 271 OFFCURVE",
"595 359 OFFCURVE",
"497 387 CURVE",
"612 409 OFFCURVE",
"629 499 OFFCURVE",
"629 546 CURVE SMOOTH",
"629 595 OFFCURVE",
"587 704 OFFCURVE",
"445 702 CURVE SMOOTH",
"365 701 OFFCURVE",
"329 658 OFFCURVE",
"296 641 CURVE",
"312 619 LINE",
"339 632 OFFCURVE",
"366 679 OFFCURVE",
"447 679 CURVE SMOOTH",
"495 679 OFFCURVE",
"563 655 OFFCURVE",
"563 552 CURVE SMOOTH",
"563 504 LINE SMOOTH",
"563 424 OFFCURVE",
"505 403 OFFCURVE",
"462 403 CURVE SMOOTH",
"461 403 LINE SMOOTH",
"437 403 OFFCURVE",
"433 413 OFFCURVE",
"433 431 CURVE",
"409 431 LINE",
"409 343 LINE",
"433 343 LINE",
"433 363 OFFCURVE",
"436 371 OFFCURVE",
"461 371 CURVE SMOOTH",
"462 371 LINE SMOOTH",
"505 371 OFFCURVE",
"561 336 OFFCURVE",
"561 236 CURVE SMOOTH",
"561 193 LINE SMOOTH",
"561 71 OFFCURVE",
"472 14 OFFCURVE",
"381 13 CURVE SMOOTH",
"281 12 OFFCURVE",
"206 75 OFFCURVE",
"206 158 CURVE SMOOTH",
"206 246 OFFCURVE",
"257 263 OFFCURVE",
"281 272 CURVE",
"269 292 LINE",
"174 271 OFFCURVE",
"137 219 OFFCURVE",
"137 158 CURVE SMOOTH"
);
}
);
width = 680;
}
);
unicode = 10E4;
},
{
color = 3;
glyphname = "khar-georgian";
lastChange = "2017-03-23 00:34:28 +0000";
layers = (
{
backgroundImage = {
crop = "{{0, 0}, {182, 261}}";
imagePath = ../mtavruli/qan.jpg;
locked = "1";
transform = "{4.5, 0, 0, 4.5, -118, -304}";
};
layerId = "FF6A36D6-AC67-41FE-A58D-2D1E84E0ACD0";
paths = (
{
closed = 1;
nodes = (
"17 34 OFFCURVE",
"142 -12 OFFCURVE",
"275 -12 CURVE SMOOTH",
"428 -12 OFFCURVE",
"528 65 OFFCURVE",
"528 188 CURVE SMOOTH",
"528 600 LINE SMOOTH",
"528 646 OFFCURVE",
"543 679 OFFCURVE",
"569 679 CURVE",
"569 702 LINE",
"469 702 LINE SMOOTH",
"387.421 702 OFFCURVE",
"372 623 OFFCURVE",
"369 544 CURVE",
"188 570 OFFCURVE",
"118 518.859 OFFCURVE",
"118 444 CURVE SMOOTH",
"118 368 OFFCURVE",
"216 341 OFFCURVE",
"294 365 CURVE",
"305 390 LINE",
"281 390 OFFCURVE",
"261 405 OFFCURVE",
"261 446 CURVE SMOOTH",
"261 490.648 OFFCURVE",
"283 532 OFFCURVE",
"368 517 CURVE",
"368 134 LINE SMOOTH",
"368 65 OFFCURVE",
"326 23 OFFCURVE",
"280 23 CURVE SMOOTH",
"229 23 OFFCURVE",
"187 65 OFFCURVE",
"187 134 CURVE SMOOTH",
"187 162 LINE SMOOTH",
"187 201 OFFCURVE",
"184 241 OFFCURVE",
"207 263 CURVE",
"193 292 LINE",
"129 291 OFFCURVE",
"17 235 OFFCURVE",
"17 148 CURVE SMOOTH"
);
}
);
width = 600;
},
{
associatedMasterId = "FF6A36D6-AC67-41FE-A58D-2D1E84E0ACD0";
backgroundImage = {
crop = "{{0, 0}, {182, 261}}";
imagePath = ../mtavruli/qan.jpg;
locked = "1";
transform = "{4.5, 0, 0, 4.5, -118, -304}";
};
layerId = "A45B500E-20AB-451E-AAFD-F83C271D4E62";
name = "Jan 6 17, 00:56";
paths = (
{
closed = 1;
nodes = (
"17 34 OFFCURVE",
"142 -12 OFFCURVE",
"275 -12 CURVE SMOOTH",
"428 -12 OFFCURVE",
"528 65 OFFCURVE",
"528 188 CURVE SMOOTH",
"528 600 LINE SMOOTH",
"528 646 OFFCURVE",
"543 679 OFFCURVE",
"569 679 CURVE",
"569 702 LINE",
"469 702 LINE SMOOTH",
"387.421 702 OFFCURVE",
"372 643 OFFCURVE",
"369 564 CURVE",
"188 562 OFFCURVE",
"118 518.859 OFFCURVE",
"118 444 CURVE SMOOTH",
"118 368 OFFCURVE",
"216 341 OFFCURVE",
"294 365 CURVE",
"305 390 LINE",
"281 390 OFFCURVE",
"261 405 OFFCURVE",
"261 446 CURVE SMOOTH",
"261 490.648 OFFCURVE",
"283 532 OFFCURVE",
"368 537 CURVE",
"368 492 LINE",
"368 134 LINE SMOOTH",
"368 65 OFFCURVE",
"326 23 OFFCURVE",
"280 23 CURVE SMOOTH",
"229 23 OFFCURVE",
"187 65 OFFCURVE",
"187 134 CURVE SMOOTH",
"187 162 LINE SMOOTH",
"187 201 OFFCURVE",
"193 235 OFFCURVE",
"216 257 CURVE",
"197 292 LINE",
"133 291 OFFCURVE",
"17 235 OFFCURVE",
"17 148 CURVE SMOOTH"
);
}
);
width = 600;
},
{
associatedMasterId = "FF6A36D6-AC67-41FE-A58D-2D1E84E0ACD0";
layerId = "87161DD3-ACA9-4DA9-B9D7-CB4F636F91B1";
width = 600;
},
{
layerId = "878EBA0B-B3D3-4EA2-BB74-EB37BB03E3E9";
paths = (
{
closed = 1;
nodes = (
"499 702 LINE SMOOTH",
"444 702 OFFCURVE",
"406 650 OFFCURVE",
"406 576 CURVE SMOOTH",
"406 459 OFFCURVE",
"406 450 OFFCURVE",
"406 415 CURVE SMOOTH",
"406 164 LINE SMOOTH",
"406 66 OFFCURVE",
"326 13 OFFCURVE",
"243 13 CURVE SMOOTH",
"163 13 OFFCURVE",
"90 66 OFFCURVE",
"90 139 CURVE SMOOTH",
"90 164 LINE SMOOTH",
"90 214 OFFCURVE",
"113 259 OFFCURVE",
"165 275 CURVE",
"153 294 LINE",
"90 277 OFFCURVE",
"20 243 OFFCURVE",
"20 159 CURVE SMOOTH",
"20 72 OFFCURVE",
"104 -10 OFFCURVE",
"240 -10 CURVE SMOOTH",
"390 -10 OFFCURVE",
"463 98 OFFCURVE",
"463 219 CURVE SMOOTH",
"463 568 LINE SMOOTH",
"463 642 OFFCURVE",
"457 678 OFFCURVE",
"512 678 CURVE",
"512 678 OFFCURVE",
"513 679 OFFCURVE",
"512 702 CURVE"
);
},
{
closed = 1;
nodes = (
"428 535 LINE",
"394 535 OFFCURVE",
"342 546 OFFCURVE",
"293 546 CURVE SMOOTH",
"188 546 OFFCURVE",
"132 512 OFFCURVE",
"132 450 CURVE SMOOTH",
"132 395 OFFCURVE",
"193 389 OFFCURVE",
"198 389 CURVE",
"208 408 LINE",
"213 408 OFFCURVE",
"184 411 OFFCURVE",
"184 450 CURVE SMOOTH",
"184 494 OFFCURVE",
"240 521 OFFCURVE",
"293 521 CURVE SMOOTH",
"333 521 OFFCURVE",
"396 512 OFFCURVE",
"428 505 CURVE"
);
}
);
width = 542;
}
);
unicode = 10E5;
},
{
color = 3;
glyphname = "ghan-georgian";
lastChange = "2017-03-23 00:55:44 +0000";
layers = (
{
layerId = "FF6A36D6-AC67-41FE-A58D-2D1E84E0ACD0";
paths = (
{
closed = 1;
nodes = (
"535 310 OFFCURVE",
"520 310 OFFCURVE",
"503 324 CURVE",
"484 294 LINE",
"505 276 OFFCURVE",
"538 263 OFFCURVE",
"585 263 CURVE SMOOTH",
"701 263 OFFCURVE",
"792 350 OFFCURVE",
"792 484 CURVE SMOOTH",
"792 588 OFFCURVE",
"698 702 OFFCURVE",
"563 702 CURVE SMOOTH",
"491 702 OFFCURVE",
"436 675 OFFCURVE",
"395 623 CURVE",
"395 624 LINE",
"354 673 OFFCURVE",
"309 702 OFFCURVE",
"228 702 CURVE SMOOTH",
"103 702 OFFCURVE",
"0 610 OFFCURVE",
"0 486 CURVE SMOOTH",
"0 357 OFFCURVE",
"79 264 OFFCURVE",
"261 238 CURVE SMOOTH",
"268 237 LINE",
"222 220 OFFCURVE",
"175 178 OFFCURVE",
"175 126 CURVE SMOOTH",
"175 90 OFFCURVE",
"199 57 OFFCURVE",
"238 57 CURVE SMOOTH",
"266 57 OFFCURVE",
"289 79 OFFCURVE",
"289 105 CURVE SMOOTH",
"289 131 OFFCURVE",
"268 152 OFFCURVE",
"242 152 CURVE SMOOTH",
"233 152 OFFCURVE",
"224 149 OFFCURVE",
"217 145 CURVE",
"217 164 OFFCURVE",
"243 209 OFFCURVE",
"338 209 CURVE SMOOTH",
"382 209 OFFCURVE",
"458 178 OFFCURVE",
"458 98 CURVE SMOOTH",
"458 54 OFFCURVE",
"427 29 OFFCURVE",
"416 24 CURVE",
"427 0 LINE",
"643 0 LINE",
"597 149 OFFCURVE",
"486 206 OFFCURVE",
"406 233 CURVE SMOOTH",
"281 275 OFFCURVE",
"170 299 OFFCURVE",
"170 499 CURVE SMOOTH",
"170 578 OFFCURVE",
"182 666 OFFCURVE",
"246 666 CURVE SMOOTH",
"306 666 OFFCURVE",
"327 608 OFFCURVE",
"327 519 CURVE SMOOTH",
"327 456 LINE SMOOTH",
"327 433 OFFCURVE",
"318 423 OFFCURVE",
"298 420 CURVE",
"298 395 LINE",
"493 395 LINE",
"493 420 LINE",
"473 423 OFFCURVE",
"464 436 OFFCURVE",
"464 456 CURVE SMOOTH",
"464 519 LINE SMOOTH",
"464 608 OFFCURVE",
"485 666 OFFCURVE",
"545 666 CURVE SMOOTH",
"596 666 OFFCURVE",
"622 608 OFFCURVE",
"622 499 CURVE SMOOTH",
"622 378 OFFCURVE",
"605 310 OFFCURVE",
"548 310 CURVE SMOOTH"
);
}
);
width = 800;
},
{
associatedMasterId = "FF6A36D6-AC67-41FE-A58D-2D1E84E0ACD0";
layerId = "87161DD3-ACA9-4DA9-B9D7-CB4F636F91B1";
width = 600;
},
{
layerId = "878EBA0B-B3D3-4EA2-BB74-EB37BB03E3E9";
paths = (
{
closed = 1;
nodes = (
"20 357 OFFCURVE",
"138 257 OFFCURVE",
"270 231 CURVE",
"271 225 LINE",
"205 214 OFFCURVE",
"174 168 OFFCURVE",
"174 132 CURVE SMOOTH",
"174 108 OFFCURVE",
"189 93 OFFCURVE",
"206 93 CURVE SMOOTH",
"224 93 OFFCURVE",
"237 103 OFFCURVE",
"237 119 CURVE SMOOTH",
"237 137 OFFCURVE",
"228 146 OFFCURVE",
"214 146 CURVE SMOOTH",
"206 146 OFFCURVE",
"205 140 OFFCURVE",
"201 140 CURVE",
"201 190 OFFCURVE",
"285 214 OFFCURVE",
"344 208 CURVE SMOOTH",
"392 200 OFFCURVE",
"459 163 OFFCURVE",
"487 100 CURVE SMOOTH",
"517 31 OFFCURVE",
"486 29 OFFCURVE",
"475 24 CURVE",
"486 0 LINE",
"562 0 LINE",
"541 132 OFFCURVE",
"457 198 OFFCURVE",
"355 230 CURVE SMOOTH",
"245 265 OFFCURVE",
"90 299 OFFCURVE",
"90 499 CURVE SMOOTH",
"90 608 OFFCURVE",
"156 678 OFFCURVE",
"245 678 CURVE SMOOTH",
"312.108 678 OFFCURVE",
"375 610 OFFCURVE",
"375 561 CURVE SMOOTH",
"375 489 LINE SMOOTH",
"375 456 OFFCURVE",
"368 440 OFFCURVE",
"345 440 CURVE",
"345 421 LINE",
"437 421 LINE",
"437 440 LINE",
"414 440 OFFCURVE",
"407 456 OFFCURVE",
"407 489 CURVE SMOOTH",
"407 561 LINE SMOOTH",
"407 609 OFFCURVE",
"465.989 678 OFFCURVE",
"547 678 CURVE SMOOTH",
"637 678 OFFCURVE",
"683 626 OFFCURVE",
"683 515 CURVE SMOOTH",
"683 458 LINE SMOOTH",
"683 359 OFFCURVE",
"637 303 OFFCURVE",
"562 303 CURVE SMOOTH",
"536 303 OFFCURVE",
"516 313 OFFCURVE",
"500 324 CURVE",
"485 301 LINE",
"504 288 OFFCURVE",
"530 277 OFFCURVE",
"562 277 CURVE SMOOTH",
"696 277 OFFCURVE",
"753 383 OFFCURVE",
"753 492 CURVE SMOOTH",
"753 578 OFFCURVE",
"699 702 OFFCURVE",
"547 702 CURVE SMOOTH",
"459.841 702 OFFCURVE",
"412 658 OFFCURVE",
"391.158 601.33 CURVE",
"367 658 OFFCURVE",
"307 702 OFFCURVE",
"243 702 CURVE SMOOTH",
"91 702 OFFCURVE",
"20 578 OFFCURVE",
"20 486 CURVE SMOOTH"
);
}
);
width = 783;
}
);
unicode = 10E6;
},
{
color = 3;
glyphname = "qar-georgian";
lastChange = "2017-03-23 00:47:44 +0000";
layers = (
{
layerId = "FF6A36D6-AC67-41FE-A58D-2D1E84E0ACD0";
paths = (
{
closed = 1;
nodes = (
"20 80 OFFCURVE",
"134 -12 OFFCURVE",
"289 -13 CURVE SMOOTH",
"467 -14 OFFCURVE",
"556 80 OFFCURVE",
"556 188 CURVE SMOOTH",
"556 690 LINE",
"396 690 LINE",
"396 490 LINE SMOOTH",
"396 429 OFFCURVE",
"367 395 OFFCURVE",
"318 395 CURVE SMOOTH",
"267 395 OFFCURVE",
"233 427 OFFCURVE",
"233 490 CURVE SMOOTH",
"233 574 LINE SMOOTH",
"233 620 OFFCURVE",
"248 654 OFFCURVE",
"280 676 CURVE",
"257 700 LINE",
"149 688 OFFCURVE",
"65 611 OFFCURVE",
"65 513 CURVE SMOOTH",
"65 395 OFFCURVE",
"202 357 OFFCURVE",
"280 357 CURVE SMOOTH",
"328 357 OFFCURVE",
"378 370 OFFCURVE",
"396 393 CURVE",
"396 133 LINE SMOOTH",
"396 61 OFFCURVE",
"346 22 OFFCURVE",
"291 22 CURVE SMOOTH",
"233 22 OFFCURVE",
"190 61 OFFCURVE",
"190 136 CURVE SMOOTH",
"190 200 LINE SMOOTH",
"190 236 OFFCURVE",
"185 280 OFFCURVE",
"220 302 CURVE",
"206 331 LINE",
"101 317 OFFCURVE",
"20 249 OFFCURVE",
"20 177 CURVE SMOOTH"
);
}
);
width = 566;
},
{
associatedMasterId = "FF6A36D6-AC67-41FE-A58D-2D1E84E0ACD0";
layerId = "87161DD3-ACA9-4DA9-B9D7-CB4F636F91B1";
width = 600;
},
{
layerId = "878EBA0B-B3D3-4EA2-BB74-EB37BB03E3E9";
paths = (
{
closed = 1;
nodes = (
"30 73 OFFCURVE",
"118 -10 OFFCURVE",
"256 -10 CURVE SMOOTH",
"378 -10 OFFCURVE",
"481 75 OFFCURVE",
"481 234 CURVE SMOOTH",
"481 690 LINE",
"431 690 LINE",
"431 520 LINE SMOOTH",
"431 439 OFFCURVE",
"361 385 OFFCURVE",
"286 385 CURVE SMOOTH",
"235 385 OFFCURVE",
"163 421 OFFCURVE",
"163 504 CURVE SMOOTH",
"163 544 LINE SMOOTH",
"163 620 OFFCURVE",
"215 667 OFFCURVE",
"247 683 CURVE",
"232 700 LINE",
"189 683 OFFCURVE",
"103 612 OFFCURVE",
"103 524 CURVE SMOOTH",
"103 406 OFFCURVE",
"208 357 OFFCURVE",
"286 357 CURVE SMOOTH",
"354 357 OFFCURVE",
"394 389 OFFCURVE",
"431 439 CURVE",
"431 212 LINE SMOOTH",
"431 56 OFFCURVE",
"331 13 OFFCURVE",
"256 13 CURVE SMOOTH",
"155 13 OFFCURVE",
"100 66 OFFCURVE",
"100 172 CURVE SMOOTH",
"100 244 OFFCURVE",
"141 288 OFFCURVE",
"193 302 CURVE",
"179 331 LINE",
"74 298 OFFCURVE",
"30 242 OFFCURVE",
"30 170 CURVE SMOOTH"
);
}
);
width = 511;
}
);
unicode = 10E7;
},
{
color = 3;
glyphname = "shin-georgian";
lastChange = "2017-03-22 23:59:17 +0000";
layers = (
{
layerId = "FF6A36D6-AC67-41FE-A58D-2D1E84E0ACD0";
paths = (
{
closed = 1;
nodes = (
"40 486 OFFCURVE",
"107 426 OFFCURVE",
"215 426 CURVE",
"215 449 LINE",
"183 461 OFFCURVE",
"185 523 OFFCURVE",
"185 557 CURVE SMOOTH",
"185 616 OFFCURVE",
"214 661 OFFCURVE",
"256 661 CURVE SMOOTH",
"297 661 OFFCURVE",
"320 629 OFFCURVE",
"320 585 CURVE SMOOTH",
"320 565 LINE SMOOTH",
"320 535 OFFCURVE",
"307 517 OFFCURVE",
"286 517 CURVE",
"287 488 LINE",
"394 488 LINE",
"394 518 LINE",
"373 518 OFFCURVE",
"360 535 OFFCURVE",
"360 565 CURVE SMOOTH",
"360 586 LINE SMOOTH",
"360 629 OFFCURVE",
"387 661 OFFCURVE",
"431 661 CURVE SMOOTH",
"477 661 OFFCURVE",
"500 616 OFFCURVE",
"500 545 CURVE SMOOTH",
"500 373 LINE",
"496 373 LINE",
"470 391 OFFCURVE",
"440 407 OFFCURVE",
"386 407 CURVE SMOOTH",
"265 407 OFFCURVE",
"153 314 OFFCURVE",
"153 198 CURVE SMOOTH",
"153 81 OFFCURVE",
"265 -12 OFFCURVE",
"407 -12 CURVE SMOOTH",
"574 -12 OFFCURVE",
"670 130 OFFCURVE",
"670 346 CURVE SMOOTH",
"670 537 OFFCURVE",
"615 703 OFFCURVE",
"442 703 CURVE SMOOTH",
"395 703 OFFCURVE",
"353 676 OFFCURVE",
"340 637 CURVE",
"338 637 LINE",
"326 676 OFFCURVE",
"275 702 OFFCURVE",
"219 702 CURVE SMOOTH",
"94 702 OFFCURVE",
"40 626 OFFCURVE",
"40 557 CURVE SMOOTH"
);
},
{
closed = 1;
nodes = (
"323 257 LINE SMOOTH",
"323 322 OFFCURVE",
"360 362 OFFCURVE",
"414 362 CURVE SMOOTH",
"445 362 OFFCURVE",
"477 344 OFFCURVE",
"503 314 CURVE",
"503 134 LINE SMOOTH",
"503 68 OFFCURVE",
"468 23 OFFCURVE",
"414 23 CURVE SMOOTH",
"360 23 OFFCURVE",
"323 68 OFFCURVE",
"323 134 CURVE SMOOTH"
);
}
);
width = 690;
},
{
associatedMasterId = "FF6A36D6-AC67-41FE-A58D-2D1E84E0ACD0";
layerId = "87161DD3-ACA9-4DA9-B9D7-CB4F636F91B1";
width = 600;
},
{
layerId = "878EBA0B-B3D3-4EA2-BB74-EB37BB03E3E9";
paths = (
{
closed = 1;
nodes = (
"30 486 OFFCURVE",
"76 426 OFFCURVE",
"155 426 CURVE",
"155 449 LINE",
"124 454 OFFCURVE",
"85 476 OFFCURVE",
"85 557 CURVE SMOOTH",
"85 616 OFFCURVE",
"114 673 OFFCURVE",
"185 673 CURVE SMOOTH",
"236 673 OFFCURVE",
"279 629 OFFCURVE",
"279 585 CURVE SMOOTH",
"279 565 LINE SMOOTH",
"279 523 OFFCURVE",
"272 508 OFFCURVE",
"249 508 CURVE",
"249 489 LINE",
"341 489 LINE",
"341 508 LINE",
"318 508 OFFCURVE",
"311 523 OFFCURVE",
"311 565 CURVE SMOOTH",
"311 586 LINE SMOOTH",
"311 629 OFFCURVE",
"347 678 OFFCURVE",
"401 678 CURVE SMOOTH",
"437 678 OFFCURVE",
"505 667 OFFCURVE",
"505 485 CURVE SMOOTH",
"505 340 LINE",
"501 340 LINE",
"463 394 OFFCURVE",
"401 421 OFFCURVE",
"347 421 CURVE SMOOTH",
"227 421 OFFCURVE",
"128 324 OFFCURVE",
"128 208 CURVE SMOOTH",
"128 81 OFFCURVE",
"223 -10 OFFCURVE",
"350 -10 CURVE SMOOTH",
"479 -10 OFFCURVE",
"575 112 OFFCURVE",
"575 356 CURVE SMOOTH",
"575 547 OFFCURVE",
"533 703 OFFCURVE",
"401 703 CURVE SMOOTH",
"349 703 OFFCURVE",
"318 676 OFFCURVE",
"295 637 CURVE",
"293 637 LINE",
"271 676 OFFCURVE",
"230 702 OFFCURVE",
"184 702 CURVE SMOOTH",
"82 702 OFFCURVE",
"30 626 OFFCURVE",
"30 557 CURVE SMOOTH"
);
},
{
closed = 1;
nodes = (
"200 315 OFFCURVE",
"241 395 OFFCURVE",
"347 395 CURVE SMOOTH",
"442 395 OFFCURVE",
"506 322 OFFCURVE",
"506 219 CURVE SMOOTH",
"506 112 OFFCURVE",
"448 13 OFFCURVE",
"350 13 CURVE SMOOTH",
"245 13 OFFCURVE",
"200 112 OFFCURVE",
"200 186 CURVE SMOOTH",
"200 235 LINE SMOOTH"
);
}
);
width = 605;
}
);
unicode = 10E8;
},
{
color = 3;
glyphname = "chin-georgian";
lastChange = "2017-03-23 00:44:05 +0000";
layers = (
{
layerId = "FF6A36D6-AC67-41FE-A58D-2D1E84E0ACD0";
paths = (
{
closed = 1;
nodes = (
"213 0 LINE",
"211.185 305.754 LINE",
"217.94 315.445 OFFCURVE",
"253.141 362 OFFCURVE",
"306 362 CURVE SMOOTH",
"362 362 OFFCURVE",
"393 302 OFFCURVE",
"393 237 CURVE SMOOTH",
"393 174 LINE SMOOTH",
"393 74 OFFCURVE",
"349 37 OFFCURVE",
"332 28 CURVE",
"332 1 LINE",
"462 1 OFFCURVE",
"563 81 OFFCURVE",
"563 198 CURVE SMOOTH",
"563 312.559 OFFCURVE",
"448.889 403.71 OFFCURVE",
"332.398 405.957 CURVE",
"409.02 442.318 OFFCURVE",
"485 483.767 OFFCURVE",
"485 576 CURVE SMOOTH",
"485 639 OFFCURVE",
"447 701 OFFCURVE",
"311 701 CURVE SMOOTH",
"150 701 OFFCURVE",
"65 617 OFFCURVE",
"65 454 CURVE SMOOTH",
"65 0 LINE"
);
},
{
closed = 1;
nodes = (
"197.809 364.083 LINE",
"196.615 365.939 OFFCURVE",
"196 368.837 OFFCURVE",
"196 373 CURVE"
);
},
{
closed = 1;
nodes = (
"208 527 OFFCURVE",
"204 677 OFFCURVE",
"296 677 CURVE SMOOTH",
"353 677 OFFCURVE",
"366 627 OFFCURVE",
"366 576 CURVE SMOOTH",
"366 510 OFFCURVE",
"340 468 OFFCURVE",
"272 409 CURVE SMOOTH",
"208 353 LINE"
);
}
);
width = 600;
},
{
associatedMasterId = "FF6A36D6-AC67-41FE-A58D-2D1E84E0ACD0";
layerId = "6F5A5FB9-9C69-4240-9A0E-74322434073F";
name = "Jan 10 17, 22:45";
paths = (
{
closed = 1;
nodes = (
"201 496 OFFCURVE",
"204 677 OFFCURVE",
"295 677 CURVE SMOOTH",
"353 677 OFFCURVE",
"366 628 OFFCURVE",
"366 575 CURVE SMOOTH",
"366 501 OFFCURVE",
"306 428 OFFCURVE",
"208 353 CURVE"
);
},
{
closed = 1;
nodes = (
"485 639 OFFCURVE",
"447 701 OFFCURVE",
"311 701 CURVE",
"150 701 OFFCURVE",
"65 617 OFFCURVE",
"65 454 CURVE SMOOTH",
"65 361 OFFCURVE",
"65 56 OFFCURVE",
"65 0 CURVE",
"213 0 LINE",
"213 36 LINE",
"211 337 LINE",
"366 434 OFFCURVE",
"485 459 OFFCURVE",
"485 576 CURVE SMOOTH"
);
},
{
closed = 1;
nodes = (
"250 406 OFFCURVE",
"210 321 OFFCURVE",
"210 360 CURVE",
"210 304 LINE",
"210 304 OFFCURVE",
"247 362 OFFCURVE",
"306 362 CURVE SMOOTH",
"362 362 OFFCURVE",
"393 302 OFFCURVE",
"393 237 CURVE SMOOTH",
"393 195 OFFCURVE",
"393 199 OFFCURVE",
"393 174 CURVE SMOOTH",
"393 74 OFFCURVE",
"349 37 OFFCURVE",
"332 28 CURVE",
"332 1 LINE",
"462 1 OFFCURVE",
"563 81 OFFCURVE",
"563 198 CURVE SMOOTH",
"563 314 OFFCURVE",
"446 406 OFFCURVE",
"328 406 CURVE"
);
}
);
width = 600;
},
{
associatedMasterId = "FF6A36D6-AC67-41FE-A58D-2D1E84E0ACD0";
layerId = "87161DD3-ACA9-4DA9-B9D7-CB4F636F91B1";
width = 600;
},
{
layerId = "878EBA0B-B3D3-4EA2-BB74-EB37BB03E3E9";
paths = (
{
closed = 1;
nodes = (
"88 0 LINE",
"85 302 LINE",
"118 329 OFFCURVE",
"158 380 OFFCURVE",
"256 380 CURVE SMOOTH",
"317 380 OFFCURVE",
"378 332 OFFCURVE",
"378 237 CURVE SMOOTH",
"378 193 LINE SMOOTH",
"378 93 OFFCURVE",
"301 47 OFFCURVE",
"257 28 CURVE",
"257 1 LINE",
"365 33 OFFCURVE",
"448 105 OFFCURVE",
"448 215 CURVE SMOOTH",
"448 313 OFFCURVE",
"374 422 OFFCURVE",
"217 406 CURVE",
"294 442 OFFCURVE",
"340 514 OFFCURVE",
"340 576 CURVE SMOOTH",
"340 623 OFFCURVE",
"319 701 OFFCURVE",
"202 701 CURVE SMOOTH",
"127 701 OFFCURVE",
"30 654 OFFCURVE",
"30 454 CURVE SMOOTH",
"30 0 LINE"
);
},
{
closed = 1;
nodes = (
"82 491 LINE SMOOTH",
"81 615 OFFCURVE",
"121 678 OFFCURVE",
"201 678 CURVE SMOOTH",
"278 678 OFFCURVE",
"291 607 OFFCURVE",
"291 572 CURVE SMOOTH",
"291 514 OFFCURVE",
"256 449 OFFCURVE",
"177 405 CURVE SMOOTH",
"83 353 LINE"
);
}
);
width = 478;
}
);
unicode = 10E9;
},
{
color = 3;
glyphname = "can-georgian";
lastChange = "2017-03-22 23:59:34 +0000";
layers = (
{
background = {
paths = (
{
closed = 1;
nodes = (
"1233 551 OFFCURVE",
"1115 702 OFFCURVE",
"950 702 CURVE SMOOTH",
"786 702 OFFCURVE",
"667 556 OFFCURVE",
"667 355 CURVE SMOOTH",
"667 140 OFFCURVE",
"786 -11 OFFCURVE",
"950 -11 CURVE SMOOTH",
"1115 -11 OFFCURVE",
"1233 135 OFFCURVE",
"1233 347 CURVE"
);
},
{
closed = 1;
nodes = (
"1063 102 OFFCURVE",
"1020 22 OFFCURVE",
"950 22 CURVE SMOOTH",
"880 22 OFFCURVE",
"837 102 OFFCURVE",
"837 183 CURVE SMOOTH",
"837 498 LINE SMOOTH",
"837 599 OFFCURVE",
"880 669 OFFCURVE",
"950 669 CURVE SMOOTH",
"1014 669 OFFCURVE",
"1063 599 OFFCURVE",
"1063 498 CURVE SMOOTH",
"1063 183 LINE"
);
}
);
};
layerId = "FF6A36D6-AC67-41FE-A58D-2D1E84E0ACD0";
paths = (
{
closed = 1;
nodes = (
"475 380 LINE",
"564 380 OFFCURVE",
"612 410 OFFCURVE",
"612 476 CURVE SMOOTH",
"612 544 OFFCURVE",
"526 582 OFFCURVE",
"476 609 CURVE SMOOTH",
"415 642 OFFCURVE",
"427 670 OFFCURVE",
"432 702 CURVE",
"419 702 LINE",
"387 664 OFFCURVE",
"368 630 OFFCURVE",
"368 603 CURVE SMOOTH",
"368 580 OFFCURVE",
"376 548 OFFCURVE",
"417 525 CURVE SMOOTH",
"465 498 OFFCURVE",
"482 479 OFFCURVE",
"482 451 CURVE SMOOTH",
"482 421 OFFCURVE",
"455 393 OFFCURVE",
"398 393 CURVE",
"368 393 LINE",
"368 363 LINE",
"398 363 LINE",
"484 363 OFFCURVE",
"483 290 OFFCURVE",
"483 250 CURVE",
"483 205 LINE",
"482 98 OFFCURVE",
"438 24 OFFCURVE",
"336 24 CURVE SMOOTH",
"240 24 OFFCURVE",
"186 98 OFFCURVE",
"186 205 CURVE SMOOTH",
"186 403 LINE SMOOTH",
"186 516 OFFCURVE",
"211 653 OFFCURVE",
"274 655 CURVE",
"274 681 LINE",
"154 680 OFFCURVE",
"12 576 OFFCURVE",
"12 346 CURVE SMOOTH",
"12 110 OFFCURVE",
"165 -11 OFFCURVE",
"336 -11 CURVE SMOOTH",
"510 -11 OFFCURVE",
"652 88 OFFCURVE",
"650 221 CURVE SMOOTH",
"649 302 OFFCURVE",
"564 376 OFFCURVE",
"475 376 CURVE"
);
},
{
closed = 1;
nodes = (
"402 393 LINE",
"399 393 LINE SMOOTH",
"380 393 OFFCURVE",
"370 403 OFFCURVE",
"370 421 CURVE",
"342 421 LINE",
"342 335 LINE",
"370 335 LINE",
"370 355 OFFCURVE",
"380 363 OFFCURVE",
"399 363 CURVE SMOOTH",
"402 363 LINE"
);
}
);
width = 663;
},
{
associatedMasterId = "FF6A36D6-AC67-41FE-A58D-2D1E84E0ACD0";
background = {
paths = (
{
closed = 1;
nodes = (
"1200 551 OFFCURVE",
"1082 702 OFFCURVE",
"917 702 CURVE SMOOTH",
"753 702 OFFCURVE",
"634 556 OFFCURVE",
"634 355 CURVE SMOOTH",
"634 140 OFFCURVE",
"753 -11 OFFCURVE",
"917 -11 CURVE SMOOTH",
"1082 -11 OFFCURVE",
"1200 135 OFFCURVE",
"1200 347 CURVE"
);
},
{
closed = 1;
nodes = (
"1030 102 OFFCURVE",
"987 22 OFFCURVE",
"917 22 CURVE SMOOTH",
"847 22 OFFCURVE",
"804 102 OFFCURVE",
"804 183 CURVE SMOOTH",
"804 498 LINE SMOOTH",
"804 599 OFFCURVE",
"847 669 OFFCURVE",
"917 669 CURVE SMOOTH",
"981 669 OFFCURVE",
"1030 599 OFFCURVE",
"1030 498 CURVE SMOOTH",
"1030 183 LINE"
);
}
);
};
layerId = "1C39CEB2-6BC7-45A7-BE66-FC0645D6291A";
name = "Jan 5 17, 18:47";
paths = (
{
closed = 1;
nodes = (
"422 410 LINE",
"511 417 OFFCURVE",
"560 440 OFFCURVE",
"560 500 CURVE SMOOTH",
"560 564 OFFCURVE",
"486 585 OFFCURVE",
"433 609 CURVE SMOOTH",
"361 642 OFFCURVE",
"384 670 OFFCURVE",
"389 702 CURVE",
"376 702 LINE",
"344 664 OFFCURVE",
"325 630 OFFCURVE",
"325 603 CURVE SMOOTH",
"325 580 OFFCURVE",
"331 541 OFFCURVE",
"374 525 CURVE SMOOTH",
"422 507 OFFCURVE",
"430 492 OFFCURVE",
"430 468 CURVE SMOOTH",
"430 442 OFFCURVE",
"402 423 OFFCURVE",
"345 423 CURVE",
"315 423 LINE",
"315 393 LINE",
"345 393 LINE",
"431 393 OFFCURVE",
"430 320 OFFCURVE",
"430 241 CURVE SMOOTH",
"430 212 OFFCURVE",
"429 190 OFFCURVE",
"429 165 CURVE SMOOTH",
"429 98 OFFCURVE",
"385 24 OFFCURVE",
"303 24 CURVE SMOOTH",
"227 24 OFFCURVE",
"173 98 OFFCURVE",
"173 165 CURVE SMOOTH",
"173 436 LINE SMOOTH",
"173 556 OFFCURVE",
"188 653 OFFCURVE",
"251 655 CURVE",
"251 681 LINE",
"131 680 OFFCURVE",
"-1 542 OFFCURVE",
"-1 354 CURVE SMOOTH",
"-1 146 OFFCURVE",
"132 -11 OFFCURVE",
"303 -11 CURVE SMOOTH",
"477 -11 OFFCURVE",
"603 128 OFFCURVE",
"602 241 CURVE SMOOTH",
"601 352 OFFCURVE",
"529 409 OFFCURVE",
"422 406 CURVE"
);
},
{
closed = 1;
nodes = (
"349 423 LINE",
"346 423 LINE SMOOTH",
"327 423 OFFCURVE",
"317 433 OFFCURVE",
"317 451 CURVE",
"289 451 LINE",
"289 365 LINE",
"317 365 LINE",
"317 385 OFFCURVE",
"327 393 OFFCURVE",
"346 393 CURVE SMOOTH",
"349 393 LINE"
);
},
{
closed = 1;
nodes = (
"1200 551 OFFCURVE",
"1082 702 OFFCURVE",
"917 702 CURVE SMOOTH",
"753 702 OFFCURVE",
"634 556 OFFCURVE",
"634 355 CURVE SMOOTH",
"634 140 OFFCURVE",
"753 -11 OFFCURVE",
"917 -11 CURVE SMOOTH",
"1082 -11 OFFCURVE",
"1200 135 OFFCURVE",
"1200 347 CURVE"
);
},
{
closed = 1;
nodes = (
"1030 102 OFFCURVE",
"987 22 OFFCURVE",
"917 22 CURVE SMOOTH",
"847 22 OFFCURVE",
"804 102 OFFCURVE",
"804 183 CURVE SMOOTH",
"804 498 LINE SMOOTH",
"804 599 OFFCURVE",
"847 669 OFFCURVE",
"917 669 CURVE SMOOTH",
"981 669 OFFCURVE",
"1030 599 OFFCURVE",
"1030 498 CURVE SMOOTH",
"1030 183 LINE"
);
}
);
width = 600;
},
{
associatedMasterId = "FF6A36D6-AC67-41FE-A58D-2D1E84E0ACD0";
background = {
paths = (
{
closed = 1;
nodes = (
"1200 551 OFFCURVE",
"1082 702 OFFCURVE",
"917 702 CURVE SMOOTH",
"753 702 OFFCURVE",
"634 556 OFFCURVE",
"634 355 CURVE SMOOTH",
"634 140 OFFCURVE",
"753 -11 OFFCURVE",
"917 -11 CURVE SMOOTH",
"1082 -11 OFFCURVE",
"1200 135 OFFCURVE",
"1200 347 CURVE"
);
},
{
closed = 1;
nodes = (
"1030 102 OFFCURVE",
"987 22 OFFCURVE",
"917 22 CURVE SMOOTH",
"847 22 OFFCURVE",
"804 102 OFFCURVE",
"804 183 CURVE SMOOTH",
"804 498 LINE SMOOTH",
"804 599 OFFCURVE",
"847 669 OFFCURVE",
"917 669 CURVE SMOOTH",
"981 669 OFFCURVE",
"1030 599 OFFCURVE",
"1030 498 CURVE SMOOTH",
"1030 183 LINE"
);
}
);
};
layerId = "EEBE5011-DCE1-4111-A3F3-BEBBCBD30978";
name = "Jan 10 17, 22:49";
paths = (
{
closed = 1;
nodes = (
"422 380 LINE",
"511 380 OFFCURVE",
"560 410 OFFCURVE",
"560 476 CURVE SMOOTH",
"560 544 OFFCURVE",
"486 585 OFFCURVE",
"433 609 CURVE SMOOTH",
"361 642 OFFCURVE",
"384 670 OFFCURVE",
"389 702 CURVE",
"376 702 LINE",
"344 664 OFFCURVE",
"325 630 OFFCURVE",
"325 603 CURVE SMOOTH",
"325 580 OFFCURVE",
"333 548 OFFCURVE",
"374 525 CURVE SMOOTH",
"422 498 OFFCURVE",
"430 479 OFFCURVE",
"430 451 CURVE SMOOTH",
"430 421 OFFCURVE",
"402 393 OFFCURVE",
"345 393 CURVE",
"315 393 LINE",
"315 363 LINE",
"345 363 LINE",
"431 363 OFFCURVE",
"430 290 OFFCURVE",
"430 250 CURVE SMOOTH",
"430 212 OFFCURVE",
"429 230 OFFCURVE",
"429 205 CURVE SMOOTH",
"429 98 OFFCURVE",
"385 24 OFFCURVE",
"303 24 CURVE SMOOTH",
"227 24 OFFCURVE",
"173 98 OFFCURVE",
"173 205 CURVE SMOOTH",
"173 403 LINE SMOOTH",
"173 516 OFFCURVE",
"188 653 OFFCURVE",
"251 655 CURVE",
"251 681 LINE",
"131 680 OFFCURVE",
"-1 576 OFFCURVE",
"-1 346 CURVE SMOOTH",
"-1 130 OFFCURVE",
"132 -11 OFFCURVE",
"303 -11 CURVE SMOOTH",
"477 -11 OFFCURVE",
"598 108 OFFCURVE",
"597 241 CURVE SMOOTH",
"596 322 OFFCURVE",
"511 376 OFFCURVE",
"422 376 CURVE"
);
},
{
closed = 1;
nodes = (
"349 393 LINE",
"346 393 LINE SMOOTH",
"327 393 OFFCURVE",
"317 403 OFFCURVE",
"317 421 CURVE",
"289 421 LINE",
"289 335 LINE",
"317 335 LINE",
"317 355 OFFCURVE",
"327 363 OFFCURVE",
"346 363 CURVE SMOOTH",
"349 363 LINE"
);
}
);
width = 600;
},
{
associatedMasterId = "FF6A36D6-AC67-41FE-A58D-2D1E84E0ACD0";
layerId = "87161DD3-ACA9-4DA9-B9D7-CB4F636F91B1";
width = 600;
},
{
layerId = "878EBA0B-B3D3-4EA2-BB74-EB37BB03E3E9";
paths = (
{
closed = 1;
nodes = (
"23 109 OFFCURVE",
"182 -10 OFFCURVE",
"316 -10 CURVE SMOOTH",
"448 -10 OFFCURVE",
"583 82 OFFCURVE",
"583 209 CURVE SMOOTH",
"583 289 OFFCURVE",
"534 363 OFFCURVE",
"428 378 CURVE",
"426 381 LINE",
"468 389 OFFCURVE",
"552 395 OFFCURVE",
"552 465 CURVE SMOOTH",
"552 516 OFFCURVE",
"511 543 OFFCURVE",
"448 573 CURVE SMOOTH",
"384 604 OFFCURVE",
"375 621 OFFCURVE",
"402 678 CURVE",
"386 690 LINE",
"363 658 OFFCURVE",
"335 603 OFFCURVE",
"412 558 CURVE SMOOTH",
"464 528 OFFCURVE",
"495 499 OFFCURVE",
"495 465 CURVE SMOOTH",
"495 405 OFFCURVE",
"432 390 OFFCURVE",
"383 391 CURVE SMOOTH",
"334 392 LINE",
"334 363 LINE",
"355 363 OFFCURVE",
"362 365 OFFCURVE",
"382 365 CURVE SMOOTH",
"493 365 OFFCURVE",
"515 296 OFFCURVE",
"513 219 CURVE SMOOTH",
"512 185 LINE SMOOTH",
"509 76 OFFCURVE",
"410 14 OFFCURVE",
"318 13 CURVE SMOOTH",
"191 12 OFFCURVE",
"93 129 OFFCURVE",
"93 322 CURVE SMOOTH",
"93 391 LINE SMOOTH",
"93 528 OFFCURVE",
"172 639 OFFCURVE",
"244 659 CURVE",
"244 685 LINE",
"170 675 OFFCURVE",
"23 548 OFFCURVE",
"23 347 CURVE SMOOTH"
);
},
{
closed = 1;
nodes = (
"317 339 LINE",
"334 339 LINE",
"334 358 OFFCURVE",
"348 365 OFFCURVE",
"378 365 CURVE",
"378 391 LINE",
"348 391 OFFCURVE",
"334 398 OFFCURVE",
"334 417 CURVE",
"317 417 LINE"
);
}
);
width = 613;
}
);
unicode = 10EA;
},
{
color = 3;
glyphname = "jil-georgian";
lastChange = "2017-03-22 23:59:43 +0000";
layers = (
{
layerId = "FF6A36D6-AC67-41FE-A58D-2D1E84E0ACD0";
paths = (
{
closed = 1;
nodes = (
"50 81 OFFCURVE",
"162 -12 OFFCURVE",
"304 -12 CURVE SMOOTH",
"471 -12 OFFCURVE",
"567 130 OFFCURVE",
"567 346 CURVE SMOOTH",
"567 576 OFFCURVE",
"470 702 OFFCURVE",
"319 702 CURVE",
"319 677 OFFCURVE",
"319 677 OFFCURVE",
"319 677 CURVE SMOOTH",
"399 677 OFFCURVE",
"397 583 OFFCURVE",
"397 517 CURVE SMOOTH",
"397 373 LINE",
"393 373 LINE",
"367 391 OFFCURVE",
"337 407 OFFCURVE",
"283 407 CURVE SMOOTH",
"162 407 OFFCURVE",
"50 314 OFFCURVE",
"50 198 CURVE SMOOTH"
);
},
{
closed = 1;
nodes = (
"220 257 LINE SMOOTH",
"220 322 OFFCURVE",
"257 362 OFFCURVE",
"311 362 CURVE SMOOTH",
"342 362 OFFCURVE",
"374 344 OFFCURVE",
"400 314 CURVE",
"400 134 LINE SMOOTH",
"400 68 OFFCURVE",
"365 23 OFFCURVE",
"311 23 CURVE SMOOTH",
"257 23 OFFCURVE",
"220 68 OFFCURVE",
"220 134 CURVE SMOOTH"
);
}
);
width = 600;
},
{
associatedMasterId = "FF6A36D6-AC67-41FE-A58D-2D1E84E0ACD0";
layerId = "87161DD3-ACA9-4DA9-B9D7-CB4F636F91B1";
width = 600;
},
{
layerId = "878EBA0B-B3D3-4EA2-BB74-EB37BB03E3E9";
paths = (
{
closed = 1;
nodes = (
"30 74 OFFCURVE",
"124 -10 OFFCURVE",
"251 -10 CURVE SMOOTH",
"382 -10 OFFCURVE",
"476 112 OFFCURVE",
"476 356 CURVE SMOOTH",
"476 563 OFFCURVE",
"416 701 OFFCURVE",
"302 701 CURVE",
"303 678 LINE",
"366 678 OFFCURVE",
"406 617 OFFCURVE",
"406 485 CURVE SMOOTH",
"406 340 LINE",
"364 394 OFFCURVE",
"306 424 OFFCURVE",
"248 424 CURVE SMOOTH",
"121 424 OFFCURVE",
"30 333 OFFCURVE",
"30 201 CURVE SMOOTH"
);
},
{
closed = 1;
nodes = (
"101 305 OFFCURVE",
"142 395 OFFCURVE",
"248 395 CURVE SMOOTH",
"343 395 OFFCURVE",
"410 333 OFFCURVE",
"407 230 CURVE SMOOTH",
"406 186 LINE SMOOTH",
"406 112 OFFCURVE",
"349 13 OFFCURVE",
"251 13 CURVE SMOOTH",
"146 13 OFFCURVE",
"101 102 OFFCURVE",
"101 176 CURVE SMOOTH",
"101 225 LINE SMOOTH"
);
}
);
width = 506;
}
);
unicode = 10EB;
},
{
color = 3;
glyphname = "cil-georgian";
lastChange = "2017-03-22 23:23:03 +0000";
layers = (
{
layerId = "FF6A36D6-AC67-41FE-A58D-2D1E84E0ACD0";
paths = (
{
closed = 1;
nodes = (
"377 171 OFFCURVE",
"326 116 OFFCURVE",
"286 54 CURVE",
"222 318 LINE",
"253 345 OFFCURVE",
"273 361 OFFCURVE",
"303 361 CURVE SMOOTH",
"358 361 OFFCURVE",
"377 318 OFFCURVE",
"377 262 CURVE SMOOTH"
);
},
{
closed = 0;
nodes = (
"1911 576 LINE"
);
},
{
closed = 1;
nodes = (
"188 485 OFFCURVE",
"189 484 OFFCURVE",
"186 508 CURVE SMOOTH",
"170 628 OFFCURVE",
"209 659 OFFCURVE",
"252 659 CURVE SMOOTH",
"289 659 OFFCURVE",
"324 632 OFFCURVE",
"324 556 CURVE SMOOTH",
"324 543 OFFCURVE",
"321 519 OFFCURVE",
"300 519 CURVE",
"300 489 LINE",
"387 489 LINE",
"388 518 LINE",
"367 518 OFFCURVE",
"364 546 OFFCURVE",
"364 556 CURVE SMOOTH",
"364 632 OFFCURVE",
"407 663 OFFCURVE",
"447 663 CURVE SMOOTH",
"490 663 OFFCURVE",
"518 628 OFFCURVE",
"518 569 CURVE SMOOTH",
"518 509 OFFCURVE",
"520 463 OFFCURVE",
"488 451 CURVE",
"488 428 LINE",
"596 428 OFFCURVE",
"663 472 OFFCURVE",
"663 559 CURVE SMOOTH",
"663 628 OFFCURVE",
"609 704 OFFCURVE",
"483 703 CURVE SMOOTH",
"405 702 OFFCURVE",
"363 671 OFFCURVE",
"345 615 CURVE",
"328 671 OFFCURVE",
"278 701 OFFCURVE",
"221 702 CURVE SMOOTH",
"78 703 OFFCURVE",
"-13 587 OFFCURVE",
"32 413 CURVE SMOOTH",
"71 262 OFFCURVE",
"170 183 OFFCURVE",
"266 0 CURVE",
"297 0 LINE",
"361 101 OFFCURVE",
"537 149 OFFCURVE",
"537 278 CURVE SMOOTH",
"537 387 OFFCURVE",
"426 407 OFFCURVE",
"365 407 CURVE SMOOTH",
"313 407 OFFCURVE",
"262 395 OFFCURVE",
"218 369 CURVE",
"212 368 LINE",
"200 427 LINE SMOOTH"
);
}
);
width = 641;
},
{
associatedMasterId = "FF6A36D6-AC67-41FE-A58D-2D1E84E0ACD0";
layerId = "0AFFA434-445B-4BB9-A6AA-DF853A1DB0B0";
name = "Jan 9 17, 20:15";
paths = (
{
closed = 1;
nodes = (
"348 177 OFFCURVE",
"314 177 OFFCURVE",
"260 68 CURVE",
"185 327 LINE",
"210 352 OFFCURVE",
"236 362 OFFCURVE",
"267 362 CURVE SMOOTH",
"321 362 OFFCURVE",
"348 322 OFFCURVE",
"348 257 CURVE SMOOTH"
);
},
{
closed = 0;
nodes = (
"1911 576 LINE"
);
},
{
closed = 1;
nodes = (
"114 592 OFFCURVE",
"149 669 OFFCURVE",
"216 669 CURVE SMOOTH",
"269 669 OFFCURVE",
"294 632 OFFCURVE",
"294 556 CURVE SMOOTH",
"294 543 OFFCURVE",
"291 519 OFFCURVE",
"270 519 CURVE",
"270 489 LINE",
"377 489 LINE",
"378 518 LINE",
"357 518 OFFCURVE",
"354 546 OFFCURVE",
"354 556 CURVE SMOOTH",
"354 632 OFFCURVE",
"395 669 OFFCURVE",
"431 669 CURVE SMOOTH",
"486 669 OFFCURVE",
"506 617 OFFCURVE",
"506 548 CURVE SMOOTH",
"506 484 OFFCURVE",
"498 432 OFFCURVE",
"466 420 CURVE",
"466 397 LINE",
"574 397 OFFCURVE",
"641 447 OFFCURVE",
"641 548 CURVE SMOOTH",
"641 617 OFFCURVE",
"593 703 OFFCURVE",
"468 703 CURVE SMOOTH",
"396 703 OFFCURVE",
"343 681 OFFCURVE",
"325 615 CURVE",
"312 681 OFFCURVE",
"268 701 OFFCURVE",
"197 702 CURVE SMOOTH",
"61 703 OFFCURVE",
"-37 579 OFFCURVE",
"56 395 CURVE SMOOTH",
"255 0 LINE",
"267 0 LINE",
"327 109 OFFCURVE",
"477 145 OFFCURVE",
"477 270 CURVE SMOOTH",
"477 395 OFFCURVE",
"349 407 OFFCURVE",
"300 407 CURVE SMOOTH",
"246 407 OFFCURVE",
"206 391 OFFCURVE",
"180 373 CURVE SMOOTH",
"176 373 LINE",
"135 517 LINE SMOOTH"
);
}
);
width = 641;
},
{
associatedMasterId = "FF6A36D6-AC67-41FE-A58D-2D1E84E0ACD0";
layerId = "E526BB32-85C3-4165-8FAC-B85C7A96A2B0";
name = "Jan 9 17, 20:51";
paths = (
{
closed = 1;
nodes = (
"377 171 OFFCURVE",
"326 116 OFFCURVE",
"286 54 CURVE",
"222 267 LINE",
"247 308 OFFCURVE",
"263 324 OFFCURVE",
"304 324 CURVE SMOOTH",
"348 324 OFFCURVE",
"377 274 OFFCURVE",
"377 235 CURVE SMOOTH"
);
},
{
closed = 0;
nodes = (
"1911 576 LINE"
);
},
{
closed = 1;
nodes = (
"135 595 OFFCURVE",
"169 669 OFFCURVE",
"232 669 CURVE SMOOTH",
"269 669 OFFCURVE",
"304 632 OFFCURVE",
"304 556 CURVE SMOOTH",
"304 543 OFFCURVE",
"301 519 OFFCURVE",
"280 519 CURVE",
"280 489 LINE",
"387 489 LINE",
"388 518 LINE",
"367 518 OFFCURVE",
"364 546 OFFCURVE",
"364 556 CURVE SMOOTH",
"364 632 OFFCURVE",
"405 669 OFFCURVE",
"441 669 CURVE SMOOTH",
"496 669 OFFCURVE",
"516 617 OFFCURVE",
"516 548 CURVE SMOOTH",
"516 484 OFFCURVE",
"508 452 OFFCURVE",
"476 440 CURVE",
"476 417 LINE",
"584 417 OFFCURVE",
"651 457 OFFCURVE",
"651 558 CURVE SMOOTH",
"651 627 OFFCURVE",
"603 703 OFFCURVE",
"478 703 CURVE SMOOTH",
"406 703 OFFCURVE",
"353 681 OFFCURVE",
"335 615 CURVE",
"318 681 OFFCURVE",
"268 701 OFFCURVE",
"211 702 CURVE SMOOTH",
"68 703 OFFCURVE",
"-50 598 OFFCURVE",
"13 413 CURVE SMOOTH",
"53 295 OFFCURVE",
"115 235 OFFCURVE",
"202 99 CURVE SMOOTH",
"240 40 OFFCURVE",
"253 27 OFFCURVE",
"266 0 CURVE",
"297 0 LINE",
"357 109 OFFCURVE",
"507 145 OFFCURVE",
"507 274 CURVE SMOOTH",
"507 383 OFFCURVE",
"416 407 OFFCURVE",
"357 407 CURVE SMOOTH",
"303 407 OFFCURVE",
"247 382 OFFCURVE",
"222 329 CURVE SMOOTH",
"212 308 LINE",
"180 427 LINE SMOOTH"
);
}
);
width = 641;
},
{
associatedMasterId = "FF6A36D6-AC67-41FE-A58D-2D1E84E0ACD0";
layerId = "87161DD3-ACA9-4DA9-B9D7-CB4F636F91B1";
width = 600;
},
{
layerId = "878EBA0B-B3D3-4EA2-BB74-EB37BB03E3E9";
paths = (
{
closed = 1;
nodes = (
"36 340 OFFCURVE",
"148 236 OFFCURVE",
"246 0 CURVE",
"277 0 LINE",
"341 121 OFFCURVE",
"461 181 OFFCURVE",
"461 287 CURVE SMOOTH",
"461 365 OFFCURVE",
"392 407 OFFCURVE",
"325 407 CURVE SMOOTH",
"253 407 OFFCURVE",
"189 368 OFFCURVE",
"154 332 CURVE",
"148 338 LINE",
"112 441 OFFCURVE",
"99 487 OFFCURVE",
"99 550 CURVE SMOOTH",
"99 660 OFFCURVE",
"159 677 OFFCURVE",
"195 677 CURVE SMOOTH",
"249 677 OFFCURVE",
"285 629 OFFCURVE",
"285 586 CURVE SMOOTH",
"285 565 LINE SMOOTH",
"285 523 OFFCURVE",
"278 508 OFFCURVE",
"255 508 CURVE",
"255 489 LINE",
"347 489 LINE",
"347 508 LINE",
"324 508 OFFCURVE",
"317 523 OFFCURVE",
"317 565 CURVE SMOOTH",
"317 585 LINE SMOOTH",
"317 629 OFFCURVE",
"360 678 OFFCURVE",
"411 678 CURVE SMOOTH",
"482 678 OFFCURVE",
"511 616 OFFCURVE",
"511 557 CURVE SMOOTH",
"511 476 OFFCURVE",
"472 454 OFFCURVE",
"441 449 CURVE",
"441 426 LINE",
"507 426 OFFCURVE",
"570 486 OFFCURVE",
"570 557 CURVE SMOOTH",
"570 653 OFFCURVE",
"499 702 OFFCURVE",
"427 702 CURVE SMOOTH",
"366 702 OFFCURVE",
"325 676 OFFCURVE",
"303 637 CURVE",
"301 637 LINE",
"278 676 OFFCURVE",
"247 702 OFFCURVE",
"195 702 CURVE SMOOTH",
"94 702 OFFCURVE",
"36 616 OFFCURVE",
"36 519 CURVE SMOOTH"
);
},
{
closed = 1;
nodes = (
"191 326 OFFCURVE",
"238 377 OFFCURVE",
"306 377 CURVE SMOOTH",
"391 377 OFFCURVE",
"397 300 OFFCURVE",
"397 261 CURVE SMOOTH",
"397 170 OFFCURVE",
"306 96 OFFCURVE",
"266 34 CURVE",
"164 300 LINE"
);
}
);
width = 600;
}
);
unicode = 10EC;
},
{
color = 3;
glyphname = "xan-georgian";
lastChange = "2017-03-23 00:54:33 +0000";
layers = (
{
layerId = "FF6A36D6-AC67-41FE-A58D-2D1E84E0ACD0";
paths = (
{
closed = 1;
nodes = (
"388 23 LINE",
"311 23 OFFCURVE",
"286 87 OFFCURVE",
"286 182 CURVE",
"306 523 LINE",
"305 620 OFFCURVE",
"260 701 OFFCURVE",
"124 701 CURVE SMOOTH",
"54 701 OFFCURVE",
"10 677 OFFCURVE",
"10 638 CURVE SMOOTH",
"10 615 OFFCURVE",
"31 598 OFFCURVE",
"54 598 CURVE SMOOTH",
"76 598 OFFCURVE",
"94 615 OFFCURVE",
"94 638 CURVE SMOOTH",
"94 654 OFFCURVE",
"87 666 OFFCURVE",
"72 673 CURVE",
"119 670 OFFCURVE",
"147 657 OFFCURVE",
"147 559 CURVE SMOOTH",
"147 476 OFFCURVE",
"121 333 OFFCURVE",
"121 211 CURVE SMOOTH",
"121 109 OFFCURVE",
"145 -12 OFFCURVE",
"398 -12 CURVE"
);
},
{
closed = 1;
nodes = (
"293 318 LINE",
"318 346 OFFCURVE",
"350 362 OFFCURVE",
"380 362 CURVE SMOOTH",
"434 362 OFFCURVE",
"471 322 OFFCURVE",
"471 257 CURVE SMOOTH",
"471 134 LINE SMOOTH",
"471 68 OFFCURVE",
"434 23 OFFCURVE",
"380 23 CURVE SMOOTH",
"336 23 OFFCURVE",
"305 53 OFFCURVE",
"295 99 CURVE",
"276 1 LINE",
"312 -8 OFFCURVE",
"353 -12 OFFCURVE",
"387 -12 CURVE SMOOTH",
"529 -12 OFFCURVE",
"641 81 OFFCURVE",
"641 198 CURVE SMOOTH",
"641 314 OFFCURVE",
"529 407 OFFCURVE",
"408 407 CURVE SMOOTH",
"354 407 OFFCURVE",
"324 391 OFFCURVE",
"298 373 CURVE",
"295 373 LINE"
);
}
);
width = 661;
},
{
associatedMasterId = "FF6A36D6-AC67-41FE-A58D-2D1E84E0ACD0";
layerId = "87161DD3-ACA9-4DA9-B9D7-CB4F636F91B1";
width = 600;
},
{
layerId = "878EBA0B-B3D3-4EA2-BB74-EB37BB03E3E9";
paths = (
{
closed = 1;
nodes = (
"34 642 OFFCURVE",
"45 632 OFFCURVE",
"58 632 CURVE SMOOTH",
"70 632 OFFCURVE",
"81 642 OFFCURVE",
"81 656 CURVE SMOOTH",
"81 665 OFFCURVE",
"76 671 OFFCURVE",
"70 676 CURVE",
"78 684 OFFCURVE",
"85 687 OFFCURVE",
"102 687 CURVE SMOOTH",
"143 686 OFFCURVE",
"179 629 OFFCURVE",
"158 477 CURVE SMOOTH",
"140 344 LINE SMOOTH",
"110 124 OFFCURVE",
"177 -10 OFFCURVE",
"345 -10 CURVE SMOOTH",
"463 -10 OFFCURVE",
"553 74 OFFCURVE",
"562 192 CURVE SMOOTH",
"571 316 OFFCURVE",
"485 421 OFFCURVE",
"355 421 CURVE SMOOTH",
"293 421 OFFCURVE",
"241 388 OFFCURVE",
"200.336 341.297 CURVE",
"206 382 OFFCURVE",
"208 418 OFFCURVE",
"212 452 CURVE SMOOTH",
"233 632 OFFCURVE",
"177 703 OFFCURVE",
"107 704 CURVE SMOOTH",
"68 704 OFFCURVE",
"34 685 OFFCURVE",
"34 656 CURVE SMOOTH"
);
},
{
closed = 1;
nodes = (
"192 309 OFFCURVE",
"255 392 OFFCURVE",
"355 392 CURVE SMOOTH",
"461 392 OFFCURVE",
"506 313 OFFCURVE",
"497 201 CURVE SMOOTH",
"488 88 OFFCURVE",
"434 13 OFFCURVE",
"345 13 CURVE SMOOTH",
"253 13 OFFCURVE",
"190 80 OFFCURVE",
"191 202 CURVE SMOOTH"
);
}
);
width = 600;
}
);
unicode = 10EE;
},
{
color = 3;
glyphname = "jhan-georgian";
lastChange = "2017-03-23 18:50:24 +0000";
layers = (
{
layerId = "FF6A36D6-AC67-41FE-A58D-2D1E84E0ACD0";
paths = (
{
closed = 1;
nodes = (
"16 45 OFFCURVE",
"87 0 OFFCURVE",
"160 0 CURVE SMOOTH",
"225 0 OFFCURVE",
"327 26 OFFCURVE",
"327 130 CURVE SMOOTH",
"327 202 OFFCURVE",
"268 241 OFFCURVE",
"212 250 CURVE",
"673 619 LINE SMOOTH",
"705 644 OFFCURVE",
"716 647 OFFCURVE",
"736 647 CURVE",
"736 678 LINE",
"563 678 LINE",
"563 648 LINE",
"592 648 OFFCURVE",
"598 624 OFFCURVE",
"580 610 CURVE SMOOTH",
"108 241 LINE",
"116 210 LINE",
"163 209 OFFCURVE",
"200 175 OFFCURVE",
"196 121 CURVE SMOOTH",
"193 75 OFFCURVE",
"160 51 OFFCURVE",
"124 51 CURVE SMOOTH",
"92 51 OFFCURVE",
"84 60 OFFCURVE",
"74 71 CURVE",
"76 82 LINE",
"100 68 OFFCURVE",
"144 85 OFFCURVE",
"144 129 CURVE SMOOTH",
"144 160 OFFCURVE",
"126 187 OFFCURVE",
"87 188 CURVE SMOOTH",
"33 189 OFFCURVE",
"16 144 OFFCURVE",
"16 106 CURVE SMOOTH"
);
},
{
closed = 1;
nodes = (
"-8 520 OFFCURVE",
"40 465 CURVE SMOOTH",
"67 434 OFFCURVE",
"127 432 OFFCURVE",
"156 467 CURVE SMOOTH",
"184 501 OFFCURVE",
"182 550 OFFCURVE",
"153 578 CURVE SMOOTH",
"136 594 OFFCURVE",
"110 601 OFFCURVE",
"93 598 CURVE",
"143 632 OFFCURVE",
"216 601 OFFCURVE",
"242 545 CURVE SMOOTH",
"384 246 LINE SMOOTH",
"476 52 OFFCURVE",
"627 81 OFFCURVE",
"719 144 CURVE SMOOTH",
"756 169 OFFCURVE",
"775 202 OFFCURVE",
"778 242 CURVE SMOOTH",
"781 281 OFFCURVE",
"745 320 OFFCURVE",
"700 319 CURVE SMOOTH",
"658 318 OFFCURVE",
"623 285 OFFCURVE",
"623 242 CURVE SMOOTH",
"623 202 OFFCURVE",
"654 168 OFFCURVE",
"694 164 CURVE",
"657 143 OFFCURVE",
"606 159 OFFCURVE",
"576 223 CURVE SMOOTH",
"436 525 LINE SMOOTH",
"353 705 OFFCURVE",
"194 712 OFFCURVE",
"86 626 CURVE SMOOTH",
"32 583 OFFCURVE"
);
}
);
width = 830;
},
{
associatedMasterId = "FF6A36D6-AC67-41FE-A58D-2D1E84E0ACD0";
layerId = "680CAEC5-DA59-4265-A859-283EEEB3202A";
name = "Jan 10 17, 22:35";
paths = (
{
closed = 1;
nodes = (
"89 514 OFFCURVE",
"118 512 OFFCURVE",
"136 526 CURVE SMOOTH",
"154 540 OFFCURVE",
"159 562 OFFCURVE",
"146 581 CURVE SMOOTH",
"137 594 OFFCURVE",
"125 600 OFFCURVE",
"109 597 CURVE",
"157 631 OFFCURVE",
"202 602 OFFCURVE",
"235 547 CURVE SMOOTH",
"405 264 LINE SMOOTH",
"511 87 OFFCURVE",
"666 87 OFFCURVE",
"732 142 CURVE SMOOTH",
"779 181 OFFCURVE",
"792 212 OFFCURVE",
"770 245 CURVE SMOOTH",
"757 264 OFFCURVE",
"730 267 OFFCURVE",
"711 253 CURVE SMOOTH",
"694 240 OFFCURVE",
"689 216 OFFCURVE",
"701 197 CURVE SMOOTH",
"710 183 OFFCURVE",
"723 178 OFFCURVE",
"739 182 CURVE",
"704 149 OFFCURVE",
"653 164 OFFCURVE",
"613 231 CURVE SMOOTH",
"443 514 LINE SMOOTH",
"336 691 OFFCURVE",
"208 703 OFFCURVE",
"135 650 CURVE SMOOTH",
"78 608 OFFCURVE",
"57 565 OFFCURVE",
"77 533 CURVE SMOOTH"
);
},
{
closed = 1;
nodes = (
"50 44 OFFCURVE",
"112 0 OFFCURVE",
"188 0 CURVE SMOOTH",
"278 0 OFFCURVE",
"369 27 OFFCURVE",
"369 117 CURVE SMOOTH",
"369 182 OFFCURVE",
"299 215 OFFCURVE",
"250 223 CURVE",
"666 622 LINE SMOOTH",
"695 650 OFFCURVE",
"707 648 OFFCURVE",
"726 648 CURVE",
"726 678 LINE",
"561 678 LINE",
"561 649 LINE",
"589 649 OFFCURVE",
"593 628 OFFCURVE",
"577 613 CURVE SMOOTH",
"158 216 LINE",
"165 188 LINE",
"207 187 OFFCURVE",
"237 157 OFFCURVE",
"236 109 CURVE SMOOTH",
"235 60 OFFCURVE",
"195 34 OFFCURVE",
"163 34 CURVE SMOOTH",
"135 34 OFFCURVE",
"120 50 OFFCURVE",
"110 64 CURVE",
"112 66 LINE",
"133 54 OFFCURVE",
"172 69 OFFCURVE",
"172 107 CURVE SMOOTH",
"172 135 OFFCURVE",
"153 162 OFFCURVE",
"118 162 CURVE SMOOTH",
"71 162 OFFCURVE",
"50 131 OFFCURVE",
"50 97 CURVE SMOOTH"
);
}
);
width = 830;
},
{
associatedMasterId = "FF6A36D6-AC67-41FE-A58D-2D1E84E0ACD0";
layerId = "87161DD3-ACA9-4DA9-B9D7-CB4F636F91B1";
width = 600;
},
{
layerId = "878EBA0B-B3D3-4EA2-BB74-EB37BB03E3E9";
paths = (
{
closed = 1;
nodes = (
"-59 50 OFFCURVE",
"-8 10 OFFCURVE",
"60 10 CURVE SMOOTH",
"140 10 OFFCURVE",
"182 68 OFFCURVE",
"182 121 CURVE SMOOTH",
"182 189 OFFCURVE",
"127 238 OFFCURVE",
"61 237 CURVE",
"538 619 LINE SMOOTH",
"570 644 OFFCURVE",
"581 647 OFFCURVE",
"601 647 CURVE",
"601 678 LINE",
"463 678 LINE",
"463 648 LINE",
"492 648 OFFCURVE",
"498 624 OFFCURVE",
"480 610 CURVE SMOOTH",
"12 237 LINE",
"20 220 LINE",
"115 230 OFFCURVE",
"141 176 OFFCURVE",
"141 121 CURVE SMOOTH",
"141 71 OFFCURVE",
"101 31 OFFCURVE",
"60 31 CURVE SMOOTH",
"7 31 OFFCURVE",
"-16 71 OFFCURVE",
"-16 82 CURVE",
"-9 82 LINE",
"15 68 OFFCURVE",
"49 93 OFFCURVE",
"49 129 CURVE SMOOTH",
"49 151 OFFCURVE",
"31 178 OFFCURVE",
"2 178 CURVE SMOOTH",
"-32 178 OFFCURVE",
"-59 153 OFFCURVE",
"-59 113 CURVE SMOOTH"
);
},
{
closed = 1;
nodes = (
"-9 586 OFFCURVE",
"6 563 OFFCURVE",
"39 563 CURVE SMOOTH",
"61 563 OFFCURVE",
"81 585 OFFCURVE",
"81 606 CURVE SMOOTH",
"81 626 OFFCURVE",
"67 650 OFFCURVE",
"44 647 CURVE",
"81 688 OFFCURVE",
"130 648 OFFCURVE",
"162 587 CURVE SMOOTH",
"358 213 LINE SMOOTH",
"406 121 OFFCURVE",
"463 100 OFFCURVE",
"505 100 CURVE SMOOTH",
"532 100 OFFCURVE",
"589 124 OFFCURVE",
"589 170 CURVE SMOOTH",
"589 199 OFFCURVE",
"574 222 OFFCURVE",
"541 222 CURVE SMOOTH",
"519 222 OFFCURVE",
"499 200 OFFCURVE",
"499 179 CURVE SMOOTH",
"499 159 OFFCURVE",
"513 135 OFFCURVE",
"536 138 CURVE",
"499 100 OFFCURVE",
"450 136 OFFCURVE",
"418 197 CURVE SMOOTH",
"222 571 LINE SMOOTH",
"174 662 OFFCURVE",
"119 685 OFFCURVE",
"77 685 CURVE SMOOTH",
"29 685 OFFCURVE",
"-9 652 OFFCURVE",
"-9 613 CURVE SMOOTH"
);
}
);
width = 600;
}
);
unicode = 10EF;
},
{
color = 3;
glyphname = "hae-georgian";
lastChange = "2017-03-22 22:34:31 +0000";
layers = (
{
layerId = "FF6A36D6-AC67-41FE-A58D-2D1E84E0ACD0";
paths = (
{
closed = 1;
nodes = (
"25 50 OFFCURVE",
"123 -12 OFFCURVE",
"309 -12 CURVE SMOOTH",
"433 -12 OFFCURVE",
"595 15 OFFCURVE",
"595 139 CURVE SMOOTH",
"595 202 OFFCURVE",
"517 254 OFFCURVE",
"464 260 CURVE",
"517 267 OFFCURVE",
"564 283 OFFCURVE",
"564 343 CURVE SMOOTH",
"564 407 OFFCURVE",
"483 417 OFFCURVE",
"453 421 CURVE",
"482 426 OFFCURVE",
"554 436 OFFCURVE",
"554 496 CURVE SMOOTH",
"554 635 OFFCURVE",
"299 585 OFFCURVE",
"299 678 CURVE SMOOTH",
"299 681 OFFCURVE",
"299 686 OFFCURVE",
"303 690 CURVE",
"288 702 LINE",
"263 690 OFFCURVE",
"220 653 OFFCURVE",
"220 610 CURVE SMOOTH",
"220 464 OFFCURVE",
"433 557 OFFCURVE",
"433 476 CURVE SMOOTH",
"433 450 OFFCURVE",
"412 438 OFFCURVE",
"361 438 CURVE SMOOTH",
"314 438 LINE",
"314 403 LINE",
"361 403 LINE SMOOTH",
"437 403 OFFCURVE",
"445 365 OFFCURVE",
"445 342 CURVE SMOOTH",
"445 320 OFFCURVE",
"437 283 OFFCURVE",
"361 283 CURVE SMOOTH",
"314 283 LINE",
"314 248 LINE",
"333 248 LINE SMOOTH",
"390 248 OFFCURVE",
"425 201 OFFCURVE",
"425 139 CURVE SMOOTH",
"425 60 OFFCURVE",
"363 23 OFFCURVE",
"309 23 CURVE SMOOTH",
"245 23 OFFCURVE",
"195 70 OFFCURVE",
"195 130 CURVE SMOOTH",
"195 171 OFFCURVE",
"212 209 OFFCURVE",
"242 222 CURVE",
"218 255 LINE",
"97 251 OFFCURVE",
"25 202 OFFCURVE",
"25 138 CURVE SMOOTH"
);
}
);
width = 600;
},
{
associatedMasterId = "FF6A36D6-AC67-41FE-A58D-2D1E84E0ACD0";
layerId = "D0C76575-3BA3-4348-9152-2B584B977F7A";
name = "Dec 12 16, 17:36";
paths = (
{
closed = 1;
nodes = (
"463 287 OFFCURVE",
"544 303 OFFCURVE",
"544 363 CURVE SMOOTH",
"544 438 OFFCURVE",
"420 437 OFFCURVE",
"390 441 CURVE",
"419 446 OFFCURVE",
"524 446 OFFCURVE",
"524 509 CURVE SMOOTH",
"524 564 OFFCURVE",
"458 574 OFFCURVE",
"409 600 CURVE SMOOTH",
"354 629 OFFCURVE",
"339 650 OFFCURVE",
"367 690 CURVE",
"354 690 LINE",
"323 653 OFFCURVE",
"306 620 OFFCURVE",
"306 595 CURVE",
"306 571 OFFCURVE",
"311 548 OFFCURVE",
"353 531 CURVE",
"393 513 OFFCURVE",
"413 509 OFFCURVE",
"413 492 CURVE",
"413 467 OFFCURVE",
"408 457 OFFCURVE",
"314 457 CURVE",
"314 423 LINE",
"343 423 LINE SMOOTH",
"416 423 OFFCURVE",
"435 385 OFFCURVE",
"435 362 CURVE SMOOTH",
"435 340 OFFCURVE",
"418 303 OFFCURVE",
"338 303 CURVE SMOOTH",
"314 303 LINE",
"314 268 LINE",
"338 268 LINE SMOOTH",
"425 268 OFFCURVE",
"425 221 OFFCURVE",
"425 139 CURVE SMOOTH",
"425 60 OFFCURVE",
"363 23 OFFCURVE",
"300 23 CURVE SMOOTH",
"245 23 OFFCURVE",
"195 80 OFFCURVE",
"195 138 CURVE SMOOTH",
"195 171 OFFCURVE",
"204 214 OFFCURVE",
"242 222 CURVE",
"218 255 LINE",
"97 251 OFFCURVE",
"25 202 OFFCURVE",
"25 138 CURVE SMOOTH",
"25 50 OFFCURVE",
"123 -12 OFFCURVE",
"303 -12 CURVE SMOOTH",
"433 -12 OFFCURVE",
"592 15 OFFCURVE",
"592 139 CURVE SMOOTH",
"592 266 OFFCURVE",
"463 281 OFFCURVE",
"410 287 CURVE"
);
}
);
width = 600;
},
{
associatedMasterId = "FF6A36D6-AC67-41FE-A58D-2D1E84E0ACD0";
layerId = "BE0E88EF-B918-4ACF-8207-D72DCE32F4A3";
name = "Jan 9 17, 23:04";
paths = (
{
closed = 1;
nodes = (
"25 50 OFFCURVE",
"123 -12 OFFCURVE",
"309 -12 CURVE SMOOTH",
"433 -12 OFFCURVE",
"592 15 OFFCURVE",
"592 139 CURVE SMOOTH",
"592 202 OFFCURVE",
"517 254 OFFCURVE",
"464 260 CURVE",
"517 267 OFFCURVE",
"564 283 OFFCURVE",
"564 343 CURVE SMOOTH",
"564 407 OFFCURVE",
"483 417 OFFCURVE",
"453 421 CURVE",
"482 426 OFFCURVE",
"554 436 OFFCURVE",
"554 496 CURVE SMOOTH",
"554 635 OFFCURVE",
"299 585 OFFCURVE",
"299 678 CURVE SMOOTH",
"299 681 OFFCURVE",
"299 686 OFFCURVE",
"303 690 CURVE",
"288 702 LINE",
"263 690 OFFCURVE",
"220 653 OFFCURVE",
"220 610 CURVE SMOOTH",
"220 464 OFFCURVE",
"433 557 OFFCURVE",
"433 476 CURVE SMOOTH",
"433 450 OFFCURVE",
"412 437 OFFCURVE",
"361 437 CURVE SMOOTH",
"314 437 LINE",
"314 403 LINE",
"361 403 LINE SMOOTH",
"437 403 OFFCURVE",
"445 365 OFFCURVE",
"445 342 CURVE SMOOTH",
"445 320 OFFCURVE",
"437 283 OFFCURVE",
"361 283 CURVE SMOOTH",
"314 283 LINE",
"314 248 LINE",
"333 248 LINE SMOOTH",
"390 248 OFFCURVE",
"425 201 OFFCURVE",
"425 139 CURVE SMOOTH",
"425 60 OFFCURVE",
"363 23 OFFCURVE",
"309 23 CURVE SMOOTH",
"245 23 OFFCURVE",
"195 70 OFFCURVE",
"195 130 CURVE SMOOTH",
"195 171 OFFCURVE",
"212 209 OFFCURVE",
"242 222 CURVE",
"218 255 LINE",
"97 251 OFFCURVE",
"25 202 OFFCURVE",
"25 138 CURVE SMOOTH"
);
}
);
width = 600;
},
{
associatedMasterId = "FF6A36D6-AC67-41FE-A58D-2D1E84E0ACD0";
layerId = "87161DD3-ACA9-4DA9-B9D7-CB4F636F91B1";
width = 600;
},
{
layerId = "878EBA0B-B3D3-4EA2-BB74-EB37BB03E3E9";
paths = (
{
closed = 1;
nodes = (
"55 50 OFFCURVE",
"153 -12 OFFCURVE",
"309 -12 CURVE SMOOTH",
"433 -12 OFFCURVE",
"565 35 OFFCURVE",
"565 139 CURVE SMOOTH",
"565 220 OFFCURVE",
"477 257 OFFCURVE",
"424 263 CURVE",
"477 270 OFFCURVE",
"529 281 OFFCURVE",
"529 343 CURVE SMOOTH",
"529 403 OFFCURVE",
"450 418 OFFCURVE",
"420 422 CURVE",
"449 427 OFFCURVE",
"507 441 OFFCURVE",
"507 491 CURVE SMOOTH",
"507 600 OFFCURVE",
"280 566 OFFCURVE",
"280 638 CURVE SMOOTH",
"280 664 OFFCURVE",
"299 686 OFFCURVE",
"303 690 CURVE",
"288 702 LINE",
"263 684 OFFCURVE",
"236 667 OFFCURVE",
"236 621 CURVE SMOOTH",
"236 518 OFFCURVE",
"463 590 OFFCURVE",
"463 491 CURVE SMOOTH",
"463 445 OFFCURVE",
"412 438 OFFCURVE",
"361 438 CURVE SMOOTH",
"334 438 LINE",
"334 403 LINE",
"361 403 LINE SMOOTH",
"427 403 OFFCURVE",
"475 395 OFFCURVE",
"475 342 CURVE SMOOTH",
"475 290 OFFCURVE",
"437 283 OFFCURVE",
"361 283 CURVE SMOOTH",
"334 283 LINE",
"334 248 LINE",
"361 248 LINE SMOOTH",
"410 248 OFFCURVE",
"485 241 OFFCURVE",
"485 139 CURVE SMOOTH",
"485 60 OFFCURVE",
"423 13 OFFCURVE",
"309 13 CURVE SMOOTH",
"215 13 OFFCURVE",
"135 70 OFFCURVE",
"135 130 CURVE SMOOTH",
"135 201 OFFCURVE",
"202 222 OFFCURVE",
"232 232 CURVE",
"218 255 LINE",
"127 244 OFFCURVE",
"55 202 OFFCURVE",
"55 130 CURVE SMOOTH"
);
}
);
width = 600;
}
);
unicode = 10F0;
},
{
glyphname = "ain-georgian";
lastChange = "2017-03-06 21:35:27 +0000";
layers = (
{
layerId = "FF6A36D6-AC67-41FE-A58D-2D1E84E0ACD0";
paths = (
{
closed = 1;
nodes = (
"-87 386 OFFCURVE",
"-47 412 OFFCURVE",
"-46 461 CURVE SMOOTH",
"-45 509 OFFCURVE",
"-75 539 OFFCURVE",
"-117 540 CURVE",
"-124 568 LINE",
"-128 565 OFFCURVE",
"84 583 OFFCURVE",
"121 680 CURVE",
"281 680 LINE",
"281 235 LINE",
"281 55 OFFCURVE",
"178 -22 OFFCURVE",
"5 -22 CURVE SMOOTH",
"-138 -22 OFFCURVE",
"-260 55 OFFCURVE",
"-260 152 CURVE SMOOTH",
"-260 252 OFFCURVE",
"-137 291 OFFCURVE",
"-73 292 CURVE",
"-59 263 LINE",
"-92 229 OFFCURVE",
"-90 197 OFFCURVE",
"-90 162 CURVE SMOOTH",
"-90 134 LINE SMOOTH",
"-90 65 OFFCURVE",
"-48 13 OFFCURVE",
"10 13 CURVE SMOOTH",
"78 13 OFFCURVE",
"122 55 OFFCURVE",
"122 174 CURVE SMOOTH",
"121 615 LINE",
"78 581 OFFCURVE",
"35 562 OFFCURVE",
"-14 552 CURVE",
"-12 551 OFFCURVE",
"-14 549 OFFCURVE",
"-12 548 CURVE",
"26 533 OFFCURVE",
"57 513 OFFCURVE",
"57 459 CURVE SMOOTH",
"57 389 OFFCURVE",
"-4 342 OFFCURVE",
"-94 342 CURVE SMOOTH",
"-170 342 OFFCURVE",
"-232 396 OFFCURVE",
"-232 449 CURVE SMOOTH",
"-232 483 OFFCURVE",
"-211 514 OFFCURVE",
"-164 514 CURVE SMOOTH",
"-129 514 OFFCURVE",
"-110 487 OFFCURVE",
"-110 459 CURVE SMOOTH",
"-110 421 OFFCURVE",
"-149 406 OFFCURVE",
"-170 418 CURVE",
"-172 416 LINE",
"-162 402 OFFCURVE",
"-147 386 OFFCURVE",
"-119 386 CURVE SMOOTH"
);
},
{
closed = 1;
nodes = (
"229 204 LINE",
"109 197 OFFCURVE",
"18 132 OFFCURVE",
"18 18 CURVE SMOOTH",
"18 -99 OFFCURVE",
"141 -192 OFFCURVE",
"293 -192 CURVE SMOOTH",
"466 -192 OFFCURVE",
"564 -52 OFFCURVE",
"564 165 CURVE SMOOTH",
"564 395 OFFCURVE",
"466 522 OFFCURVE",
"283 522 CURVE SMOOTH",
"136 522 OFFCURVE",
"79 435 OFFCURVE",
"79 385 CURVE SMOOTH",
"79 335 OFFCURVE",
"121 292 OFFCURVE",
"172 292 CURVE SMOOTH",
"223 292 OFFCURVE",
"264 335 OFFCURVE",
"264 385 CURVE SMOOTH",
"264 435 OFFCURVE",
"229 459 OFFCURVE",
"210 469 CURVE",
"225 479 OFFCURVE",
"257 487 OFFCURVE",
"283 487 CURVE SMOOTH",
"363 487 OFFCURVE",
"393 433 OFFCURVE",
"393 357 CURVE SMOOTH",
"394 4 LINE SMOOTH",
"394 -87 OFFCURVE",
"367 -157 OFFCURVE",
"294 -157 CURVE SMOOTH",
"219 -157 OFFCURVE",
"188 -87 OFFCURVE",
"188 4 CURVE SMOOTH",
"188 81 OFFCURVE",
"195 142 OFFCURVE",
"243 175 CURVE"
);
},
{
closed = 1;
nodes = (
"1239 204 LINE",
"1119 197 OFFCURVE",
"1028 132 OFFCURVE",
"1028 18 CURVE SMOOTH",
"1028 -100 OFFCURVE",
"1151 -192 OFFCURVE",
"1303 -192 CURVE SMOOTH",
"1476 -192 OFFCURVE",
"1574 -51 OFFCURVE",
"1574 165 CURVE SMOOTH",
"1574 396 OFFCURVE",
"1476 522 OFFCURVE",
"1293 522 CURVE SMOOTH",
"1146 522 OFFCURVE",
"1089 434 OFFCURVE",
"1089 385 CURVE SMOOTH",
"1089 335 OFFCURVE",
"1131 292 OFFCURVE",
"1182 292 CURVE SMOOTH",
"1233 292 OFFCURVE",
"1274 335 OFFCURVE",
"1274 385 CURVE SMOOTH",
"1274 435 OFFCURVE",
"1239 459 OFFCURVE",
"1220 469 CURVE",
"1235 479 OFFCURVE",
"1267 487 OFFCURVE",
"1293 487 CURVE SMOOTH",
"1373 487 OFFCURVE",
"1403 433 OFFCURVE",
"1403 357 CURVE SMOOTH",
"1404 4 LINE SMOOTH",
"1404 -87 OFFCURVE",
"1377 -157 OFFCURVE",
"1304 -157 CURVE SMOOTH",
"1229 -157 OFFCURVE",
"1198 -87 OFFCURVE",
"1198 4 CURVE SMOOTH",
"1198 81 OFFCURVE",
"1205 142 OFFCURVE",
"1253 175 CURVE"
);
},
{
closed = 1;
nodes = (
"760 542 OFFCURVE",
"807 524 OFFCURVE",
"833 518 CURVE",
"842 518 OFFCURVE",
"872 559 OFFCURVE",
"874 602 CURVE SMOOTH",
"877 657 OFFCURVE",
"842 674 OFFCURVE",
"823 674 CURVE SMOOTH",
"777 674 OFFCURVE",
"760 643 OFFCURVE",
"760 602 CURVE SMOOTH"
);
},
{
closed = 1;
nodes = (
"1353 254 OFFCURVE",
"1465 347 OFFCURVE",
"1586 347 CURVE SMOOTH",
"1640 347 OFFCURVE",
"1670 331 OFFCURVE",
"1696 313 CURVE",
"1700 313 LINE",
"1700 457 LINE SMOOTH",
"1700 523 OFFCURVE",
"1672 617 OFFCURVE",
"1592 617 CURVE SMOOTH",
"1566 617 OFFCURVE",
"1543 607 OFFCURVE",
"1528 597 CURVE",
"1551 585 OFFCURVE",
"1578 559 OFFCURVE",
"1578 512 CURVE SMOOTH",
"1578 462 OFFCURVE",
"1532 422 OFFCURVE",
"1481 422 CURVE SMOOTH",
"1420 422 OFFCURVE",
"1384 462 OFFCURVE",
"1384 512 CURVE SMOOTH",
"1384 573 OFFCURVE",
"1445 642 OFFCURVE",
"1592 642 CURVE SMOOTH",
"1773 642 OFFCURVE",
"1870 516 OFFCURVE",
"1870 286 CURVE SMOOTH",
"1870 70 OFFCURVE",
"1773 -72 OFFCURVE",
"1607 -72 CURVE SMOOTH",
"1465 -72 OFFCURVE",
"1353 21 OFFCURVE",
"1353 138 CURVE"
);
},
{
closed = 1;
nodes = (
"1523 8 OFFCURVE",
"1560 -37 OFFCURVE",
"1614 -37 CURVE SMOOTH",
"1667 -37 OFFCURVE",
"1703 8 OFFCURVE",
"1703 74 CURVE SMOOTH",
"1703 254 LINE",
"1677 284 OFFCURVE",
"1645 302 OFFCURVE",
"1614 302 CURVE SMOOTH",
"1560 302 OFFCURVE",
"1523 262 OFFCURVE",
"1523 197 CURVE SMOOTH",
"1523 74 LINE SMOOTH"
);
},
{
closed = 1;
nodes = (
"400 410 OFFCURVE",
"424 429 OFFCURVE",
"446 429 CURVE SMOOTH",
"467 429 OFFCURVE",
"482 414 OFFCURVE",
"482 397 CURVE SMOOTH",
"482 379 OFFCURVE",
"469 366 OFFCURVE",
"451 366 CURVE",
"445 367 LINE",
"445 349 OFFCURVE",
"466 333 OFFCURVE",
"487 333 CURVE SMOOTH",
"514.785 333 OFFCURVE",
"534.303 348.614 OFFCURVE",
"552.401 364.593 CURVE SMOOTH",
"559.393 371.176 OFFCURVE",
"566.964 377.605 OFFCURVE",
"575.112 383.902 CURVE SMOOTH",
"602.12 404.776 OFFCURVE",
"635.462 424.203 OFFCURVE",
"675 443 CURVE",
"687 422 LINE",
"662 379 OFFCURVE",
"660 326 OFFCURVE",
"660 257 CURVE SMOOTH",
"660 187 LINE SMOOTH",
"660 72 OFFCURVE",
"761 23 OFFCURVE",
"851 23 CURVE SMOOTH",
"941 23 OFFCURVE",
"1032 72 OFFCURVE",
"1032 186 CURVE SMOOTH",
"1032 288 LINE SMOOTH",
"1032 381 OFFCURVE",
"970 436 OFFCURVE",
"860 468 CURVE",
"830 442 OFFCURVE",
"807 402 OFFCURVE",
"807 332 CURVE SMOOTH",
"807 281 OFFCURVE",
"829 239 OFFCURVE",
"879 239 CURVE SMOOTH",
"927 239 OFFCURVE",
"953 290 OFFCURVE",
"943 333 CURVE",
"938 334 LINE",
"933 325 OFFCURVE",
"922 316 OFFCURVE",
"904 316 CURVE SMOOTH",
"889 316 OFFCURVE",
"867 327 OFFCURVE",
"867 351 CURVE SMOOTH",
"867 375 OFFCURVE",
"883 396 OFFCURVE",
"914 396 CURVE SMOOTH",
"942 396 OFFCURVE",
"990 375 OFFCURVE",
"990 312 CURVE SMOOTH",
"990 239 OFFCURVE",
"921 191 OFFCURVE",
"837 191 CURVE SMOOTH",
"748 191 OFFCURVE",
"695 257 OFFCURVE",
"695 332 CURVE SMOOTH",
"695 400 OFFCURVE",
"734 464 OFFCURVE",
"799 495 CURVE",
"748 515 OFFCURVE",
"708 555 OFFCURVE",
"708 596 CURVE SMOOTH",
"708 655 OFFCURVE",
"757 702 OFFCURVE",
"849 702 CURVE SMOOTH",
"927 702 OFFCURVE",
"990 655 OFFCURVE",
"990 596 CURVE SMOOTH",
"990 558 OFFCURVE",
"948 521 OFFCURVE",
"903 496 CURVE",
"1065 445 OFFCURVE",
"1202 357 OFFCURVE",
"1202 226 CURVE SMOOTH",
"1202 84 OFFCURVE",
"1054 -12 OFFCURVE",
"851 -12 CURVE SMOOTH",
"646 -12 OFFCURVE",
"490 88 OFFCURVE",
"490 227 CURVE SMOOTH",
"490 255.715 OFFCURVE",
"495.879 281.631 OFFCURVE",
"507.524 305.432 CURVE",
"499.159 302.583 OFFCURVE",
"490.635 301 OFFCURVE",
"482 301 CURVE SMOOTH",
"438 301 OFFCURVE",
"400 338 OFFCURVE",
"400 379 CURVE SMOOTH"
);
},
{
closed = 1;
nodes = (
"1102 559 OFFCURVE",
"1095 550 OFFCURVE",
"1086 539 CURVE",
"1150 571 OFFCURVE",
"1161 608 OFFCURVE",
"1161 643 CURVE SMOOTH",
"1161 672 OFFCURVE",
"1136 698 OFFCURVE",
"1107 698 CURVE SMOOTH",
"1076 698 OFFCURVE",
"1051 672 OFFCURVE",
"1051 643 CURVE SMOOTH",
"1051 611 OFFCURVE",
"1075 587 OFFCURVE",
"1106 587 CURVE"
);
}
);
width = 600;
},
{
associatedMasterId = "FF6A36D6-AC67-41FE-A58D-2D1E84E0ACD0";
layerId = "87161DD3-ACA9-4DA9-B9D7-CB4F636F91B1";
width = 600;
},
{
layerId = "878EBA0B-B3D3-4EA2-BB74-EB37BB03E3E9";
width = 600;
}
);
unicode = 10FA;
},
{
glyphname = "labialsign-georgian";
lastChange = "2017-01-10 19:53:20 +0000";
layers = (
{
layerId = "FF6A36D6-AC67-41FE-A58D-2D1E84E0ACD0";
paths = (
{
closed = 1;
nodes = (
"52 81 OFFCURVE",
"161 -12 OFFCURVE",
"313 -12 CURVE",
"462 -12 OFFCURVE",
"574 79 OFFCURVE",
"574 197 CURVE SMOOTH",
"574 314 OFFCURVE",
"465 407 OFFCURVE",
"313 407 CURVE",
"164 407 OFFCURVE",
"52 316 OFFCURVE",
"52 198 CURVE SMOOTH"
);
},
{
closed = 1;
nodes = (
"222 282 LINE SMOOTH",
"222 331 OFFCURVE",
"263 372 OFFCURVE",
"313 372 CURVE SMOOTH",
"363 372 OFFCURVE",
"404 331 OFFCURVE",
"404 281 CURVE SMOOTH",
"404 113 LINE SMOOTH",
"404 64 OFFCURVE",
"363 23 OFFCURVE",
"313 23 CURVE SMOOTH",
"263 23 OFFCURVE",
"222 64 OFFCURVE",
"222 114 CURVE SMOOTH"
);
},
{
closed = 1;
nodes = (
"362 489 OFFCURVE",
"404 528 OFFCURVE",
"404 581 CURVE SMOOTH",
"404 630 OFFCURVE",
"362 672 OFFCURVE",
"314 672 CURVE SMOOTH",
"263 672 OFFCURVE",
"222 630 OFFCURVE",
"222 581 CURVE SMOOTH",
"222 529 OFFCURVE",
"263 489 OFFCURVE",
"314 489 CURVE SMOOTH"
);
},
{
closed = 1;
nodes = (
"168 492 OFFCURVE",
"209 535 OFFCURVE",
"209 585 CURVE SMOOTH",
"209 632 OFFCURVE",
"168 677 OFFCURVE",
"117 677 CURVE SMOOTH",
"66 677 OFFCURVE",
"24 635 OFFCURVE",
"24 585 CURVE SMOOTH",
"24 535 OFFCURVE",
"67 492 OFFCURVE",
"117 492 CURVE SMOOTH"
);
}
);
width = 600;
},
{
associatedMasterId = "FF6A36D6-AC67-41FE-A58D-2D1E84E0ACD0";
layerId = "87161DD3-ACA9-4DA9-B9D7-CB4F636F91B1";
width = 600;
},
{
layerId = "878EBA0B-B3D3-4EA2-BB74-EB37BB03E3E9";
width = 600;
}
);
unicode = 10FF;
},
{
color = 4;
glyphname = "on-georgian.case.calt";
lastChange = "2017-03-23 19:27:17 +0000";
layers = (
{
backgroundImage = {
crop = "{{0, 0}, {289, 265}}";
imagePath = ../mtavruli/on.jpg;
transform = "{4.4, 0, 0, 4.4, -110, -261}";
};
layerId = "FF6A36D6-AC67-41FE-A58D-2D1E84E0ACD0";
paths = (
{
closed = 1;
nodes = (
"0 20 OFFCURVE",
"40 -27 OFFCURVE",
"125 -27 CURVE SMOOTH",
"179 -27 OFFCURVE",
"213 -2 OFFCURVE",
"272 -2 CURVE SMOOTH",
"296 -2 OFFCURVE",
"334 -5 OFFCURVE",
"358 -12 CURVE",
"368 14 LINE",
"331 40 OFFCURVE",
"301 98 OFFCURVE",
"301 175 CURVE SMOOTH",
"301 556 LINE SMOOTH",
"301 618 OFFCURVE",
"329 667 OFFCURVE",
"378 667 CURVE SMOOTH",
"425 667 OFFCURVE",
"455 618 OFFCURVE",
"455 556 CURVE SMOOTH",
"455 415 LINE SMOOTH",
"455 392 OFFCURVE",
"440 382 OFFCURVE",
"420 379 CURVE",
"420 344 LINE",
"659 344 LINE",
"659 379 LINE",
"639 382 OFFCURVE",
"624 395 OFFCURVE",
"624 415 CURVE SMOOTH",
"624 556 LINE SMOOTH",
"624 618 OFFCURVE",
"654 667 OFFCURVE",
"701 667 CURVE SMOOTH",
"750 667 OFFCURVE",
"778 618 OFFCURVE",
"778 556 CURVE SMOOTH",
"778 175 LINE SMOOTH",
"778 98 OFFCURVE",
"751 40 OFFCURVE",
"711 14 CURVE",
"721 -12 LINE",
"884 10 OFFCURVE",
"948 155 OFFCURVE",
"948 344 CURVE SMOOTH",
"948 533 OFFCURVE",
"864 702 OFFCURVE",
"701 702 CURVE SMOOTH",
"636 702 OFFCURVE",
"580 669 OFFCURVE",
"543 616 CURVE",
"539 616 LINE",
"501 670 OFFCURVE",
"444 702 OFFCURVE",
"378 702 CURVE SMOOTH",
"215 702 OFFCURVE",
"131 553 OFFCURVE",
"131 364 CURVE SMOOTH",
"131 229 OFFCURVE",
"184 96 OFFCURVE",
"242 35 CURVE",
"209 14 OFFCURVE",
"167 6 OFFCURVE",
"135 6 CURVE SMOOTH",
"94 6 OFFCURVE",
"74 23 OFFCURVE",
"63 43 CURVE",
"83 45 OFFCURVE",
"96 59 OFFCURVE",
"96 78 CURVE SMOOTH",
"96 95 OFFCURVE",
"81 121 OFFCURVE",
"51 121 CURVE SMOOTH",
"25 121 OFFCURVE",
"0 102 OFFCURVE",
"0 61 CURVE SMOOTH"
);
}
);
width = 998;
},
{
associatedMasterId = "FF6A36D6-AC67-41FE-A58D-2D1E84E0ACD0";
layerId = "87161DD3-ACA9-4DA9-B9D7-CB4F636F91B1";
width = 600;
},
{
layerId = "878EBA0B-B3D3-4EA2-BB74-EB37BB03E3E9";
width = 600;
}
);
},
{
color = 3;
export = 0;
glyphname = "in-georgian.002";
lastChange = "2017-03-23 19:21:32 +0000";
layers = (
{
backgroundImage = {
crop = "{{0, 0}, {205, 261}}";
imagePath = "../mtavruli/in resized.jpg";
locked = "1";
transform = "{4.5, 0, 0, 4.5, -167, -218}";
};
layerId = "FF6A36D6-AC67-41FE-A58D-2D1E84E0ACD0";
paths = (
{
closed = 1;
nodes = (
"134 710 OFFCURVE",
"30 542 OFFCURVE",
"30 354 CURVE SMOOTH",
"30 165 OFFCURVE",
"94 20 OFFCURVE",
"257 -2 CURVE",
"267 24 LINE",
"230 50 OFFCURVE",
"200 108 OFFCURVE",
"200 185 CURVE SMOOTH",
"200 536 LINE SMOOTH",
"200 607 OFFCURVE",
"243 677 OFFCURVE",
"323 677 CURVE SMOOTH",
"403 677 OFFCURVE",
"446 607 OFFCURVE",
"446 536 CURVE SMOOTH",
"446 185 LINE SMOOTH",
"446 108 OFFCURVE",
"416 50 OFFCURVE",
"379 24 CURVE",
"389 -2 LINE",
"552 20 OFFCURVE",
"616 165 OFFCURVE",
"616 354 CURVE SMOOTH",
"616 542 OFFCURVE",
"512 710 OFFCURVE",
"323 710 CURVE SMOOTH"
);
}
);
width = 636;
},
{
associatedMasterId = "FF6A36D6-AC67-41FE-A58D-2D1E84E0ACD0";
layerId = "87161DD3-ACA9-4DA9-B9D7-CB4F636F91B1";
width = 600;
},
{
layerId = "878EBA0B-B3D3-4EA2-BB74-EB37BB03E3E9";
paths = (
{
closed = 1;
nodes = (
"124 702 OFFCURVE",
"30 552 OFFCURVE",
"30 354 CURVE SMOOTH",
"30 165 OFFCURVE",
"84 20 OFFCURVE",
"187 -12 CURVE",
"197 14 LINE",
"130 30 OFFCURVE",
"100 128 OFFCURVE",
"100 225 CURVE SMOOTH",
"100 496 LINE SMOOTH",
"100 587 OFFCURVE",
"153 678 OFFCURVE",
"253 678 CURVE SMOOTH",
"353 678 OFFCURVE",
"406 587 OFFCURVE",
"406 496 CURVE SMOOTH",
"406 225 LINE SMOOTH",
"406 128 OFFCURVE",
"376 30 OFFCURVE",
"309 14 CURVE",
"319 -12 LINE",
"422 20 OFFCURVE",
"476 165 OFFCURVE",
"476 354 CURVE SMOOTH",
"476 552 OFFCURVE",
"382 702 OFFCURVE",
"253 702 CURVE SMOOTH"
);
}
);
width = 506;
}
);
},
{
color = 3;
export = 0;
glyphname = "in-georgian.001";
lastChange = "2017-03-23 19:21:29 +0000";
layers = (
{
backgroundImage = {
crop = "{{0, 0}, {205, 261}}";
imagePath = "../mtavruli/in resized.jpg";
locked = "1";
transform = "{4.5, 0, 0, 4.5, -167, -218}";
};
layerId = "FF6A36D6-AC67-41FE-A58D-2D1E84E0ACD0";
paths = (
{
closed = 1;
nodes = (
"134 710 OFFCURVE",
"30 542 OFFCURVE",
"30 354 CURVE SMOOTH",
"30 165 OFFCURVE",
"94 20 OFFCURVE",
"257 -2 CURVE",
"267 24 LINE",
"230 50 OFFCURVE",
"200 108 OFFCURVE",
"200 185 CURVE SMOOTH",
"200 536 LINE SMOOTH",
"200 607 OFFCURVE",
"243 677 OFFCURVE",
"323 677 CURVE SMOOTH",
"403 677 OFFCURVE",
"446 607 OFFCURVE",
"446 536 CURVE SMOOTH",
"446 185 LINE SMOOTH",
"446 108 OFFCURVE",
"416 50 OFFCURVE",
"379 24 CURVE",
"389 -2 LINE",
"552 20 OFFCURVE",
"616 165 OFFCURVE",
"616 354 CURVE SMOOTH",
"616 542 OFFCURVE",
"512 710 OFFCURVE",
"323 710 CURVE SMOOTH"
);
}
);
width = 636;
},
{
associatedMasterId = "FF6A36D6-AC67-41FE-A58D-2D1E84E0ACD0";
layerId = "87161DD3-ACA9-4DA9-B9D7-CB4F636F91B1";
width = 600;
},
{
layerId = "878EBA0B-B3D3-4EA2-BB74-EB37BB03E3E9";
paths = (
{
closed = 1;
nodes = (
"124 702 OFFCURVE",
"30 552 OFFCURVE",
"30 354 CURVE SMOOTH",
"30 165 OFFCURVE",
"84 20 OFFCURVE",
"187 -12 CURVE",
"197 14 LINE",
"130 30 OFFCURVE",
"100 128 OFFCURVE",
"100 225 CURVE SMOOTH",
"100 496 LINE SMOOTH",
"100 587 OFFCURVE",
"153 678 OFFCURVE",
"253 678 CURVE SMOOTH",
"353 678 OFFCURVE",
"406 587 OFFCURVE",
"406 496 CURVE SMOOTH",
"406 225 LINE SMOOTH",
"406 128 OFFCURVE",
"376 30 OFFCURVE",
"309 14 CURVE",
"319 -12 LINE",
"422 20 OFFCURVE",
"476 165 OFFCURVE",
"476 354 CURVE SMOOTH",
"476 552 OFFCURVE",
"382 702 OFFCURVE",
"253 702 CURVE SMOOTH"
);
}
);
width = 506;
}
);
},
{
color = 3;
export = 0;
glyphname = "on-georgian.001";
lastChange = "2017-03-23 19:27:14 +0000";
layers = (
{
layerId = "FF6A36D6-AC67-41FE-A58D-2D1E84E0ACD0";
width = 857;
},
{
associatedMasterId = "FF6A36D6-AC67-41FE-A58D-2D1E84E0ACD0";
layerId = "87161DD3-ACA9-4DA9-B9D7-CB4F636F91B1";
width = 600;
},
{
layerId = "878EBA0B-B3D3-4EA2-BB74-EB37BB03E3E9";
paths = (
{
closed = 1;
nodes = (
"314 572 LINE",
"306 615 OFFCURVE",
"268 710 OFFCURVE",
"175 710 CURVE SMOOTH",
"48 710 OFFCURVE",
"-36 552 OFFCURVE",
"-36 354 CURVE SMOOTH",
"-36 165 OFFCURVE",
"21 12 OFFCURVE",
"124 -10 CURVE",
"134 16 LINE",
"67 42 OFFCURVE",
"34 128 OFFCURVE",
"34 225 CURVE SMOOTH",
"34 496 LINE SMOOTH",
"34 587 OFFCURVE",
"87 677 OFFCURVE",
"175 677 CURVE SMOOTH",
"258 677 OFFCURVE",
"285 570 OFFCURVE",
"285 542 CURVE"
);
},
{
closed = 1;
nodes = (
"285 388 LINE",
"317 388 LINE",
"317 577 LINE",
"285 577 LINE"
);
},
{
closed = 1;
nodes = (
"317 570 OFFCURVE",
"344 677 OFFCURVE",
"427 677 CURVE SMOOTH",
"515 677 OFFCURVE",
"568 587 OFFCURVE",
"568 496 CURVE SMOOTH",
"568 225 LINE SMOOTH",
"568 128 OFFCURVE",
"534 42 OFFCURVE",
"467 16 CURVE",
"477 -10 LINE",
"580 12 OFFCURVE",
"638 165 OFFCURVE",
"638 354 CURVE SMOOTH",
"638 552 OFFCURVE",
"554 710 OFFCURVE",
"427 710 CURVE SMOOTH",
"334 710 OFFCURVE",
"306 615 OFFCURVE",
"288 572 CURVE",
"317 542 LINE"
);
},
{
closed = 1;
nodes = (
"300 334 LINE",
"340 334 LINE",
"340 353 LINE",
"327 353 OFFCURVE",
"317 365 OFFCURVE",
"317 378 CURVE",
"300 378 LINE"
);
},
{
closed = 1;
nodes = (
"285 378 LINE",
"285 365 OFFCURVE",
"275 353 OFFCURVE",
"262 353 CURVE",
"262 334 LINE",
"302 334 LINE",
"302 378 LINE"
);
}
);
width = 600;
}
);
},
{
color = 3;
export = 0;
glyphname = "char-georgian.001";
lastChange = "2017-03-23 19:27:11 +0000";
layers = (
{
layerId = "FF6A36D6-AC67-41FE-A58D-2D1E84E0ACD0";
width = 634;
},
{
associatedMasterId = "FF6A36D6-AC67-41FE-A58D-2D1E84E0ACD0";
layerId = "87161DD3-ACA9-4DA9-B9D7-CB4F636F91B1";
width = 600;
},
{
layerId = "878EBA0B-B3D3-4EA2-BB74-EB37BB03E3E9";
paths = (
{
closed = 1;
nodes = (
"334 361 OFFCURVE",
"434 306 OFFCURVE",
"434 206 CURVE SMOOTH",
"434 157 LINE SMOOTH",
"434 64 OFFCURVE",
"351 13 OFFCURVE",
"258 13 CURVE SMOOTH",
"167 13 OFFCURVE",
"99 64 OFFCURVE",
"99 137 CURVE SMOOTH",
"99 161 LINE SMOOTH",
"99 188 OFFCURVE",
"119 242 OFFCURVE",
"185 252 CURVE",
"172 272 LINE",
"89 254 OFFCURVE",
"30 213 OFFCURVE",
"30 150 CURVE SMOOTH",
"30 66 OFFCURVE",
"120 -10 OFFCURVE",
"258 -10 CURVE SMOOTH",
"400 -10 OFFCURVE",
"504 76 OFFCURVE",
"504 174 CURVE SMOOTH",
"504 274 OFFCURVE",
"436 329 OFFCURVE",
"326 388 CURVE SMOOTH",
"313 395 OFFCURVE",
"308 414 OFFCURVE",
"308 430 CURVE SMOOTH",
"308 480 OFFCURVE",
"352 480 OFFCURVE",
"352 522 CURVE SMOOTH",
"352 552 OFFCURVE",
"342 566 OFFCURVE",
"313 587 CURVE SMOOTH",
"258 627 LINE SMOOTH",
"240 640 OFFCURVE",
"218 684 OFFCURVE",
"209 702 CURVE",
"183 690 LINE",
"190 669 OFFCURVE",
"198 652 OFFCURVE",
"198 636 CURVE SMOOTH",
"198 602 OFFCURVE",
"193 593 OFFCURVE",
"143 560 CURVE",
"156 537 LINE",
"217 572 OFFCURVE",
"232 587 OFFCURVE",
"258 569 CURVE SMOOTH",
"301 540 LINE SMOOTH",
"327 522 OFFCURVE",
"306 483 OFFCURVE",
"294 458 CURVE SMOOTH",
"280 429 OFFCURVE",
"277 397 OFFCURVE",
"293 387 CURVE SMOOTH"
);
},
{
closed = 1;
nodes = (
"330 386 OFFCURVE",
"280 419 OFFCURVE",
"239 444 CURVE SMOOTH",
"190 474 OFFCURVE",
"109 454 OFFCURVE",
"107 392 CURVE SMOOTH",
"105 340 OFFCURVE",
"175 316 OFFCURVE",
"219 331 CURVE SMOOTH",
"242 339 OFFCURVE",
"273 360 OFFCURVE",
"311 394 CURVE SMOOTH",
"359 437 OFFCURVE",
"390 459 OFFCURVE",
"408 461 CURVE",
"410 458 LINE",
"405 441 OFFCURVE",
"422 434 OFFCURVE",
"432 434 CURVE SMOOTH",
"446 434 OFFCURVE",
"455 443 OFFCURVE",
"455 457 CURVE SMOOTH",
"455 473 OFFCURVE",
"446 486 OFFCURVE",
"426 486 CURVE SMOOTH",
"398 486 OFFCURVE",
"390 476 OFFCURVE",
"342 442 CURVE SMOOTH",
"283 400 OFFCURVE",
"245 359 OFFCURVE",
"208 350 CURVE SMOOTH",
"179 343 OFFCURVE",
"143 361 OFFCURVE",
"143 392 CURVE SMOOTH",
"143 422 OFFCURVE",
"174 433 OFFCURVE",
"197 433 CURVE SMOOTH",
"230 433 OFFCURVE",
"254 415 OFFCURVE",
"285 393 CURVE SMOOTH",
"325 365 OFFCURVE",
"393 351 OFFCURVE",
"353 373 CURVE SMOOTH"
);
}
);
width = 514;
}
);
},
{
export = 0;
glyphname = "las-georgian.case";
lastChange = "2017-03-23 19:26:21 +0000";
layers = (
{
backgroundImage = {
crop = "{{0, 0}, {281, 237}}";
imagePath = ../mtavruli/las.psd;
locked = "1";
transform = "{4.432, 0, 0, 4.432, -19, -168}";
};
layerId = "FF6A36D6-AC67-41FE-A58D-2D1E84E0ACD0";
paths = (
{
closed = 1;
nodes = (
"45 350 OFFCURVE",
"154 264 OFFCURVE",
"336 238 CURVE SMOOTH",
"343 237 LINE",
"297 220 OFFCURVE",
"250 178 OFFCURVE",
"250 126 CURVE SMOOTH",
"250 90 OFFCURVE",
"274 57 OFFCURVE",
"313 57 CURVE SMOOTH",
"341 57 OFFCURVE",
"364 79 OFFCURVE",
"364 105 CURVE SMOOTH",
"364 131 OFFCURVE",
"343 152 OFFCURVE",
"317 152 CURVE SMOOTH",
"308 152 OFFCURVE",
"299 149 OFFCURVE",
"292 145 CURVE",
"292 164 OFFCURVE",
"336 218 OFFCURVE",
"431 218 CURVE SMOOTH",
"516 218 OFFCURVE",
"606 178 OFFCURVE",
"606 98 CURVE SMOOTH",
"606 54 OFFCURVE",
"563 29 OFFCURVE",
"552 24 CURVE",
"563 0 LINE",
"788 0 LINE",
"777 51 OFFCURVE",
"757 98 OFFCURVE",
"703 153 CURVE SMOOTH",
"612 245 OFFCURVE",
"504 259 OFFCURVE",
"374 284 CURVE SMOOTH",
"260 306 OFFCURVE",
"215 398 OFFCURVE",
"215 499 CURVE SMOOTH",
"215 608 OFFCURVE",
"241 666 OFFCURVE",
"292 666 CURVE SMOOTH",
"352 666 OFFCURVE",
"373 608 OFFCURVE",
"373 519 CURVE SMOOTH",
"373 456 LINE SMOOTH",
"373 433 OFFCURVE",
"364 423 OFFCURVE",
"344 420 CURVE",
"344 395 LINE",
"542 395 LINE",
"542 420 LINE",
"522 423 OFFCURVE",
"513 436 OFFCURVE",
"513 456 CURVE SMOOTH",
"513 524 LINE SMOOTH",
"513 625 OFFCURVE",
"537 675 OFFCURVE",
"595 675 CURVE SMOOTH",
"655 675 OFFCURVE",
"675 623 OFFCURVE",
"675 524 CURVE SMOOTH",
"675 456 LINE SMOOTH",
"675 433 OFFCURVE",
"666 423 OFFCURVE",
"646 420 CURVE",
"646 395 LINE",
"844 395 LINE",
"844 420 LINE",
"824 423 OFFCURVE",
"815 436 OFFCURVE",
"815 456 CURVE SMOOTH",
"815 519 LINE SMOOTH",
"815 608 OFFCURVE",
"836 666 OFFCURVE",
"896 666 CURVE SMOOTH",
"947 666 OFFCURVE",
"973 608 OFFCURVE",
"973 499 CURVE SMOOTH",
"973 378 OFFCURVE",
"956 310 OFFCURVE",
"899 310 CURVE SMOOTH",
"886 310 OFFCURVE",
"871 310 OFFCURVE",
"854 324 CURVE",
"835 294 LINE",
"856 276 OFFCURVE",
"889 263 OFFCURVE",
"936 263 CURVE SMOOTH",
"1052 263 OFFCURVE",
"1143 350 OFFCURVE",
"1143 484 CURVE SMOOTH",
"1143 588 OFFCURVE",
"1049 702 OFFCURVE",
"914 702 CURVE SMOOTH",
"842 702 OFFCURVE",
"782 675 OFFCURVE",
"741 623 CURVE",
"717 672 OFFCURVE",
"664 710 OFFCURVE",
"594 710 CURVE SMOOTH",
"524 710 OFFCURVE",
"471 672 OFFCURVE",
"447 623 CURVE",
"406 673 OFFCURVE",
"356 702 OFFCURVE",
"274 702 CURVE SMOOTH",
"139 702 OFFCURVE",
"45 601 OFFCURVE",
"45 489 CURVE SMOOTH"
);
}
);
width = 1188;
},
{
associatedMasterId = "FF6A36D6-AC67-41FE-A58D-2D1E84E0ACD0";
backgroundImage = {
crop = "{{0, 0}, {281, 237}}";
imagePath = ../mtavruli/las.psd;
locked = "1";
transform = "{4.5, 0, 0, 4.5, -21, -168}";
};
layerId = "E2AFB91B-9027-45F4-B9E7-26A4F9F66BBC";
name = "Bold May 3 16, 19:19";
paths = (
{
closed = 1;
nodes = (
"326 296 LINE",
"285 315 OFFCURVE",
"210 357 OFFCURVE",
"210 499 CURVE SMOOTH",
"210 616 OFFCURVE",
"241 674 OFFCURVE",
"292 674 CURVE SMOOTH",
"352 674 OFFCURVE",
"373 616 OFFCURVE",
"373 499 CURVE",
"509 499 LINE",
"507 610 OFFCURVE",
"411 710 OFFCURVE",
"274 710 CURVE SMOOTH",
"139 710 OFFCURVE",
"50 608 OFFCURVE",
"50 496 CURVE SMOOTH",
"50 494 LINE SMOOTH",
"50 365 OFFCURVE",
"144 265 OFFCURVE",
"336 238 CURVE"
);
},
{
closed = 1;
nodes = (
"341 57 OFFCURVE",
"364 79 OFFCURVE",
"364 105 CURVE SMOOTH",
"364 131 OFFCURVE",
"343 152 OFFCURVE",
"317 152 CURVE SMOOTH",
"308 152 OFFCURVE",
"299 149 OFFCURVE",
"292 145 CURVE",
"292 168 OFFCURVE",
"311 230 OFFCURVE",
"505 216 CURVE",
"366 244 LINE",
"326 235 OFFCURVE",
"282 210 OFFCURVE",
"260 167 CURVE SMOOTH",
"235 118 OFFCURVE",
"259 57 OFFCURVE",
"313 57 CURVE SMOOTH"
);
},
{
closed = 1;
nodes = (
"703 0 LINE",
"788 0 LINE",
"777 51 OFFCURVE",
"757 98 OFFCURVE",
"703 153 CURVE SMOOTH",
"601 256 OFFCURVE",
"479 256 OFFCURVE",
"326 296 CURVE",
"336 238 LINE",
"414 229 LINE SMOOTH",
"454 224 OFFCURVE",
"538 203 OFFCURVE",
"565 176 CURVE SMOOTH",
"657 84 OFFCURVE",
"569 32 OFFCURVE",
"552 24 CURVE",
"570 0 LINE"
);
},
{
closed = 1;
nodes = (
"538 395 LINE",
"538 420 LINE",
"518 423 OFFCURVE",
"509 436 OFFCURVE",
"509 456 CURVE",
"509 499 LINE",
"373 499 LINE",
"373 456 LINE",
"373 433 OFFCURVE",
"364 423 OFFCURVE",
"344 420 CURVE",
"344 395 LINE"
);
},
{
closed = 1;
nodes = (
"509 395 LINE",
"509 504 LINE",
"373 504 LINE",
"373 395 LINE"
);
},
{
closed = 1;
nodes = (
"844 395 LINE",
"844 420 LINE",
"824 423 OFFCURVE",
"815 436 OFFCURVE",
"815 456 CURVE",
"815 499 LINE",
"679 499 LINE",
"679 456 LINE",
"679 433 OFFCURVE",
"670 423 OFFCURVE",
"650 420 CURVE",
"650 395 LINE"
);
},
{
closed = 1;
nodes = (
"815 395 LINE",
"815 504 LINE",
"679 504 LINE",
"679 395 LINE"
);
},
{
closed = 1;
nodes = (
"509 504 LINE",
"509 623 OFFCURVE",
"533 689 OFFCURVE",
"595 689 CURVE SMOOTH",
"655 689 OFFCURVE",
"679 621 OFFCURVE",
"679 504 CURVE",
"776 504 LINE",
"774 610 OFFCURVE",
"722 724 OFFCURVE",
"594 724 CURVE SMOOTH",
"466 724 OFFCURVE",
"414 610 OFFCURVE",
"412 504 CURVE"
);
},
{
closed = 1;
nodes = (
"1038 345 LINE",
"978 452 LINE",
"978 380 OFFCURVE",
"933 268 OFFCURVE",
"854 333 CURVE",
"854 333 LINE",
"830 300 LINE",
"866 270 OFFCURVE",
"947 238 OFFCURVE",
"1044 295 CURVE"
);
},
{
closed = 1;
nodes = (
"1068 278 OFFCURVE",
"1138 365 OFFCURVE",
"1138 494 CURVE SMOOTH",
"1138 496 LINE SMOOTH",
"1138 608 OFFCURVE",
"1049 710 OFFCURVE",
"914 710 CURVE SMOOTH",
"777 710 OFFCURVE",
"681 610 OFFCURVE",
"679 499 CURVE",
"815 499 LINE",
"815 616 OFFCURVE",
"836 674 OFFCURVE",
"896 674 CURVE SMOOTH",
"947 674 OFFCURVE",
"978 616 OFFCURVE",
"978 499 CURVE SMOOTH",
"978 421 OFFCURVE",
"977 300 OFFCURVE",
"951 294 CURVE",
"961 268 LINE"
);
}
);
width = 1188;
},
{
associatedMasterId = "FF6A36D6-AC67-41FE-A58D-2D1E84E0ACD0";
layerId = "87161DD3-ACA9-4DA9-B9D7-CB4F636F91B1";
width = 600;
},
{
layerId = "878EBA0B-B3D3-4EA2-BB74-EB37BB03E3E9";
width = 600;
}
);
},
{
glyphname = zero;
lastChange = "2017-03-23 18:13:00 +0000";
layers = (
{
layerId = "FF6A36D6-AC67-41FE-A58D-2D1E84E0ACD0";
paths = (
{
closed = 1;
nodes = (
"29 159 OFFCURVE",
"107 -12 OFFCURVE",
"295 -12 CURVE SMOOTH",
"483 -12 OFFCURVE",
"559 159 OFFCURVE",
"560 346 CURVE SMOOTH",
"561 532 OFFCURVE",
"483 702 OFFCURVE",
"295 702 CURVE SMOOTH",
"107 702 OFFCURVE",
"31 532 OFFCURVE",
"30 346 CURVE SMOOTH"
);
},
{
closed = 1;
nodes = (
"203 578 LINE SMOOTH",
"203 627 OFFCURVE",
"244 669 OFFCURVE",
"295 669 CURVE SMOOTH",
"343 669 OFFCURVE",
"385 627 OFFCURVE",
"385 578 CURVE SMOOTH",
"385 113 LINE SMOOTH",
"385 60 OFFCURVE",
"343 21 OFFCURVE",
"295 21 CURVE SMOOTH",
"244 21 OFFCURVE",
"203 61 OFFCURVE",
"203 113 CURVE SMOOTH"
);
}
);
width = 590;
},
{
associatedMasterId = "FF6A36D6-AC67-41FE-A58D-2D1E84E0ACD0";
layerId = "87161DD3-ACA9-4DA9-B9D7-CB4F636F91B1";
width = 600;
},
{
layerId = "878EBA0B-B3D3-4EA2-BB74-EB37BB03E3E9";
paths = (
{
closed = 1;
nodes = (
"81 149 OFFCURVE",
"175 -10 OFFCURVE",
"303 -10 CURVE SMOOTH",
"431 -10 OFFCURVE",
"525 149 OFFCURVE",
"526 345 CURVE SMOOTH",
"525 541 OFFCURVE",
"431 702 OFFCURVE",
"303 702 CURVE SMOOTH",
"175 702 OFFCURVE",
"81 541 OFFCURVE",
"80 345 CURVE SMOOTH"
);
},
{
closed = 1;
nodes = (
"150 496 LINE SMOOTH",
"150 587 OFFCURVE",
"203 678 OFFCURVE",
"303 678 CURVE SMOOTH",
"403 678 OFFCURVE",
"456 587 OFFCURVE",
"456 496 CURVE SMOOTH",
"456 196 LINE SMOOTH",
"456 105 OFFCURVE",
"403 14 OFFCURVE",
"303 14 CURVE SMOOTH",
"203 14 OFFCURVE",
"150 105 OFFCURVE",
"150 196 CURVE SMOOTH"
);
}
);
width = 600;
}
);
unicode = 0030;
},
{
glyphname = one;
lastChange = "2017-03-23 18:29:35 +0000";
layers = (
{
layerId = "FF6A36D6-AC67-41FE-A58D-2D1E84E0ACD0";
paths = (
{
closed = 0;
nodes = (
"573 672 LINE"
);
},
{
closed = 1;
nodes = (
"131 433 LINE",
"130 111 LINE",
"130 64 LINE SMOOTH",
"130 37 OFFCURVE",
"112 29 OFFCURVE",
"99 29 CURVE",
"99 0 LINE",
"329 0 LINE",
"329 30 LINE",
"311 30 OFFCURVE",
"301 37 OFFCURVE",
"301 64 CURVE SMOOTH",
"301 690 LINE",
"171 690 LINE",
"169 661 LINE SMOOTH",
"161 546 OFFCURVE",
"89 460 OFFCURVE",
"30 446 CURVE",
"30 413 LINE"
);
}
);
width = 349;
},
{
associatedMasterId = "FF6A36D6-AC67-41FE-A58D-2D1E84E0ACD0";
layerId = "87161DD3-ACA9-4DA9-B9D7-CB4F636F91B1";
width = 600;
},
{
layerId = "878EBA0B-B3D3-4EA2-BB74-EB37BB03E3E9";
paths = (
{
closed = 0;
nodes = (
"703 672 LINE"
);
},
{
closed = 1;
nodes = (
"330 479 LINE",
"330 64 LINE SMOOTH",
"330 37 OFFCURVE",
"312 29 OFFCURVE",
"299 29 CURVE",
"299 0 LINE",
"399 0 LINE",
"399 30 LINE",
"381 30 OFFCURVE",
"371 37 OFFCURVE",
"371 64 CURVE SMOOTH",
"371 690 LINE",
"335 690 LINE",
"334 661 LINE SMOOTH",
"330 546 OFFCURVE",
"305 479 OFFCURVE",
"230 446 CURVE",
"244 421 LINE"
);
}
);
width = 600;
}
);
unicode = 0031;
},
{
glyphname = two;
lastChange = "2017-03-23 18:53:02 +0000";
layers = (
{
layerId = "FF6A36D6-AC67-41FE-A58D-2D1E84E0ACD0";
paths = (
{
closed = 1;
nodes = (
"57 0 LINE",
"57 36 LINE SMOOTH",
"57 152 OFFCURVE",
"133 203 OFFCURVE",
"206 244 CURVE SMOOTH",
"343 321 OFFCURVE",
"516 373 OFFCURVE",
"516 517 CURVE SMOOTH",
"516 643 OFFCURVE",
"424 702 OFFCURVE",
"258 702 CURVE SMOOTH",
"111 702 OFFCURVE",
"50 633 OFFCURVE",
"50 572 CURVE SMOOTH",
"50 522 OFFCURVE",
"86 482 OFFCURVE",
"147 482 CURVE SMOOTH",
"198 482 OFFCURVE",
"244 522 OFFCURVE",
"244 572 CURVE SMOOTH",
"244 619 OFFCURVE",
"217 645 OFFCURVE",
"194 657 CURVE",
"209 667 OFFCURVE",
"232 677 OFFCURVE",
"258 677 CURVE SMOOTH",
"348 677 OFFCURVE",
"346 557 OFFCURVE",
"346 517 CURVE SMOOTH",
"346 299 OFFCURVE",
"30 323 OFFCURVE",
"30 17 CURVE SMOOTH",
"30 0 LINE"
);
},
{
closed = 1;
nodes = (
"57 60 OFFCURVE",
"86 107 OFFCURVE",
"131 107 CURVE SMOOTH",
"217 107 OFFCURVE",
"250 30 OFFCURVE",
"332 7 CURVE SMOOTH",
"381 -7 OFFCURVE",
"439 -2 OFFCURVE",
"480 48 CURVE SMOOTH",
"513 88 OFFCURVE",
"514 161 OFFCURVE",
"502 209 CURVE",
"479 206 LINE",
"479 137 OFFCURVE",
"398 134 OFFCURVE",
"331 181 CURVE SMOOTH",
"220 259 OFFCURVE",
"131 220 OFFCURVE",
"82 161 CURVE SMOOTH",
"39 109 OFFCURVE",
"30 71 OFFCURVE",
"30 0 CURVE",
"57 0 LINE"
);
}
);
width = 546;
},
{
associatedMasterId = "FF6A36D6-AC67-41FE-A58D-2D1E84E0ACD0";
layerId = "87161DD3-ACA9-4DA9-B9D7-CB4F636F91B1";
width = 600;
},
{
layerId = "878EBA0B-B3D3-4EA2-BB74-EB37BB03E3E9";
paths = (
{
closed = 1;
nodes = (
"360 678 OFFCURVE",
"455 661 OFFCURVE",
"455 534 CURVE SMOOTH",
"455 280 OFFCURVE",
"82 324 OFFCURVE",
"82 -10 CURVE",
"113 -10 LINE",
"113 316 OFFCURVE",
"519 290 OFFCURVE",
"514 522 CURVE SMOOTH",
"512 623 OFFCURVE",
"459 701 OFFCURVE",
"291 701 CURVE SMOOTH",
"216 701 OFFCURVE",
"116 643 OFFCURVE",
"116 580 CURVE SMOOTH",
"116 554 OFFCURVE",
"137 534 OFFCURVE",
"162 534 CURVE SMOOTH",
"187 534 OFFCURVE",
"208 554 OFFCURVE",
"208 580 CURVE SMOOTH",
"208 600 OFFCURVE",
"195 616 OFFCURVE",
"177 623 CURVE",
"200 655 OFFCURVE",
"238 678 OFFCURVE",
"291 678 CURVE SMOOTH"
);
},
{
closed = 1;
nodes = (
"127 38 OFFCURVE",
"172 97 OFFCURVE",
"233 97 CURVE SMOOTH",
"292 97 OFFCURVE",
"330 -10 OFFCURVE",
"418 -10 CURVE SMOOTH",
"468 -10 OFFCURVE",
"522 32 OFFCURVE",
"526 129 CURVE",
"504 126 LINE",
"504 37 OFFCURVE",
"405 30 OFFCURVE",
"353 81 CURVE SMOOTH",
"244 186 OFFCURVE",
"119 97 OFFCURVE",
"82 -10 CURVE",
"103 -10 LINE",
"110 -10 LINE"
);
}
);
width = 600;
}
);
unicode = 0032;
},
{
glyphname = three;
lastChange = "2017-03-23 18:25:48 +0000";
layers = (
{
layerId = "FF6A36D6-AC67-41FE-A58D-2D1E84E0ACD0";
paths = (
{
closed = 1;
nodes = (
"30 103 OFFCURVE",
"75 -12 OFFCURVE",
"245 -12 CURVE SMOOTH",
"409 -12 OFFCURVE",
"526 75 OFFCURVE",
"526 199 CURVE SMOOTH",
"526 321 OFFCURVE",
"426 375 OFFCURVE",
"363 385 CURVE",
"363 389 LINE",
"410 400 OFFCURVE",
"501 440 OFFCURVE",
"498 546 CURVE SMOOTH",
"495 641 OFFCURVE",
"403 702 OFFCURVE",
"265 702 CURVE SMOOTH",
"108 702 OFFCURVE",
"58 633 OFFCURVE",
"58 572 CURVE SMOOTH",
"58 522 OFFCURVE",
"97 482 OFFCURVE",
"155 482 CURVE SMOOTH",
"206 482 OFFCURVE",
"252 522 OFFCURVE",
"252 572 CURVE SMOOTH",
"252 619 OFFCURVE",
"225 645 OFFCURVE",
"202 657 CURVE",
"217 667 OFFCURVE",
"230 677 OFFCURVE",
"265 677 CURVE SMOOTH",
"320 677 OFFCURVE",
"341 618 OFFCURVE",
"341 572 CURVE SMOOTH",
"341 510 LINE SMOOTH",
"341 466 OFFCURVE",
"301 402 OFFCURVE",
"257 402 CURVE SMOOTH",
"252 402 LINE SMOOTH",
"233 402 OFFCURVE",
"223 412 OFFCURVE",
"223 430 CURVE",
"195 430 LINE",
"195 342 LINE",
"223 342 LINE",
"223 362 OFFCURVE",
"233 370 OFFCURVE",
"252 370 CURVE SMOOTH",
"257 370 LINE SMOOTH",
"307 370 OFFCURVE",
"352 341 OFFCURVE",
"352 257 CURVE SMOOTH",
"352 154 LINE SMOOTH",
"352 88 OFFCURVE",
"324 19 OFFCURVE",
"246 19 CURVE SMOOTH",
"174 19 OFFCURVE",
"146 49 OFFCURVE",
"133 73 CURVE",
"188 65 OFFCURVE",
"243 103 OFFCURVE",
"243 174 CURVE SMOOTH",
"243 233 OFFCURVE",
"207 276 OFFCURVE",
"136 276 CURVE SMOOTH",
"83 276 OFFCURVE",
"30 226 OFFCURVE",
"30 162 CURVE SMOOTH"
);
}
);
width = 546;
},
{
associatedMasterId = "FF6A36D6-AC67-41FE-A58D-2D1E84E0ACD0";
layerId = "510F2644-416F-4C09-BD8A-C290835C18B9";
name = "Jan 6 17, 00:02";
paths = (
{
closed = 1;
nodes = (
"10 91 OFFCURVE",
"119 -12 OFFCURVE",
"290 -12 CURVE SMOOTH",
"452 -12 OFFCURVE",
"594 57 OFFCURVE",
"594 197 CURVE SMOOTH",
"594 329 OFFCURVE",
"474 385 OFFCURVE",
"411 395 CURVE",
"411 399 LINE",
"475 399 OFFCURVE",
"559 461 OFFCURVE",
"556 546 CURVE SMOOTH",
"553 641 OFFCURVE",
"471 702 OFFCURVE",
"303 702 CURVE SMOOTH",
"146 702 OFFCURVE",
"86 633 OFFCURVE",
"86 572 CURVE SMOOTH",
"86 522 OFFCURVE",
"125 482 OFFCURVE",
"183 482 CURVE SMOOTH",
"234 482 OFFCURVE",
"280 522 OFFCURVE",
"280 572 CURVE SMOOTH",
"280 619 OFFCURVE",
"253 645 OFFCURVE",
"230 657 CURVE",
"245 667 OFFCURVE",
"268 677 OFFCURVE",
"303 677 CURVE SMOOTH",
"372 677 OFFCURVE",
"389 618 OFFCURVE",
"389 572 CURVE SMOOTH",
"389 510 LINE SMOOTH",
"389 466 OFFCURVE",
"369 412 OFFCURVE",
"325 412 CURVE SMOOTH",
"320 412 LINE SMOOTH",
"301 412 OFFCURVE",
"291 422 OFFCURVE",
"291 440 CURVE",
"263 440 LINE",
"263 352 LINE",
"291 352 LINE",
"291 372 OFFCURVE",
"301 380 OFFCURVE",
"320 380 CURVE SMOOTH",
"325 380 LINE SMOOTH",
"375 380 OFFCURVE",
"424 331 OFFCURVE",
"424 237 CURVE SMOOTH",
"424 179 LINE SMOOTH",
"424 78 OFFCURVE",
"380 24 OFFCURVE",
"299 23 CURVE SMOOTH",
"216 22 OFFCURVE",
"179 88 OFFCURVE",
"179 179 CURVE SMOOTH",
"179 237 OFFCURVE",
"184 277 OFFCURVE",
"219 299 CURVE",
"197 332 LINE",
"88 322 OFFCURVE",
"10 257 OFFCURVE",
"10 179 CURVE SMOOTH"
);
}
);
visible = 1;
width = 600;
},
{
associatedMasterId = "FF6A36D6-AC67-41FE-A58D-2D1E84E0ACD0";
layerId = "87161DD3-ACA9-4DA9-B9D7-CB4F636F91B1";
width = 600;
},
{
layerId = "878EBA0B-B3D3-4EA2-BB74-EB37BB03E3E9";
paths = (
{
closed = 1;
nodes = (
"107 74 OFFCURVE",
"193 -10 OFFCURVE",
"313 -10 CURVE SMOOTH",
"440 -10 OFFCURVE",
"544 80 OFFCURVE",
"544 196 CURVE SMOOTH",
"544 309 OFFCURVE",
"486 371 OFFCURVE",
"407 395 CURVE",
"407 399 LINE",
"455 416 OFFCURVE",
"502 463 OFFCURVE",
"502 536 CURVE SMOOTH",
"502 642 OFFCURVE",
"419 701 OFFCURVE",
"324 701 CURVE SMOOTH",
"320 701 LINE SMOOTH",
"227 699 OFFCURVE",
"149 643 OFFCURVE",
"149 581 CURVE SMOOTH",
"149 555 OFFCURVE",
"170 535 OFFCURVE",
"195 535 CURVE SMOOTH",
"220 535 OFFCURVE",
"241 555 OFFCURVE",
"241 581 CURVE SMOOTH",
"241 601 OFFCURVE",
"228 617 OFFCURVE",
"210 624 CURVE",
"232 655 OFFCURVE",
"269 677 OFFCURVE",
"320 678 CURVE SMOOTH",
"324 678 LINE SMOOTH",
"413 678 OFFCURVE",
"449 614 OFFCURVE",
"449 536 CURVE SMOOTH",
"449 454.895 OFFCURVE",
"400.083 416.482 OFFCURVE",
"353.415 411.533 CURVE",
"328.875 413.54 OFFCURVE",
"316 421.548 OFFCURVE",
"316 441 CURVE",
"297 441 LINE",
"297 351 LINE",
"316 351 LINE",
"316 370.093 OFFCURVE",
"329.557 378.641 OFFCURVE",
"355.363 380.567 CURVE",
"432.139 374.638 OFFCURVE",
"474 308.684 OFFCURVE",
"474 240 CURVE SMOOTH",
"474 165 LINE SMOOTH",
"474 80 OFFCURVE",
"402 15 OFFCURVE",
"313 13 CURVE SMOOTH",
"222 10 OFFCURVE",
"138 90 OFFCURVE",
"138 161 CURVE SMOOTH",
"138 171 LINE",
"141 175 LINE",
"157 165 OFFCURVE",
"173 164 OFFCURVE",
"189 175 CURVE SMOOTH",
"210 190 OFFCURVE",
"216 218 OFFCURVE",
"202 239 CURVE SMOOTH",
"188 259 OFFCURVE",
"161 264 OFFCURVE",
"138 251 CURVE SMOOTH",
"112 236 OFFCURVE",
"102 211 OFFCURVE",
"103 171 CURVE SMOOTH"
);
}
);
width = 600;
}
);
unicode = 0033;
},
{
glyphname = four;
lastChange = "2017-03-23 18:33:53 +0000";
layers = (
{
layerId = "FF6A36D6-AC67-41FE-A58D-2D1E84E0ACD0";
paths = (
{
closed = 0;
nodes = (
"688 672 LINE"
);
},
{
closed = 1;
nodes = (
"295 144 LINE",
"295 64 LINE SMOOTH",
"295 37 OFFCURVE",
"277 29 OFFCURVE",
"264 29 CURVE",
"264 0 LINE",
"494 0 LINE",
"494 30 LINE",
"476 30 OFFCURVE",
"466 37 OFFCURVE",
"466 64 CURVE SMOOTH",
"466 144 LINE",
"555 144 LINE",
"555 179 LINE",
"466 179 LINE",
"466 690 LINE",
"336 690 LINE",
"264 407 OFFCURVE",
"72 220 OFFCURVE",
"31 179 CURVE",
"30 179 LINE",
"30 144 LINE"
);
},
{
closed = 1;
nodes = (
"89 184 LINE",
"155 248 OFFCURVE",
"249 355 OFFCURVE",
"287 452 CURVE",
"296 452 LINE",
"295 179 LINE",
"89 179 LINE"
);
}
);
width = 585;
},
{
associatedMasterId = "FF6A36D6-AC67-41FE-A58D-2D1E84E0ACD0";
layerId = "87161DD3-ACA9-4DA9-B9D7-CB4F636F91B1";
width = 600;
},
{
layerId = "878EBA0B-B3D3-4EA2-BB74-EB37BB03E3E9";
paths = (
{
closed = 1;
nodes = (
"385 144 LINE",
"385 64 LINE SMOOTH",
"385 37 OFFCURVE",
"367 29 OFFCURVE",
"354 29 CURVE",
"354 0 LINE",
"454 0 LINE",
"454 30 LINE",
"436 30 OFFCURVE",
"426 37 OFFCURVE",
"426 64 CURVE SMOOTH",
"426 144 LINE",
"515 144 LINE",
"515 169 LINE",
"426 169 LINE",
"425 690 LINE",
"393 690 LINE",
"391 475 OFFCURVE",
"126 186 OFFCURVE",
"63 159 CURVE",
"62 159 LINE",
"62 144 LINE"
);
},
{
closed = 1;
nodes = (
"129 174 LINE",
"195 238 OFFCURVE",
"339 423 OFFCURVE",
"377 520 CURVE",
"386 520 LINE",
"385 169 LINE",
"129 169 LINE"
);
}
);
width = 600;
}
);
unicode = 0034;
},
{
glyphname = five;
lastChange = "2017-03-23 18:50:08 +0000";
layers = (
{
guideLines = (
{
position = "{1178, 395}";
}
);
layerId = "FF6A36D6-AC67-41FE-A58D-2D1E84E0ACD0";
paths = (
{
closed = 1;
nodes = (
"30 67 OFFCURVE",
"138 -12 OFFCURVE",
"272 -12 CURVE SMOOTH",
"437 -12 OFFCURVE",
"536 85 OFFCURVE",
"536 228 CURVE SMOOTH",
"536 374 OFFCURVE",
"394 437 OFFCURVE",
"278 437 CURVE SMOOTH",
"238 437 OFFCURVE",
"203 435 OFFCURVE",
"161 424 CURVE",
"182 563 LINE",
"124 691 LINE",
"83 372 LINE",
"153 372 LINE",
"196 389 OFFCURVE",
"205 402 OFFCURVE",
"255 402 CURVE SMOOTH",
"334 402 OFFCURVE",
"366 350 OFFCURVE",
"366 257 CURVE SMOOTH",
"366 134 LINE SMOOTH",
"366 68 OFFCURVE",
"329 23 OFFCURVE",
"272 23 CURVE SMOOTH",
"211 23 OFFCURVE",
"175 68 OFFCURVE",
"175 135 CURVE SMOOTH",
"175 197 LINE",
"173 255 OFFCURVE",
"184 277 OFFCURVE",
"211 299 CURVE",
"197 318 LINE",
"88 322 OFFCURVE",
"30 247 OFFCURVE",
"30 169 CURVE SMOOTH"
);
},
{
closed = 1;
nodes = (
"124 691 LINE",
"147 624 LINE SMOOTH",
"184 517 OFFCURVE",
"255 444 OFFCURVE",
"360 523 CURVE SMOOTH",
"424 571 OFFCURVE",
"502 567 OFFCURVE",
"502 498 CURVE",
"524 495 LINE",
"536 543 OFFCURVE",
"534 616 OFFCURVE",
"503 656 CURVE SMOOTH",
"464 707 OFFCURVE",
"408 711 OFFCURVE",
"361 697 CURVE SMOOTH",
"283 674 OFFCURVE",
"181 568 OFFCURVE",
"154 665 CURVE SMOOTH",
"147 690 LINE"
);
}
);
width = 566;
},
{
associatedMasterId = "FF6A36D6-AC67-41FE-A58D-2D1E84E0ACD0";
guideLines = (
{
position = "{1213, 395}";
}
);
layerId = "AFD1D467-DE5E-4CF3-B250-1D712E68DB00";
name = "Jan 5 17, 23:24";
paths = (
{
closed = 1;
nodes = (
"45 77 OFFCURVE",
"173 -12 OFFCURVE",
"307 -12 CURVE SMOOTH",
"462 -12 OFFCURVE",
"561 85 OFFCURVE",
"561 228 CURVE SMOOTH",
"561 374 OFFCURVE",
"419 437 OFFCURVE",
"313 437 CURVE SMOOTH",
"263 437 OFFCURVE",
"232 434 OFFCURVE",
"194 415 CURVE",
"238 587 LINE",
"320 552 OFFCURVE",
"432 519 OFFCURVE",
"539 566 CURVE",
"559 689 LINE",
"558 689 LINE",
"558 690 LINE",
"188 690 LINE",
"108 372 LINE",
"178 372 LINE",
"201 389 OFFCURVE",
"225 402 OFFCURVE",
"275 402 CURVE SMOOTH",
"344 402 OFFCURVE",
"391 350 OFFCURVE",
"391 257 CURVE SMOOTH",
"391 134 LINE SMOOTH",
"391 68 OFFCURVE",
"354 23 OFFCURVE",
"307 23 CURVE SMOOTH",
"246 23 OFFCURVE",
"210 68 OFFCURVE",
"210 135 CURVE SMOOTH",
"210 197 LINE",
"208 255 OFFCURVE",
"219 277 OFFCURVE",
"254 299 CURVE",
"232 332 LINE",
"123 322 OFFCURVE",
"45 257 OFFCURVE",
"45 179 CURVE SMOOTH"
);
}
);
width = 600;
},
{
associatedMasterId = "FF6A36D6-AC67-41FE-A58D-2D1E84E0ACD0";
guideLines = (
{
position = "{1213, 395}";
}
);
layerId = "2A7807A6-9365-406B-BECC-A62A3FE2B08A";
name = "Jan 5 17, 23:24";
paths = (
{
closed = 1;
nodes = (
"45 77 OFFCURVE",
"173 -12 OFFCURVE",
"307 -12 CURVE SMOOTH",
"462 -12 OFFCURVE",
"561 85 OFFCURVE",
"561 228 CURVE SMOOTH",
"561 374 OFFCURVE",
"419 437 OFFCURVE",
"313 437 CURVE SMOOTH",
"263 437 OFFCURVE",
"232 434 OFFCURVE",
"194 415 CURVE",
"238 587 LINE",
"320 552 OFFCURVE",
"432 519 OFFCURVE",
"539 566 CURVE",
"559 689 LINE",
"558 689 LINE",
"558 690 LINE",
"188 690 LINE",
"108 372 LINE",
"178 372 LINE",
"201 389 OFFCURVE",
"225 402 OFFCURVE",
"275 402 CURVE SMOOTH",
"344 402 OFFCURVE",
"391 350 OFFCURVE",
"391 257 CURVE SMOOTH",
"391 134 LINE SMOOTH",
"391 68 OFFCURVE",
"354 23 OFFCURVE",
"307 23 CURVE SMOOTH",
"246 23 OFFCURVE",
"210 68 OFFCURVE",
"210 135 CURVE SMOOTH",
"210 197 LINE",
"208 255 OFFCURVE",
"219 277 OFFCURVE",
"254 299 CURVE",
"232 332 LINE",
"123 322 OFFCURVE",
"45 257 OFFCURVE",
"45 179 CURVE SMOOTH"
);
}
);
width = 600;
},
{
associatedMasterId = "FF6A36D6-AC67-41FE-A58D-2D1E84E0ACD0";
layerId = "87161DD3-ACA9-4DA9-B9D7-CB4F636F91B1";
width = 600;
},
{
layerId = "878EBA0B-B3D3-4EA2-BB74-EB37BB03E3E9";
paths = (
{
closed = 1;
nodes = (
"161 690 LINE",
"186 582 OFFCURVE",
"264 529 OFFCURVE",
"358 623 CURVE SMOOTH",
"406 671 OFFCURVE",
"526 643 OFFCURVE",
"526 568 CURVE",
"549 565 LINE",
"545 662 OFFCURVE",
"488 704 OFFCURVE",
"436 704 CURVE SMOOTH",
"344 704 OFFCURVE",
"314 607 OFFCURVE",
"253 607 CURVE SMOOTH",
"225 607 OFFCURVE",
"193 643 OFFCURVE",
"193 691 CURVE"
);
},
{
closed = 1;
nodes = (
"120 372 LINE",
"156 372 LINE",
"196 406 OFFCURVE",
"271 414 OFFCURVE",
"296 412 CURVE SMOOTH",
"373 406 OFFCURVE",
"454 369 OFFCURVE",
"454 240 CURVE SMOOTH",
"454 165 LINE SMOOTH",
"454 80 OFFCURVE",
"382 15 OFFCURVE",
"293 13 CURVE SMOOTH",
"202 11 OFFCURVE",
"118 90 OFFCURVE",
"118 161 CURVE SMOOTH",
"118 171 LINE",
"121 175 LINE",
"137 165 OFFCURVE",
"153 164 OFFCURVE",
"169 175 CURVE SMOOTH",
"190 190 OFFCURVE",
"196 218 OFFCURVE",
"182 239 CURVE SMOOTH",
"168 259 OFFCURVE",
"141 264 OFFCURVE",
"118 251 CURVE SMOOTH",
"92 236 OFFCURVE",
"82 211 OFFCURVE",
"83 171 CURVE SMOOTH",
"85 74 OFFCURVE",
"173 -10 OFFCURVE",
"293 -10 CURVE SMOOTH",
"420 -10 OFFCURVE",
"524 80 OFFCURVE",
"524 196 CURVE SMOOTH",
"524 320 OFFCURVE",
"450 437 OFFCURVE",
"293 437 CURVE SMOOTH",
"204 437 OFFCURVE",
"145 410 OFFCURVE",
"123 387 CURVE"
);
},
{
closed = 1;
nodes = (
"191 690 LINE",
"161 691 LINE",
"120 372 LINE",
"156 372 LINE"
);
}
);
width = 600;
}
);
unicode = 0035;
},
{
glyphname = six;
lastChange = "2017-03-23 19:03:19 +0000";
layers = (
{
layerId = "FF6A36D6-AC67-41FE-A58D-2D1E84E0ACD0";
paths = (
{
closed = 1;
nodes = (
"561 374 OFFCURVE",
"449 437 OFFCURVE",
"328 437 CURVE SMOOTH",
"274 437 OFFCURVE",
"244 421 OFFCURVE",
"218 403 CURVE",
"214 403 LINE",
"214 517 LINE SMOOTH",
"214 583 OFFCURVE",
"242 677 OFFCURVE",
"322 677 CURVE SMOOTH",
"348 677 OFFCURVE",
"371 667 OFFCURVE",
"386 657 CURVE",
"363 645 OFFCURVE",
"336 619 OFFCURVE",
"336 572 CURVE SMOOTH",
"336 522 OFFCURVE",
"382 482 OFFCURVE",
"433 482 CURVE SMOOTH",
"494 482 OFFCURVE",
"530 522 OFFCURVE",
"530 572 CURVE SMOOTH",
"530 633 OFFCURVE",
"469 702 OFFCURVE",
"322 702 CURVE SMOOTH",
"141 702 OFFCURVE",
"44 576 OFFCURVE",
"44 346 CURVE SMOOTH",
"44 130 OFFCURVE",
"140 -12 OFFCURVE",
"307 -12 CURVE SMOOTH",
"449 -12 OFFCURVE",
"561 81 OFFCURVE",
"561 228 CURVE"
);
},
{
closed = 1;
nodes = (
"391 68 OFFCURVE",
"354 23 OFFCURVE",
"300 23 CURVE SMOOTH",
"246 23 OFFCURVE",
"211 68 OFFCURVE",
"211 134 CURVE SMOOTH",
"211 344 LINE",
"237 374 OFFCURVE",
"269 392 OFFCURVE",
"300 392 CURVE SMOOTH",
"354 392 OFFCURVE",
"391 352 OFFCURVE",
"391 287 CURVE SMOOTH",
"391 134 LINE SMOOTH"
);
}
);
width = 600;
},
{
associatedMasterId = "FF6A36D6-AC67-41FE-A58D-2D1E84E0ACD0";
layerId = "87161DD3-ACA9-4DA9-B9D7-CB4F636F91B1";
width = 600;
},
{
layerId = "878EBA0B-B3D3-4EA2-BB74-EB37BB03E3E9";
paths = (
{
closed = 1;
nodes = (
"533 343 OFFCURVE",
"443 421 OFFCURVE",
"316 421 CURVE SMOOTH",
"258 421 OFFCURVE",
"200 394 OFFCURVE",
"158 340 CURVE",
"158 485 LINE SMOOTH",
"158 598 OFFCURVE",
"221 678 OFFCURVE",
"322 678 CURVE SMOOTH",
"375 678 OFFCURVE",
"413 655 OFFCURVE",
"436 623 CURVE",
"418 616 OFFCURVE",
"405 600 OFFCURVE",
"405 580 CURVE SMOOTH",
"405 554 OFFCURVE",
"426 534 OFFCURVE",
"451 534 CURVE SMOOTH",
"476 534 OFFCURVE",
"497 554 OFFCURVE",
"497 580 CURVE SMOOTH",
"497 643 OFFCURVE",
"397 701 OFFCURVE",
"322 701 CURVE SMOOTH",
"154 701 OFFCURVE",
"88 547 OFFCURVE",
"88 356 CURVE SMOOTH",
"88 112 OFFCURVE",
"182 -10 OFFCURVE",
"313 -10 CURVE SMOOTH",
"440 -10 OFFCURVE",
"533 84 OFFCURVE",
"533 211 CURVE SMOOTH"
);
},
{
closed = 1;
nodes = (
"463 186 LINE SMOOTH",
"463 112 OFFCURVE",
"418 13 OFFCURVE",
"313 13 CURVE SMOOTH",
"215 13 OFFCURVE",
"157 112 OFFCURVE",
"157 219 CURVE SMOOTH",
"157 230 LINE SMOOTH",
"157 333 OFFCURVE",
"221 395 OFFCURVE",
"316 395 CURVE SMOOTH",
"422 395 OFFCURVE",
"463 315 OFFCURVE",
"463 235 CURVE SMOOTH"
);
}
);
width = 600;
}
);
unicode = 0036;
},
{
glyphname = seven;
lastChange = "2017-03-23 18:39:34 +0000";
layers = (
{
layerId = "FF6A36D6-AC67-41FE-A58D-2D1E84E0ACD0";
paths = (
{
closed = 1;
nodes = (
"479 704 LINE",
"399 556 LINE",
"276 364 OFFCURVE",
"220 271 OFFCURVE",
"165 64 CURVE SMOOTH",
"157 34 OFFCURVE",
"143 29 OFFCURVE",
"130 29 CURVE",
"130 0 LINE",
"360 0 LINE",
"360 30 LINE",
"342 30 OFFCURVE",
"343 43 OFFCURVE",
"339 71 CURVE SMOOTH",
"319 219 OFFCURVE",
"385 425 OFFCURVE",
"452 576 CURVE SMOOTH",
"508 702 LINE"
);
},
{
closed = 1;
nodes = (
"454 656 OFFCURVE",
"423 627 OFFCURVE",
"398 627 CURVE SMOOTH",
"312 627 OFFCURVE",
"289 674 OFFCURVE",
"207 697 CURVE SMOOTH",
"158 711 OFFCURVE",
"100 706 OFFCURVE",
"59 656 CURVE SMOOTH",
"26 616 OFFCURVE",
"25 543 OFFCURVE",
"37 495 CURVE",
"60 498 LINE",
"60 587 OFFCURVE",
"151 571 OFFCURVE",
"218 523 CURVE SMOOTH",
"328 444 OFFCURVE",
"405 557 OFFCURVE",
"427 583 CURVE SMOOTH",
"470 633 OFFCURVE",
"479 633 OFFCURVE",
"479 704 CURVE",
"472 704 LINE"
);
}
);
width = 508;
},
{
associatedMasterId = "FF6A36D6-AC67-41FE-A58D-2D1E84E0ACD0";
layerId = "183B9BA0-D32C-4E66-8E0C-FA25331D5A2E";
name = "Jan 5 17, 23:05";
paths = (
{
closed = 1;
nodes = (
"152 484 OFFCURVE",
"285 541 OFFCURVE",
"466 576 CURVE",
"346 374 OFFCURVE",
"260 201 OFFCURVE",
"198 64 CURVE SMOOTH",
"185 35 OFFCURVE",
"180 29 OFFCURVE",
"167 29 CURVE",
"167 0 LINE",
"407 0 LINE",
"407 30 LINE",
"389 30 OFFCURVE",
"379 41 OFFCURVE",
"379 64 CURVE SMOOTH",
"379 64 OFFCURVE",
"408 250 OFFCURVE",
"519 576 CURVE",
"519 690 OFFCURVE",
"519 690 OFFCURVE",
"519 690 CURVE",
"94 689 LINE",
"94 546 LINE"
);
}
);
width = 600;
},
{
associatedMasterId = "FF6A36D6-AC67-41FE-A58D-2D1E84E0ACD0";
layerId = "87161DD3-ACA9-4DA9-B9D7-CB4F636F91B1";
width = 600;
},
{
layerId = "878EBA0B-B3D3-4EA2-BB74-EB37BB03E3E9";
paths = (
{
closed = 1;
nodes = (
"529 704 LINE",
"439 555 LINE SMOOTH",
"329 373 OFFCURVE",
"302 233 OFFCURVE",
"275 64 CURVE SMOOTH",
"270 33 OFFCURVE",
"253 29 OFFCURVE",
"240 29 CURVE",
"240 0 LINE",
"350 0 LINE",
"350 30 LINE",
"332 30 OFFCURVE",
"328 43 OFFCURVE",
"329 71 CURVE SMOOTH",
"333 176 OFFCURVE",
"356 390 OFFCURVE",
"499 595 CURVE SMOOTH",
"506 606 OFFCURVE",
"527 636 OFFCURVE",
"558 678 CURVE"
);
},
{
closed = 1;
nodes = (
"504 656 OFFCURVE",
"443 597 OFFCURVE",
"393 597 CURVE SMOOTH",
"332 597 OFFCURVE",
"282 704 OFFCURVE",
"190 704 CURVE SMOOTH",
"138 704 OFFCURVE",
"81 662 OFFCURVE",
"77 565 CURVE",
"100 568 LINE",
"100 657 OFFCURVE",
"209 660 OFFCURVE",
"268 603 CURVE SMOOTH",
"378 495 OFFCURVE",
"485 597 OFFCURVE",
"558 678 CURVE",
"529 704 LINE",
"522 704 LINE"
);
}
);
width = 600;
}
);
unicode = 0037;
},
{
glyphname = eight;
lastChange = "2017-03-23 19:02:56 +0000";
layers = (
{
layerId = "FF6A36D6-AC67-41FE-A58D-2D1E84E0ACD0";
paths = (
{
closed = 1;
nodes = (
"30 71 OFFCURVE",
"139 -12 OFFCURVE",
"291 -12 CURVE SMOOTH",
"440 -12 OFFCURVE",
"546 69 OFFCURVE",
"546 177 CURVE SMOOTH",
"546 273 OFFCURVE",
"482 341 OFFCURVE",
"344 392 CURVE",
"420 435 OFFCURVE",
"495 472 OFFCURVE",
"495 559 CURVE SMOOTH",
"495 649 OFFCURVE",
"386 702 OFFCURVE",
"282 702 CURVE SMOOTH",
"173 702 OFFCURVE",
"72 649 OFFCURVE",
"72 559 CURVE SMOOTH",
"72 456 OFFCURVE",
"200 410 OFFCURVE",
"220 397 CURVE",
"170 375 OFFCURVE",
"30 307 OFFCURVE",
"30 178 CURVE SMOOTH"
);
},
{
closed = 1;
nodes = (
"200 202 LINE SMOOTH",
"202 291 OFFCURVE",
"250 319 OFFCURVE",
"296 357 CURVE",
"375 307 OFFCURVE",
"381 238 OFFCURVE",
"381 202 CURVE SMOOTH",
"381 135 LINE SMOOTH",
"381 62 OFFCURVE",
"339 23 OFFCURVE",
"291 23 CURVE SMOOTH",
"241 23 OFFCURVE",
"198 63 OFFCURVE",
"199 135 CURVE SMOOTH"
);
},
{
closed = 1;
nodes = (
"207 629 OFFCURVE",
"232 667 OFFCURVE",
"280 667 CURVE SMOOTH",
"327 667 OFFCURVE",
"346 629 OFFCURVE",
"346 586 CURVE SMOOTH",
"346 559 LINE SMOOTH",
"346 491 OFFCURVE",
"308 455 OFFCURVE",
"263 423 CURVE",
"227 445 OFFCURVE",
"210 499 OFFCURVE",
"209 540 CURVE SMOOTH",
"208 586 LINE SMOOTH"
);
}
);
width = 576;
},
{
associatedMasterId = "FF6A36D6-AC67-41FE-A58D-2D1E84E0ACD0";
layerId = "87161DD3-ACA9-4DA9-B9D7-CB4F636F91B1";
width = 600;
},
{
layerId = "878EBA0B-B3D3-4EA2-BB74-EB37BB03E3E9";
paths = (
{
closed = 1;
nodes = (
"164 636 OFFCURVE",
"211 677 OFFCURVE",
"286.5 677.211 CURVE SMOOTH",
"362 677 OFFCURVE",
"409 636 OFFCURVE",
"409 554 CURVE SMOOTH",
"409 475 OFFCURVE",
"352 440 OFFCURVE",
"293 407 CURVE",
"291 406 OFFCURVE",
"289 405 OFFCURVE",
"287 404 CURVE",
"200 449 OFFCURVE",
"164 486 OFFCURVE",
"164 554 CURVE SMOOTH"
);
},
{
closed = 1;
nodes = (
"74 73 OFFCURVE",
"178 -10 OFFCURVE",
"300 -10 CURVE SMOOTH",
"422 -10 OFFCURVE",
"509 93 OFFCURVE",
"509 176 CURVE SMOOTH",
"509 288 OFFCURVE",
"416 358 OFFCURVE",
"327 391 CURVE",
"327 394 LINE",
"385 427 OFFCURVE",
"462 483 OFFCURVE",
"462 556 CURVE SMOOTH",
"462 643 OFFCURVE",
"368 701 OFFCURVE",
"286 701 CURVE SMOOTH",
"207 701 OFFCURVE",
"111 645 OFFCURVE",
"111 556 CURVE SMOOTH",
"111 483 OFFCURVE",
"191 432 OFFCURVE",
"259 396 CURVE",
"259 393 LINE",
"160 344 OFFCURVE",
"74 289 OFFCURVE",
"74 176 CURVE SMOOTH"
);
},
{
closed = 1;
nodes = (
"144 185 LINE SMOOTH",
"144 299 OFFCURVE",
"221 341 OFFCURVE",
"288 377 CURVE",
"297 380 LINE",
"420 338 OFFCURVE",
"439 260 OFFCURVE",
"439 185 CURVE SMOOTH",
"439 145 LINE SMOOTH",
"439 63 OFFCURVE",
"383 13 OFFCURVE",
"300 13 CURVE SMOOTH",
"209 13 OFFCURVE",
"144 63 OFFCURVE",
"144 145 CURVE SMOOTH"
);
}
);
width = 600;
}
);
unicode = 0038;
},
{
glyphname = nine;
lastChange = "2017-03-23 18:14:16 +0000";
layers = (
{
layerId = "FF6A36D6-AC67-41FE-A58D-2D1E84E0ACD0";
paths = (
{
closed = 1;
nodes = (
"42 316 OFFCURVE",
"154 253 OFFCURVE",
"275 253 CURVE SMOOTH",
"329 253 OFFCURVE",
"359 269 OFFCURVE",
"385 287 CURVE",
"389 287 LINE",
"389 173 LINE SMOOTH",
"389 107 OFFCURVE",
"361 13 OFFCURVE",
"281 13 CURVE SMOOTH",
"231 13 OFFCURVE",
"212 37 OFFCURVE",
"197 61 CURVE",
"220 73 OFFCURVE",
"247 99 OFFCURVE",
"247 146 CURVE SMOOTH",
"247 196 OFFCURVE",
"201 236 OFFCURVE",
"150 236 CURVE SMOOTH",
"97 236 OFFCURVE",
"54 196 OFFCURVE",
"54 132 CURVE SMOOTH",
"54 73 OFFCURVE",
"112 -12 OFFCURVE",
"281 -12 CURVE SMOOTH",
"462 -12 OFFCURVE",
"559 114 OFFCURVE",
"559 344 CURVE SMOOTH",
"559 560 OFFCURVE",
"463 702 OFFCURVE",
"296 702 CURVE SMOOTH",
"154 702 OFFCURVE",
"42 609 OFFCURVE",
"42 462 CURVE"
);
},
{
closed = 1;
nodes = (
"212 622 OFFCURVE",
"249 667 OFFCURVE",
"303 667 CURVE SMOOTH",
"357 667 OFFCURVE",
"392 622 OFFCURVE",
"392 556 CURVE SMOOTH",
"392 346 LINE",
"366 316 OFFCURVE",
"334 298 OFFCURVE",
"303 298 CURVE SMOOTH",
"249 298 OFFCURVE",
"212 338 OFFCURVE",
"212 403 CURVE SMOOTH",
"212 556 LINE SMOOTH"
);
}
);
width = 600;
},
{
associatedMasterId = "FF6A36D6-AC67-41FE-A58D-2D1E84E0ACD0";
layerId = "87161DD3-ACA9-4DA9-B9D7-CB4F636F91B1";
width = 600;
},
{
layerId = "878EBA0B-B3D3-4EA2-BB74-EB37BB03E3E9";
paths = (
{
closed = 1;
nodes = (
"70 348 OFFCURVE",
"160 270 OFFCURVE",
"287 270 CURVE SMOOTH",
"345 270 OFFCURVE",
"403 297 OFFCURVE",
"445 351 CURVE",
"445 206 LINE SMOOTH",
"445 93 OFFCURVE",
"382 13 OFFCURVE",
"281 13 CURVE SMOOTH",
"228 13 OFFCURVE",
"190 36 OFFCURVE",
"167 68 CURVE",
"185 75 OFFCURVE",
"198 91 OFFCURVE",
"198 111 CURVE SMOOTH",
"198 137 OFFCURVE",
"177 157 OFFCURVE",
"152 157 CURVE SMOOTH",
"127 157 OFFCURVE",
"106 137 OFFCURVE",
"106 111 CURVE SMOOTH",
"106 48 OFFCURVE",
"206 -10 OFFCURVE",
"281 -10 CURVE SMOOTH",
"449 -10 OFFCURVE",
"515 144 OFFCURVE",
"515 335 CURVE SMOOTH",
"515 579 OFFCURVE",
"421 701 OFFCURVE",
"290 701 CURVE SMOOTH",
"163 701 OFFCURVE",
"70 607 OFFCURVE",
"70 480 CURVE SMOOTH"
);
},
{
closed = 1;
nodes = (
"140 505 LINE SMOOTH",
"140 579 OFFCURVE",
"185 678 OFFCURVE",
"290 678 CURVE SMOOTH",
"388 678 OFFCURVE",
"446 579 OFFCURVE",
"446 472 CURVE SMOOTH",
"446 461 LINE SMOOTH",
"446 358 OFFCURVE",
"382 296 OFFCURVE",
"287 296 CURVE SMOOTH",
"181 296 OFFCURVE",
"140 376 OFFCURVE",
"140 456 CURVE SMOOTH"
);
}
);
width = 600;
}
);
unicode = 0039;
},
{
export = 0;
glyphname = four.001;
lastChange = "2017-03-23 19:21:23 +0000";
layers = (
{
layerId = "FF6A36D6-AC67-41FE-A58D-2D1E84E0ACD0";
paths = (
{
closed = 0;
nodes = (
"688 672 LINE"
);
},
{
closed = 1;
nodes = (
"295 144 LINE",
"295 64 LINE SMOOTH",
"295 37 OFFCURVE",
"277 29 OFFCURVE",
"264 29 CURVE",
"264 0 LINE",
"494 0 LINE",
"494 30 LINE",
"476 30 OFFCURVE",
"466 37 OFFCURVE",
"466 64 CURVE SMOOTH",
"466 144 LINE",
"555 144 LINE",
"555 179 LINE",
"466 179 LINE",
"466 690 LINE",
"336 690 LINE",
"264 407 OFFCURVE",
"72 220 OFFCURVE",
"31 179 CURVE",
"30 179 LINE",
"30 144 LINE"
);
},
{
closed = 1;
nodes = (
"89 184 LINE",
"155 248 OFFCURVE",
"249 355 OFFCURVE",
"287 452 CURVE",
"296 452 LINE",
"295 179 LINE",
"89 179 LINE"
);
}
);
width = 585;
},
{
associatedMasterId = "FF6A36D6-AC67-41FE-A58D-2D1E84E0ACD0";
layerId = "87161DD3-ACA9-4DA9-B9D7-CB4F636F91B1";
width = 600;
},
{
layerId = "878EBA0B-B3D3-4EA2-BB74-EB37BB03E3E9";
width = 600;
}
);
},
{
glyphname = periodcentered;
lastChange = "2017-03-23 19:08:08 +0000";
layers = (
{
layerId = "FF6A36D6-AC67-41FE-A58D-2D1E84E0ACD0";
width = 600;
},
{
associatedMasterId = "FF6A36D6-AC67-41FE-A58D-2D1E84E0ACD0";
layerId = "87161DD3-ACA9-4DA9-B9D7-CB4F636F91B1";
width = 600;
},
{
layerId = "878EBA0B-B3D3-4EA2-BB74-EB37BB03E3E9";
paths = (
{
closed = 1;
nodes = (
"109 0 OFFCURVE",
"136 26 OFFCURVE",
"136 59 CURVE SMOOTH",
"136 90 OFFCURVE",
"109 117 OFFCURVE",
"77 117 CURVE SMOOTH",
"45 117 OFFCURVE",
"18 90 OFFCURVE",
"18 59 CURVE SMOOTH",
"18 27 OFFCURVE",
"45 0 OFFCURVE",
"77 0 CURVE SMOOTH"
);
}
);
width = 158;
}
);
unicode = 00B7;
},
{
glyphname = bullet;
lastChange = "2017-03-23 19:06:48 +0000";
layers = (
{
layerId = "FF6A36D6-AC67-41FE-A58D-2D1E84E0ACD0";
paths = (
{
closed = 1;
nodes = (
"389 118 OFFCURVE",
"465 191 OFFCURVE",
"465 289 CURVE SMOOTH",
"465 379 OFFCURVE",
"389 455 OFFCURVE",
"296 455 CURVE SMOOTH",
"203 455 OFFCURVE",
"127 379 OFFCURVE",
"127 289 CURVE SMOOTH",
"127 194 OFFCURVE",
"203 118 OFFCURVE",
"296 118 CURVE SMOOTH"
);
}
);
width = 600;
},
{
associatedMasterId = "FF6A36D6-AC67-41FE-A58D-2D1E84E0ACD0";
layerId = "87161DD3-ACA9-4DA9-B9D7-CB4F636F91B1";
width = 600;
},
{
layerId = "878EBA0B-B3D3-4EA2-BB74-EB37BB03E3E9";
width = 600;
}
);
unicode = 2022;
},
{
glyphname = colon;
lastChange = "2017-03-23 19:04:23 +0000";
layers = (
{
layerId = "FF6A36D6-AC67-41FE-A58D-2D1E84E0ACD0";
paths = (
{
closed = 1;
nodes = (
"326 -3 OFFCURVE",
"360 29 OFFCURVE",
"360 73 CURVE SMOOTH",
"360 112 OFFCURVE",
"326 147 OFFCURVE",
"287 147 CURVE SMOOTH",
"245 147 OFFCURVE",
"211 112 OFFCURVE",
"211 73 CURVE SMOOTH",
"211 29 OFFCURVE",
"245 -3 OFFCURVE",
"287 -3 CURVE SMOOTH"
);
},
{
closed = 1;
nodes = (
"326 371 OFFCURVE",
"360 404 OFFCURVE",
"360 447 CURVE SMOOTH",
"360 486 OFFCURVE",
"326 521 OFFCURVE",
"287 521 CURVE SMOOTH",
"245 521 OFFCURVE",
"211 486 OFFCURVE",
"211 447 CURVE SMOOTH",
"211 404 OFFCURVE",
"245 371 OFFCURVE",
"287 371 CURVE SMOOTH"
);
}
);
width = 600;
},
{
associatedMasterId = "FF6A36D6-AC67-41FE-A58D-2D1E84E0ACD0";
layerId = "87161DD3-ACA9-4DA9-B9D7-CB4F636F91B1";
width = 600;
},
{
layerId = "878EBA0B-B3D3-4EA2-BB74-EB37BB03E3E9";
paths = (
{
closed = 1;
nodes = (
"314 397 OFFCURVE",
"336 419 OFFCURVE",
"336 446 CURVE SMOOTH",
"336 472 OFFCURVE",
"314 494 OFFCURVE",
"287 494 CURVE SMOOTH",
"260 494 OFFCURVE",
"238 472 OFFCURVE",
"238 446 CURVE SMOOTH",
"238 419 OFFCURVE",
"260 397 OFFCURVE",
"287 397 CURVE SMOOTH"
);
},
{
closed = 1;
nodes = (
"314 22 OFFCURVE",
"336 44 OFFCURVE",
"336 71 CURVE SMOOTH",
"336 97 OFFCURVE",
"314 119 OFFCURVE",
"287 119 CURVE SMOOTH",
"260 119 OFFCURVE",
"238 97 OFFCURVE",
"238 71 CURVE SMOOTH",
"238 44 OFFCURVE",
"260 22 OFFCURVE",
"287 22 CURVE SMOOTH"
);
}
);
width = 600;
}
);
unicode = 003A;
},
{
glyphname = comma;
lastChange = "2017-03-23 19:19:39 +0000";
layers = (
{
layerId = "FF6A36D6-AC67-41FE-A58D-2D1E84E0ACD0";
paths = (
{
closed = 1;
nodes = (
"126 78 OFFCURVE",
"101 92 OFFCURVE",
"76 92 CURVE SMOOTH",
"52 92 OFFCURVE",
"30 70 OFFCURVE",
"30 47 CURVE SMOOTH",
"30 20 OFFCURVE",
"52 0 OFFCURVE",
"76 0 CURVE SMOOTH",
"94 0 OFFCURVE",
"74 -38 OFFCURVE",
"61 -47 CURVE",
"69 -57 LINE",
"85 -50 OFFCURVE",
"126 -16 OFFCURVE",
"126 38 CURVE"
);
}
);
width = 156;
},
{
associatedMasterId = "FF6A36D6-AC67-41FE-A58D-2D1E84E0ACD0";
layerId = "87161DD3-ACA9-4DA9-B9D7-CB4F636F91B1";
width = 600;
},
{
layerId = "878EBA0B-B3D3-4EA2-BB74-EB37BB03E3E9";
width = 600;
}
);
unicode = 002C;
},
{
glyphname = ellipsis;
lastChange = "2017-03-23 19:06:02 +0000";
layers = (
{
layerId = "FF6A36D6-AC67-41FE-A58D-2D1E84E0ACD0";
paths = (
{
closed = 1;
nodes = (
"322 -12 OFFCURVE",
"343 8 OFFCURVE",
"343 35 CURVE SMOOTH",
"343 59 OFFCURVE",
"322 81 OFFCURVE",
"298 81 CURVE SMOOTH",
"272 81 OFFCURVE",
"251 59 OFFCURVE",
"251 35 CURVE SMOOTH",
"251 8 OFFCURVE",
"272 -12 OFFCURVE",
"298 -12 CURVE SMOOTH"
);
},
{
closed = 1;
nodes = (
"572 -12 OFFCURVE",
"593 8 OFFCURVE",
"593 35 CURVE SMOOTH",
"593 59 OFFCURVE",
"572 81 OFFCURVE",
"548 81 CURVE SMOOTH",
"522 81 OFFCURVE",
"501 59 OFFCURVE",
"501 35 CURVE SMOOTH",
"501 8 OFFCURVE",
"522 -12 OFFCURVE",
"548 -12 CURVE SMOOTH"
);
},
{
closed = 1;
nodes = (
"72 -12 OFFCURVE",
"93 8 OFFCURVE",
"93 35 CURVE SMOOTH",
"93 59 OFFCURVE",
"72 81 OFFCURVE",
"48 81 CURVE SMOOTH",
"22 81 OFFCURVE",
"1 59 OFFCURVE",
"1 35 CURVE SMOOTH",
"1 8 OFFCURVE",
"22 -12 OFFCURVE",
"48 -12 CURVE SMOOTH"
);
}
);
width = 600;
},
{
associatedMasterId = "FF6A36D6-AC67-41FE-A58D-2D1E84E0ACD0";
layerId = "87161DD3-ACA9-4DA9-B9D7-CB4F636F91B1";
width = 600;
},
{
layerId = "878EBA0B-B3D3-4EA2-BB74-EB37BB03E3E9";
paths = (
{
closed = 1;
nodes = (
"313 -10 OFFCURVE",
"326 3 OFFCURVE",
"326 19 CURVE SMOOTH",
"326 34 OFFCURVE",
"313 47 OFFCURVE",
"297 47 CURVE SMOOTH",
"281 47 OFFCURVE",
"268 34 OFFCURVE",
"268 19 CURVE SMOOTH",
"268 3 OFFCURVE",
"281 -10 OFFCURVE",
"297 -10 CURVE SMOOTH"
);
},
{
closed = 1;
nodes = (
"64 -10 OFFCURVE",
"77 2 OFFCURVE",
"77 19 CURVE SMOOTH",
"77 34 OFFCURVE",
"64 47 OFFCURVE",
"48 47 CURVE SMOOTH",
"32 47 OFFCURVE",
"19 34 OFFCURVE",
"19 19 CURVE SMOOTH",
"19 3 OFFCURVE",
"32 -10 OFFCURVE",
"48 -10 CURVE SMOOTH"
);
},
{
closed = 1;
nodes = (
"565 -10 OFFCURVE",
"578 2 OFFCURVE",
"578 19 CURVE SMOOTH",
"578 34 OFFCURVE",
"565 47 OFFCURVE",
"549 47 CURVE SMOOTH",
"533 47 OFFCURVE",
"520 34 OFFCURVE",
"520 19 CURVE SMOOTH",
"520 3 OFFCURVE",
"533 -10 OFFCURVE",
"549 -10 CURVE SMOOTH"
);
}
);
width = 600;
}
);
unicode = 2026;
},
{
glyphname = exclam;
lastChange = "2017-03-23 19:17:03 +0000";
layers = (
{
layerId = "FF6A36D6-AC67-41FE-A58D-2D1E84E0ACD0";
paths = (
{
closed = 1;
nodes = (
"131 -12 OFFCURVE",
"152 8 OFFCURVE",
"152 35 CURVE SMOOTH",
"152 59 OFFCURVE",
"131 81 OFFCURVE",
"107 81 CURVE SMOOTH",
"81 81 OFFCURVE",
"60 59 OFFCURVE",
"60 35 CURVE SMOOTH",
"60 8 OFFCURVE",
"81 -12 OFFCURVE",
"107 -12 CURVE SMOOTH"
);
},
{
closed = 1;
nodes = (
"117 139 LINE",
"145 439 OFFCURVE",
"182 550 OFFCURVE",
"182 598 CURVE SMOOTH",
"182 669 OFFCURVE",
"151 701 OFFCURVE",
"107 701 CURVE SMOOTH",
"61 701 OFFCURVE",
"30 669 OFFCURVE",
"30 598 CURVE SMOOTH",
"30 548 OFFCURVE",
"67 439 OFFCURVE",
"97 139 CURVE"
);
}
);
width = 212;
},
{
associatedMasterId = "FF6A36D6-AC67-41FE-A58D-2D1E84E0ACD0";
layerId = "87161DD3-ACA9-4DA9-B9D7-CB4F636F91B1";
width = 600;
},
{
layerId = "878EBA0B-B3D3-4EA2-BB74-EB37BB03E3E9";
width = 600;
}
);
unicode = 0021;
},
{
glyphname = period;
lastChange = "2017-03-06 21:28:04 +0000";
layers = (
{
layerId = "FF6A36D6-AC67-41FE-A58D-2D1E84E0ACD0";
paths = (
{
closed = 1;
nodes = (
"322 -12 OFFCURVE",
"343 8 OFFCURVE",
"343 35 CURVE SMOOTH",
"343 59 OFFCURVE",
"322 81 OFFCURVE",
"298 81 CURVE SMOOTH",
"272 81 OFFCURVE",
"251 59 OFFCURVE",
"251 35 CURVE SMOOTH",
"251 8 OFFCURVE",
"272 -12 OFFCURVE",
"298 -12 CURVE SMOOTH"
);
}
);
width = 600;
},
{
associatedMasterId = "FF6A36D6-AC67-41FE-A58D-2D1E84E0ACD0";
layerId = "87161DD3-ACA9-4DA9-B9D7-CB4F636F91B1";
width = 600;
},
{
layerId = "878EBA0B-B3D3-4EA2-BB74-EB37BB03E3E9";
width = 600;
}
);
unicode = 002E;
},
{
glyphname = question;
lastChange = "2017-03-23 19:15:46 +0000";
layers = (
{
layerId = "FF6A36D6-AC67-41FE-A58D-2D1E84E0ACD0";
paths = (
{
closed = 1;
nodes = (
"267 150 LINE",
"267 166 LINE SMOOTH",
"267 225 OFFCURVE",
"284 289 OFFCURVE",
"357 315 CURVE SMOOTH",
"408 333 OFFCURVE",
"516 395 OFFCURVE",
"516 517 CURVE SMOOTH",
"516 643 OFFCURVE",
"424 702 OFFCURVE",
"258 702 CURVE SMOOTH",
"111 702 OFFCURVE",
"50 633 OFFCURVE",
"50 572 CURVE SMOOTH",
"50 522 OFFCURVE",
"86 482 OFFCURVE",
"147 482 CURVE SMOOTH",
"198 482 OFFCURVE",
"244 522 OFFCURVE",
"244 572 CURVE SMOOTH",
"244 619 OFFCURVE",
"217 645 OFFCURVE",
"194 657 CURVE",
"209 667 OFFCURVE",
"232 677 OFFCURVE",
"258 677 CURVE SMOOTH",
"348 677 OFFCURVE",
"346 557 OFFCURVE",
"346 517 CURVE SMOOTH",
"346 367 OFFCURVE",
"328 378 OFFCURVE",
"278 310 CURVE SMOOTH",
"256 280 OFFCURVE",
"240 225 OFFCURVE",
"240 166 CURVE SMOOTH",
"240 150 LINE"
);
},
{
closed = 1;
nodes = (
"282 -12 OFFCURVE",
"303 8 OFFCURVE",
"303 35 CURVE SMOOTH",
"303 59 OFFCURVE",
"282 81 OFFCURVE",
"258 81 CURVE SMOOTH",
"232 81 OFFCURVE",
"211 59 OFFCURVE",
"211 35 CURVE SMOOTH",
"211 8 OFFCURVE",
"232 -12 OFFCURVE",
"258 -12 CURVE SMOOTH"
);
}
);
width = 600;
},
{
associatedMasterId = "FF6A36D6-AC67-41FE-A58D-2D1E84E0ACD0";
layerId = "87161DD3-ACA9-4DA9-B9D7-CB4F636F91B1";
width = 600;
},
{
layerId = "878EBA0B-B3D3-4EA2-BB74-EB37BB03E3E9";
width = 600;
}
);
unicode = 003F;
},
{
glyphname = quotesingle;
lastChange = "2017-03-23 19:13:17 +0000";
layers = (
{
layerId = "FF6A36D6-AC67-41FE-A58D-2D1E84E0ACD0";
paths = (
{
closed = 1;
nodes = (
"126 671 OFFCURVE",
"101 685 OFFCURVE",
"76 685 CURVE SMOOTH",
"52 685 OFFCURVE",
"30 663 OFFCURVE",
"30 640 CURVE SMOOTH",
"30 613 OFFCURVE",
"52 593 OFFCURVE",
"76 593 CURVE SMOOTH",
"94 593 OFFCURVE",
"74 555 OFFCURVE",
"61 546 CURVE",
"69 536 LINE",
"85 543 OFFCURVE",
"126 577 OFFCURVE",
"126 631 CURVE"
);
}
);
width = 156;
},
{
associatedMasterId = "FF6A36D6-AC67-41FE-A58D-2D1E84E0ACD0";
layerId = "87161DD3-ACA9-4DA9-B9D7-CB4F636F91B1";
width = 600;
},
{
layerId = "878EBA0B-B3D3-4EA2-BB74-EB37BB03E3E9";
width = 600;
}
);
unicode = 0027;
},
